<?xml version="1.0" encoding="UTF-8"?>
<svg id="Layer_1" xmlns="http://www.w3.org/2000/svg" version="1.1" viewBox="0 0 1000 1000">
  <!-- Generator: Adobe Illustrator 29.0.0, SVG Export Plug-In . SVG Version: 2.1.0 Build 186)  -->
  <defs>
    <style>
      .st0, .st1 {
        fill: none;
      }

      .st1 {
        stroke: #fff;
        stroke-miterlimit: 10;
        stroke-width: 3px;
      }

      .st2 {
        fill: #fff;
      }
    </style>
  </defs>
  <g id="Layer_2">
    <g>
      <path class="st1" d="M318.02,264.36c-19.09.09-40.32-2.57-43.72-24.96-2.58-16.94-5.98-57.85,19.08-60.83,113.47,19.52,243.8,44.31,355.59,9.13,16.93-5.33,33.12-14.85,50.72-17.26,48.29-6.62,32.85,69.65,29.24,97.33-3.78,28.98-8.39,58.03-11.87,86.98-9.03,75.12-32.09,148.26-39.29,223.99-7.17,75.41,15.17,150.7,33.13,223.24-.27,20.4-13.19,28.92-32.42,27.88-21.27-1.15-42.74-3.72-63.84-4.83-102.31-5.38-212.33-8.34-310.34-1.67-9.48.65-23.13,3.71-27.65-7.31-6.19-15.1-4-45.27,4.72-58.84,3.28-5.1,11.67-4.71,17.06-2.68.46-.92.69-1.38,1.14-2.31.2-19.1.85-38.2,1.6-57.25,2.25-56.73,11.09-108.43,24.01-163.73,12.38-52.97,27.37-110.52,18.97-164.02-5.42-34.5-16.41-68.76-26.11-102.87h-.02ZM652.94,797.93c6.38,14.5,27.23,35.62,43.96,22.99,9.51-7.18,7.68-19.87,5.77-29.95-8.5-44.89-25.41-90.35-31.79-135.62-14.93-106.01,32.43-214.87,45.39-321.3,5.23-42.91,18.13-89.37,13.47-132.55-4-37.13-52.19-29.64-43.83,7.03,10.66.77,28.86-4.79,33.39,9.57,4.31,13.66-.17,43.73-17.04,46.72-9.94,1.76-21.54-.13-32.12-.46-96.55-2.95-194.98-4.01-292.2-1.73-17.77.42-35.55,2.27-53.37,2.49,20.08,57.82,33.33,114.02,24.47,175.26-8.67,59.96-31.81,119.16-39.32,176.76-5.8,44.49-6.79,92.74-6.1,139.39,19.56,4.18,39.16,8.54,58.81,11.14,95.06,12.56,194.94,2.13,291.3,1.68,9.11-.04,15.39-4.49,24.66,2.21,6.54,4.73,14.57,21.29,4.19,26.39h-29.66l.02-.02ZM682.83,183.06c-23.06,6.8-45.91,15.16-69.14,20.23-71.26,15.54-152.69,4.77-224.13-4.78-27.65-3.7-55.67-11.24-83.69-13.68-4.05-.35-10.31-.94-13.79-.16-19.72,4.44-13.95,51.57-7.86,63.42,9.47,18.4,49.38,10.07,67.97,9.75,107.84-1.84,217.98-5.01,326.53,1.64,4.85.3,9.58-.16,14.29,0-8.45-23.5-17.34-51.39-10.18-76.43h0ZM697.46,213.32c-4.19.27-6.29.41-10.49.69.22,3.55.32,5.32.5,8.86,4.01-.07,6.01-.11,9.99-.19v-9.36ZM688.62,229.23c1.03,6.41,5.88,41.73,19.64,26.18,7.41-8.37,10.05-20.78,8.19-31.67-2.6-15.21-20.27-10.92-11.95,3.89-6.35.64-9.52.96-15.89,1.6h.01ZM647.76,774.05c-116.82,4.49-243.74,16.91-357.83-15.88-11.5,4.17-11.06,24.37-11.45,34.39-.35,9.05-1.1,24.54,10.42,26.08,13.41,1.79,28.08-1.27,41.89-1.66,49.39-1.39,100.32-.37,150.21.13,22.2.22,44.55-.17,66.83-.13,39.55,2.11,79.1,4.24,118.65,6.42-12.23-12.94-29.11-30.23-18.71-49.35h-.01ZM651.8,793.15h26.46c12.26-9.65-9.08-21.34-18.98-18.39-7.33,2.18-9.99,11.95-7.48,18.39h0Z"/>
      <path class="st1" d="M652.94,797.93h29.66c10.38-5.1,2.35-21.66-4.19-26.39-9.27-6.7-15.55-2.26-24.66-2.21-96.36.45-196.24,10.88-291.3-1.68-19.65-2.6-39.25-6.96-58.81-11.14-.7-46.65.3-94.9,6.1-139.39,7.51-57.61,30.65-116.8,39.32-176.76,8.85-61.23-4.39-117.43-24.47-175.26,17.82-.22,35.6-2.07,53.37-2.49,97.21-2.27,195.65-1.22,292.2,1.73,10.58.32,22.18,2.22,32.12.46,16.87-2.99,21.35-33.06,17.04-46.72-4.53-14.36-22.72-8.79-33.39-9.57-8.36-36.67,39.83-44.16,43.83-7.03,4.66,43.19-8.24,89.65-13.47,132.55-12.97,106.44-60.33,215.29-45.39,321.3,6.38,45.27,23.29,90.73,31.79,135.62,1.91,10.08,3.75,22.77-5.77,29.95-16.74,12.64-37.58-8.48-43.96-22.99l-.02.02Z"/>
      <path class="st1" d="M682.83,183.06c-7.16,25.04,1.72,52.93,10.18,76.43-4.71-.16-9.44.3-14.29,0-108.54-6.65-218.69-3.48-326.53-1.64-18.59.32-58.5,8.65-67.97-9.75-6.1-11.85-11.87-58.97,7.86-63.42,3.49-.79,9.75-.2,13.79.16,28.01,2.44,56.04,9.98,83.69,13.68,71.44,9.55,152.87,20.32,224.13,4.78,23.23-5.07,46.08-13.43,69.14-20.23h0Z"/>
      <path class="st1" d="M688.62,229.23c6.36-.64,9.54-.96,15.89-1.6-8.33-14.81,9.35-19.1,11.95-3.89,1.86,10.89-.78,23.29-8.19,31.67-13.76,15.55-18.62-19.77-19.64-26.18h-.01Z"/>
      <path class="st0" d="M651.8,793.15c-2.5-6.44.16-16.21,7.48-18.39,9.9-2.94,31.24,8.74,18.98,18.39h-26.46,0Z"/>
      <path class="st0" d="M697.46,213.32c0,3.75.01,5.62,0,9.36-3.98.07-5.98.11-9.99.19-.18-3.55-.29-5.32-.5-8.86,4.2-.27,6.29-.41,10.49-.69Z"/>
    </g>
  </g>
  <g id="Layer_3">
    <g>
      <path class="st2" d="M474.23,332.26c-.21.12-.52.61-.76,1.07-.3.58-.72.8-1.36.67-.53-.12-1.15-.06-1.4.12-.36.28-.86.21-2.64-.31-2.59-.73-2.87-.77-2.09-.15.76.61-.82.61-2.29,0-1.39-.58-1.76-.58-1.55,0,.12.28-.26.58-.74.73-.51.15-.89.43-.84.61.12.4-1,.46-1.46.06-.18-.15-1.37-.46-2.61-.64-2.12-.37-2.82-.34-5.9.21-.65.09-1.13.03-1.36-.18-.6-.55-.91-.4-.72.43.11.67-.06.77-2,.77-3.8,0-6.07,1.13-6.2,2.94-.08,1.1-.37,1.29-1.1.67-.34-.28-.56-.24-.73.15-.14.28-.57.52-.96.52s-.8.49-.92,1.19c-.28,1.38-.97,1.77-3.19,1.96-1.34.12-1.77.03-2.89-.55-1.15-.61-1.34-.64-1.86-.31-.38.21-1.98.34-3.97.34-3.22-.03-3.42-.06-5.02-.89-1.17-.58-1.86-1.1-2.27-1.65-.54-.73-.6-.77-1.71-.55-.66.09-1.27.28-1.39.34-.14.09.18,1.38.6,2.91.44,1.53.66,3.58.54,4.53-.21,1.68-.28,1.87-3.04,3.4-2.46,1.35-3.08,1.9-4.05,3.49-.97,1.53-1.13,2.05-.77,2.82.28.61.26,1.47-.09,2.45-.48,1.29-.48,1.81.08,3.64.48,1.62.75,2.26,1.26,2.63.36.24.73.67.81.92.2.55-2.67,4.25-4.83,6.12-.88.73-2.06,1.71-2.56,2.14-.74.61-1.61.86-4.08,1.13-3.01.34-5.27,1.13-4.98,1.77.07.15.02.4-.12.58-.11.15-.31,1.16-.41,2.2-.27,2.14-.41,2.33-3.07,3.61-1.68.83-1.94,1.13-2.79,3.06-.5,1.25-.9,2.91-.95,3.95,0,1.93.24,1.68-3.9,4.71-.97.73-1.96,1.62-2.15,1.99-.15.27-.23.4-.4.67.34-.24.51-.37.86-.61.33-.24.49-.37.81-.61-.31.43-.47.64-.76,1.07-.7,1.01-1.24,2.08-2.61,4.99-.3.67-.91,1.32-1.36,1.47-.49.12-1.08.64-1.36,1.1-.64,1.07-1.34,5.72-.96,6.43.26.46.41.4,1.16-.37.34-.36.51-.53.85-.89.37.51.55.77.92,1.29.87,1.25,1.66,1.68,1.63.89.03-.18.36.12.81.7.98,1.35,1.16,3.43.3,3.18-.36-.12-.7.03-.84.37-.15.31-.06.58.21.67.31.06.32.31.02.86-.37.61-.29.86.45,1.44,1.06.92,1.44,1.9,1.8,4.84.29,2.2.24,2.48-1.14,5.2-.94,1.87-1.52,3.55-1.66,4.84-.24,2.36-1.37,4.01-3.97,5.78-1.94,1.32-2.14,1.59-1.17,1.59.89,0,3.17,1.96,3.15,2.72,0,.4.2.64.62.64.49,0,.53.09.18.37-.67.52-.62.95.04.77.39-.12.49-.03.37.24-.17.28.23.67,1.02,1.07.93.46,1.03.61.5.61-.42,0-1.02-.21-1.39-.49-.59-.43-.66-.43-1.07.12-.24.34-.33.67-.19.8.12.09.07,1.13-.24,2.33-.51,1.93-.5,2.23.16,2.75.41.34.9.58,1.09.61.22,0,.34.31.29.64-.04.37.06.83.24,1.01.35.37,2.75.4,3.79.03.6-.18.66-.15.37.12-.46.49.15.92,1.36.98.75.03.77.06.13.18-.42.09-1.02.31-1.32.46-.61.37-.84.98-.26.7.24-.09.35.03.27.31-.15.55.44,1.38,1.01,1.38.18,0,.39.28.4.61.06.77.61.8,1.44.06.56-.46.58-.43.4.34-.17.58-.1.8.23.64.28-.12.31-.09.11.12-.19.18-.17.7,0,1.13.37.86,2.61,2.72,3.62,3.06.49.15.58.4.35.77-.22.34-.1.83.19,1.22.31.37.53,1.01.49,1.41,0,.4.12.73.32.73s.08.24-.3.67c-.52.55-.51.73-.15,1.1.45.4.41.43-.38.24-.35-.09-.53-.13-.88-.21.11.37.17.55.28.92.12.49.55,1.04.92,1.22.35.18.56.52.41.77-.15.24,0,.73.3,1.07.52.61.5.64-.14.64-1.09,0-1.32.55-.28.77,1.67.4,5.47,2.75,5.73,3.58.09.31.62.83,1.16,1.16.5.34.88.77.81.95-.06.15.4.58,1.02.89.63.37,1.73,1.62,2.53,3.03,1.13,1.96,1.77,2.66,3.58,3.86,1.19.8,2.43,1.62,2.77,1.87.51.43.74.4,3.56-.52,1.64-.52,3.2-1.07,3.45-1.22,1.12-.67,3.8-1.25,7.5-1.68,4-.46,9.06-.49,8.81-.06-.09.15.4.24,1.09.24.64.03,1.57.24,2.05.49,1.52.83,1.65.83,2.87.18.63-.34,2.09-.86,3.19-1.13,1.12-.24,3.44-1.01,5.15-1.68,1.74-.67,3.7-1.32,4.37-1.44.63-.09,1.24-.28,1.33-.43.22-.34-.09-1.19-.43-1.19-.18,0-.2-.09-.05-.18.48-.31,1.03.46.81,1.1-.28.8.76.58,2.37-.49,1.55-1.01,4.85-1.68,8.42-1.68,2.1,0,3.12-.12,3.83-.46.56-.28,1.01-.4,1.06-.31.02.09-.13.18-.29.18-.2,0-.4.09-.49.21-.11.15.58.24,1.45.28,2.06,0,3.18,1.07,2.83,2.69-.12.61-.05,1.1.15,1.1s.17.15-.05.34c-.24.18-.23.4.04.49.39.15.35.24-.2.64-.54.37-.62.49-.41.58.1.09.03.43-.19.73-.96,1.35-.96,3.37-.02,3.76.25.12.59.09.8-.09.19-.15.57-.21.8-.12.23.09.93.06,1.55-.03.92-.18,1.13-.31,1.14-.67-.03-.52.45-.58.54-.06.04.28.2.28.66,0,.84-.52,1.4-.46.8.09-.28.24-.36.46-.2.46.19,0,.51-.18.76-.4.3-.31,1.07-.46,2.32-.49,1.03-.03,2.01-.18,2.18-.37.51-.46.82-.31.47.18-.22.31-.07.46.43.46.57,0,.66.24.41.98-.41,1.25.28,2.3,1.19,1.81.45-.24.64-.28.59-.03-.03.15-.2.31-.34.31-.51,0-.92.8-1.07,2.14-.05.51-.08.77-.14,1.29-.83.89-1.26,1.34-2.09,2.23-1.14,1.22-2.28,2.6-2.56,3.03-.29.52-1.08,1.29-2.3,2.23-2.7,2.11-3.13,2.54-2.82,2.72.12.12,0,.52-.3.92-.39.52-.76.77-1.35.92-.32.07-.5.11-.82.18-.11.45-.16.68-.27,1.13-.17.61-.3.92-.31.7-.1-.64-.37-.43-1.63,1.32-1.13,1.53-1.43,1.81-2.69,2.57-1.02.61-1.49.8-1.62.61-.1-.15-.24-.28-.36-.28-.24,0-1,1.99-1.18,3.06-.12.73-.18.89-.58,1.53-.11.15.06.31.36.31.43,0,.42.09-.01.37-.91.58-.99.83-.43,1.32.29.24.29.37.03.28-.18-.07-.27-.11-.45-.18-.1.51-.14.77-.24,1.29-.17,1.01-.06,1.25.48,1.13.35-.06.53-.03.37.12-.17.12-.15.31.04.37.21.06.09.09-.29.06-.95-.06-1.05.4-.44,1.93.27.73.44,2.26.39,3.37-.04,1.13-.03,2.54.1,3.12.1.58.04,1.56-.13,2.14-.15.58-.42,1.59-.56,2.23-.14.64-.52,1.53-.85,1.99-.33.46-1.09,2.51-1.67,4.56-.57,2.05-1.22,4.25-1.5,4.9-.26.64-.65,1.99-.83,2.97-.47,2.36-1.05,3.34-2.44,4.07-.57.28-1.17.73-1.3.95-.4.7-1.76,6.82-1.8,8.14,0,1.16-.05,1.32-1.38,4.16-1.61,3.43-2.4,4.53-4.24,5.51-.66.37-1.19.86-1.29,1.16s-.69,1.01-1.3,1.59c-.77.7-1.19,1.32-1.36,1.93-.12.46-.42,1.16-.68,1.53-.23.37-.68,1.35-.98,2.2-.83,2.51-2.23,5.81-2.94,6.67-.57.7-.65.89-.68,2.51-.03.98-.09,1.93-.18,2.11-.06.18-.12.09-.08-.21.01-.28-.07-.52-.2-.52-.15,0-.2.21-.13.52.05.31-.02,1.87-.12,3.46-.17,2.42-.08,3.18.32,4.59.28.95.83,2.11,1.18,2.6.35.52.87,1.53,1.16,2.3.29.77.88,2.17,1.36,3.18.45.98,1.07,2.48,1.35,3.34.27.86,1.04,2.45,1.68,3.52.66,1.07,1.25,2.11,1.29,2.33.04.22.37.7.75,1.13.37.4.94,1.13,1.26,1.65.66,1.04,1.6,3.4,1.22,3.12-.16-.12.09,1.1.8,3.24.93,2.78,1.42,3.7,2.26,4.84.63.86,1.51,2.42,2.43,4.13,1.9,3.58,2.8,4.74,3.56,5.51.36.34.63.7.64.83-.04.28,2.53,3.21,4.71,5.2,1.54,1.41,5.91,4.13,7.06,4.56.8.28,3.75,2.6,6.91,5.17,4.52,3.7,6.21,4.84,10.71,7.56,2.05,1.25,4.49,2.72,5.38,3.27,3.36,2.11,5.42,4.13,4.07,4.13-.76,0,.51.92,2.53,1.81.91.4,1.83.86,2.04,1.01.2.15,1.19.7,2.19,1.19,1.58.8,1.94,1.04,2.99,1.99.63.58,1.53,1.25,1.96,1.5,1.17.67,1.67.55.83-.15-.99-.83-.14-.77,1.14.06.83.55,1.33.73,2.1.8.57.06,1.39.31,1.83.55,1.72.98,6.11,1.84,5.4,1.04-.7-.8.53-1.5,2.61-1.5,1.95,0,2.15-.09,2.15-.83-.04-.8.21-.86,2.62-.95,4.56-.12,5.24-.09,7.34.37,1.78.37,2.01.37,1.95,0-.08-.31.45-.46,1.44-.46,1.36,0,1.45-.06.79-.7-.63-.61-.56-.67,1.33-.7,1.81,0,2.12-.15,2.78-1.1,1.05-1.53,1.56-3.98,1.73-6.73.08-1.29.45-2.88.76-3.52.58-1.19.5-5.91-.02-8.2-.34-1.53.11-2.94,1.47-4.5,1.21-1.35,1.23-2.08.35-4.68-.34-1.01-.68-2.51-.77-3.37-.07-.83-.32-1.74-.52-2.02-.24-.28-.77-1.44-1.14-2.54-.63-1.81-.76-2.08-1.48-2.42-.79-.37-.83-.43-.68-1.38.22-1.35,1.05-1.9,5.5-3.4,2.73-.95,4.06-1.59,4.83-2.42,1.4-1.41,2.03-4.07.77-3.61-.41.15-.53,0-.62-1.1-.05-.73,0-1.71.16-2.2.17-.58.14-.98-.1-1.1-.24-.09-.54-.95-.71-1.9-.32-1.78-.97-2.45-1.08-1.1-.02.4-.22-.06-.37-.98-.22-1.1-.65-2.11-1.28-2.91-.59-.8-.93-1.56-.92-2.2.01-.83-.18-1.16-1.18-1.9-1.13-.83-1.27-1.07-1.36-2.45-.07-1.32.05-1.56.61-1.56.42,0,1.65-.95,3-2.23,1.31-1.22,2.83-2.33,3.46-2.51.73-.21,1.91-1.16,3.41-2.75,1.3-1.35,2.97-2.82,3.75-3.27,1.62-.95,6.15-2.6,8.01-2.88.68-.12,1.66-.52,2.16-.89.5-.4,1.59-.98,2.45-1.35.87-.37,1.67-.92,1.78-1.19.34-.7,2.83-3.46,3.79-4.16,1.45-1.07,2.65-5.23,1.59-5.57-.28-.09-.41-.4-.27-.77.12-.31.08-.58-.11-.58-.15,0-.24-1.35-.14-3,.1-2.2.04-2.94-.28-2.88-.25.06-.13-.18.26-.52.54-.46.64-.73.38-1.01-.16-.21-.29-1.71-.26-3.31.08-2.26.28-3.21.83-4.28.37-.77.73-1.41.59-1.47s-.09-.31.11-.55c.48-.58-.31-1.74-1.78-2.75-.65-.4-1.13-.8-1.12-.83.38-.98.84-3.76.69-4.1-.11-.28-.15-.64-.07-.83.05-.18.07-.7.01-1.16-.05-.7.14-1.13,1.12-2.48,1.03-1.47,1.15-1.74.95-2.45-.17-.77-.13-.86.97-1.84.66-.58,1.25-1.22,1.35-1.44.1-.21-.25-1.13-.77-2.05-.52-.92-.86-1.99-.76-2.39.08-.43.93-1.59,2.15-2.97,1.09-1.22,2.28-2.6,2.59-3.06.35-.46.94-.92,1.32-1.04.45-.12,1.75-1.29,3.73-3.37,1.63-1.74,3.13-3.24,3.32-3.34.2-.12.57-.64.81-1.16.59-1.29,1.72-2.26,2.84-2.48,1.07-.24,3.82-2.05,3.87-2.57.04-.21.3-.37.59-.37.72,0,1.83-.86,4.27-3.37,2.14-2.2,9.74-8.39,14.5-12,2.1-1.59,4.11-2.91,6.16-3.98,2.71-1.41,3.58-2.02,7.34-5.57,5.04-4.77,6.7-6.76,7.54-8.17.32-.58,1.52-2.33,2.6-3.89,1.06-1.53,2.02-3.15,2.15-3.58.13-.43.32-1.07.45-1.47.1-.37.73-1.53,1.35-2.6.63-1.04,1.37-2.51,1.67-3.21.3-.7.72-1.5.93-1.74.22-.21.85-1.41,1.35-2.57.5-1.19,1.1-2.45,1.34-2.78.25-.37.59-1.53.86-2.91.25-1.25.59-2.54.76-2.85.4-.67.92-3.95.7-4.25-.11-.12,0-.7.26-1.62.25-.86.37-1.53.29-1.71-.07-.15-.47-.37-.9-.46-.71-.18-.79-.15-1.33.73-.3.52-.8,1.04-1.07,1.13-.27.09-.95.4-1.49.67-.55.28-1.52.52-2.14.52-.63.03-1.36.21-1.62.46-.34.28-.8.37-1.53.21-.98-.18-1.06-.12-2.48,1.07-.6.51-.9.77-1.5,1.29-.4-.21-.6-.31-1-.52-.39-.2-.58-.29-.98-.49-.47.36-.69.53-1.17.89-.63.49-1.61,1.07-2.12,1.25-.85.31-1.07.28-1.65-.24-.38-.34-.84-1.16-1-1.9-.18-.7-.39-1.65-.51-2.08-.16-.73-.3-.83-1.28-.83-1.21,0-1.14-.12.62-1.22,1.33-.86,1.57-1.25,1.64-2.66.05-1.07-.3-2.72-.55-2.66-.4.12-.57-.06-.46-.52.07-.28-.08-.64-.34-.83-.33-.21-.51-.61-.54-1.16-.07-.92-.52-1.81-1.3-2.54-.28-.28-.7-1.04-.89-1.68-.48-1.59-1.05-2.36-1.92-2.6-.78-.21-1.71-.98-1.68-1.38,0-.12-.13-.55-.29-.92-.17-.4-.35-.86-.37-1.04-.09-.67-.53.18-.47.98.03.7.02.67-.15-.18-.11-.52-.29-1.07-.41-1.22-.3-.34-.56-2.02-.72-4.53-.16-2.33-.23-2.82-1.09-6.21-.32-1.32-.67-2.2-.83-2.2-.14,0-.63-.61-1.09-1.35-.46-.73-1.01-1.41-1.22-1.53-.22-.12-.46-.61-.57-1.13-.25-1.22-.73-7.13-.67-8.32.01-.58-.07-1.13-.22-1.38-.36-.58-.38-1.16-.02-.67.58.77.47.06-.14-1.04-.39-.67-.7-1.56-.83-2.39-.19-1.07-.42-1.59-1.34-2.88-.61-.86-1.43-1.81-1.77-2.08-.78-.61-1.84-3.03-2.06-4.65-.14-1.04-.11-1.1.33-.92.27.12.47.12.46.03,0-.06-.48-.73-1.05-1.44-.61-.77-1.44-2.14-1.97-3.31-.53-1.1-1.74-3.37-2.73-5.05-1.01-1.68-2.28-3.95-2.79-5.02-.51-1.07-1.3-2.42-1.75-3-.69-.89-.8-1.1-.64-1.35.15-.21-.08-.55-1.19-1.65-.77-.8-1.81-1.96-2.31-2.6-.49-.64-1.04-1.25-1.17-1.35-.17-.12-.31-.4-.35-.64-.04-.24-.41-.92-.88-1.47-.92-1.13-1.46-2.2-1.27-2.51.08-.09.23.06.36.37.13.31.99,1.38,1.89,2.39.98,1.1,1.72,2.14,1.9,2.63.22.61.82,1.32,2.33,2.78,1.09,1.1,2.15,2.05,2.42,2.14.64.24.87-.8.46-2.17-.31-1.04-.42-2.11-.88-5.78-.13-1.1-.3-1.71-.55-1.99-.19-.18-1.34-1.9-2.68-3.79-.97-1.37-1.47-2.06-2.51-3.43.07-.27.11-.4.18-.67.09-.37.12-.8.05-.95-.23-.46-.7-.24-.78.4-.17,1.25-.74,1.59-2.39,1.38-.98-.15-1.5-.09-1.52.09.05.49-1.08.4-1.65-.12-.25-.24-.74-.52-1.04-.64-.3-.09-.79-.37-1.06-.55-.48-.34-1.59-.49-3.72-.49-2.3,0-2.54.06-2.2.67.24.43.2.58-.21.49-.27-.03-.65.21-.8.55-.41.98-1.03,1.65-1.49,1.65-.24,0-.98-.28-1.68-.61-.7-.33-1.65-.61-2.08-.61s-.95-.15-1.1-.31c-.17-.18-.61-.31-.96-.31s-.99-.21-1.4-.46c-.43-.24-1.58-.58-2.56-.77-.98-.18-2.3-.46-2.94-.64-.81-.24-1.32-.24-1.77,0-.89.46-1.06.43-1.78-.37-1.29-1.44-1.95-1.74-3.58-1.74-.84,0-1.87-.15-2.3-.37-.4-.18-1.35-.49-2.12-.67-1.22-.31-1.47-.46-2.12-1.19-.65-.73-.96-.89-3.31-1.62-2.89-.89-3.92-.89-5.54.09-1.32.8-1.78,1.87-1.35,3.12.44,1.29,1.34,2.45,3.09,4.01,1.56,1.41,1.96,2.17,1.85,3.4-.1,1.29-.73,1.9-1.66,1.68-.45-.12-1.71-.73-2.85-1.41-2.69-1.56-6.86-2.97-9.73-3.34-1.38-.18-2.66-.49-3.29-.83-1.13-.58-3-1.93-3.79-2.82-1-1.13-2.9-2.11-4.46-2.36-.8-.12-2.11-.46-2.94-.77-.77-.28-2.13-.64-3-.77-.84-.12-1.87-.34-2.32-.52-.5-.18-1.28-.18-2.2.09-1.43.34-1.51.34-3.92-.46-2.86-.92-3.78-1.01-3.41-.28.32.7-.95.28-1.95-.67-.86-.83-2.47-1.47-2-.83.37.49-.49.46-.88,0-.16-.21-.69-.43-1.17-.49-1.84-.21-4.25-1.35-4.97-2.3-.14-.21-.1-.64.15-.92.25-.28.43-.8.38-1.19-.02-.95-1.38-3.24-1.91-3.43-.22-.09-1.02-.58-1.72-1.07-.98-.67-1.86-1.1-3.28-1.56-1.58-.52-2.08-.77-3.06-1.53-.67-.52-1.09-.92-.95-.92.63,0-.26-1.65-1.45-2.63-.72-.58-1.5-1.16-1.74-1.25-.21-.09-.4.15-.34.58.02,1.04-.26,1.25-1.04.67-.33-.24-.89-.52-1.29-.64-.46-.12-.65-.24-.65-.4.02-.4-1.37-.98-2-.86-.3.09-.71,0-.94-.18-.47-.4-1.53-.52-1.95-.21.03.02.04.04.07.06ZM382.39,448.8c-.38.06-.98.06-1.32,0-.37-.09-.07-.15.65-.15s1.02.06.67.15h0ZM385.55,456.54c-.04.15-.41.31-.84.31-.4,0-.58-.15-.42-.31.16-.18.56-.31.84-.31s.48.12.42.31Z"/>
      <path class="st2" d="M387.16,372.2c-.69.61-.69.8-.2,1.22.78.64.95.61,1.87-.28,1.46-1.5-.09-2.39-1.66-.95,0,0,0,0-.01.01Z"/>
      <path class="st2" d="M363.09,373.76c-.21.58,1.1,2.08,1.65,1.9.42-.12.74-1.93.38-2.2-.45-.34-1.91-.12-2.03.31,0,0,0,0,0-.01Z"/>
      <path class="st2" d="M385.7,374.89c-.2.55-.7,1.38-1.1,1.84-.3.34-.46.51-.76.86h1c1.57,0,2.86-.83,2.94-1.93.06-.52-.02-1.16-.17-1.38-.45-.73-1.53-.37-1.91.61h.01Z"/>
      <path class="st2" d="M372.6,374.95c-.36.21-1.16.52-1.75.64-.64.09-1.14.28-1.13.37.08.55,1.87,2.17,2.26,2.05.72-.24,2.71-2.85,2.4-3.18-.4-.43-1.02-.37-1.77.12Z"/>
      <path class="st2" d="M367.68,376.82c-.46.55-.04,1.07.87,1.07.36,0,.77-.15.87-.31.21-.34-.61-1.22-1.08-1.22-.15,0-.43.21-.66.46Z"/>
      <path class="st2" d="M376.79,377.04c-1.01,1.01.68,2.78,2.06,2.11.8-.4.91-.95.41-1.81-.45-.73-1.85-.92-2.46-.31,0,0,0,0-.01.01Z"/>
      <path class="st2" d="M363.21,378.54c-.67.24-.72.37-.32.73.69.64,1.64.58,2.07-.12.31-.49.26-.61-.2-.77-.34-.09-.6-.18-.63-.15-.03,0-.45.15-.91.31h0Z"/>
      <path class="st2" d="M604.57,379.36c.05.15.25.4.45.49.23.12.28.03.18-.18-.23-.46-.75-.7-.63-.31Z"/>
      <path class="st2" d="M335.28,431.63c-.45.15-.78,1.35-.37,1.35.78,0,2.73-.77,2.61-1.04-.16-.37-1.44-.55-2.23-.31h-.01Z"/>
      <path class="st2" d="M336.94,432.89c-.82.24-.62.7.29.7.45,0,.82-.21.82-.46,0-.46-.24-.52-1.11-.24h0Z"/>
      <path class="st2" d="M350.14,432.92c-.33.4.4,1.59.97,1.59s.49-.7-.12-1.38c-.4-.37-.64-.43-.85-.21h0Z"/>
      <path class="st2" d="M338.67,433.59c-.12.15-.04.31.16.31.24,0,.45-.15.45-.31,0-.18-.09-.31-.16-.31-.12,0-.33.12-.45.31Z"/>
      <path class="st2" d="M341.21,434.08c-.57.43.24.92,1.35.8,1.47-.15,1.6-.52.33-.8-1.18-.21-1.35-.21-1.68,0h0Z"/>
      <path class="st2" d="M627.18,435.98c0,.18.07.37.18.43.14.09.09.31-.12.64-.19.28-.26.52-.15.52s.13.21.07.46c-.17.58.15.58.47,0,.12-.24.17-.61.12-.83-.08-.21-.13-.58-.12-.83.03-.49-.41-.86-.42-.4,0,0,0,0,0,0Z"/>
      <path class="st2" d="M350.54,436.53c-.49.98.84,1.44,1.73.61.4-.37.33-.52-.31-.77-1.05-.43-1.12-.43-1.42.15,0,0,0,0,0,.01Z"/>
      <path class="st2" d="M628.07,437.88c-.17.4-.06.73.22.58.11-.09.14-.31.06-.55-.09-.31-.16-.31-.28-.03Z"/>
      <path class="st2" d="M348.65,441.24c0,.34.19.61.4.61.24,0,.4-.28.41-.61,0-.34-.16-.61-.4-.61-.21,0-.4.28-.41.61Z"/>
      <path class="st2" d="M345.29,441.15c-.97.7.64,2.2,1.97,1.81.78-.21.73-.67-.24-1.41-.85-.64-1.3-.73-1.75-.4h.01Z"/>
      <path class="st2" d="M634.51,445.83c-.14.37-.02.92.23.92.21,0,.26-.83.06-1.07-.08-.09-.21-.03-.28.15h0Z"/>
      <path class="st2" d="M634.14,447.67c0,.15.05.31.14.31.11,0,.24-.15.3-.31.06-.18,0-.31-.14-.31-.16,0-.28.12-.3.31Z"/>
      <path class="st2" d="M662.43,452.72c-.15.31-.11.58.11,1.04.4.83,1.27.83,2.19,0,.65-.58.66-.64.39-.98-.46-.52-2.45-.55-2.69-.06Z"/>
      <path class="st2" d="M659.03,454.68c-.02.31.76.77.9.49.14-.21.03-.34-.45-.58-.25-.09-.45-.06-.45.09Z"/>
      <path class="st2" d="M661.41,455.01c0,.15.07.31.15.31.1,0,.16-.15.17-.31,0-.18-.05-.31-.15-.31-.08,0-.16.12-.17.31Z"/>
      <path class="st2" d="M376.84,458.44c-.25.24-.13.28.29.15.39-.12.63-.06.59.12-.04.18.15.28.46.18.27-.09.69,0,.86.18.25.28.44.24.78-.09.67-.64.67-.92.05-.92-.29,0-.58.12-.62.31-.04.18-.38.18-.94,0-1.08-.37-1.04-.37-1.47.06,0,0,0,0,0,.01Z"/>
      <path class="st2" d="M380.81,458.69c-.14.15-.15.31.07.31.18,0,.51-.15.66-.31.16-.18.15-.31-.07-.31-.18,0-.5.12-.66.31Z"/>
      <path class="st2" d="M377.68,459.6c-.14.15-.12.31.07.31.22,0,.43-.15.47-.31.04-.18,0-.31-.07-.31-.1,0-.32.12-.47.31Z"/>
      <path class="st2" d="M380.76,459.57c-.04.18-.28.24-.48.18-.66-.21-1.48.31-1.37.86.11.55.67.7.81.21.04-.18-.1-.31-.32-.31-.18,0-.21-.15-.07-.31.25-.24.46-.24.72,0,.27.21.53.18.9-.12.37-.31.45-.49.2-.64-.16-.09-.35-.06-.39.12,0,0,0,0,0,.01Z"/>
      <path class="st2" d="M377.33,460.58c.06.46.87.55,1.02.09.04-.18-.16-.37-.52-.4-.33-.09-.54.03-.51.31Z"/>
      <path class="st2" d="M481.05,496.24c-.25.09-.58.31-.74.52-.18.24-.86.8-1.53,1.25-1.18.83-1.2.86-1.01,1.25.31.67.76.52,2.32-.77,1.86-1.56,2.33-2.69.95-2.26,0,0,0,0,0,.01Z"/>
      <path class="st2" d="M467.16,507.07c-.21.18-.39.49-.36.67.03.24.18.15.54-.34.54-.73.5-.86-.18-.34,0,0,0,0,0,0Z"/>
      <path class="st2" d="M587.42,540.31c-.36.83-.52,1.44-.4,1.38.1-.03.33-.06.5-.06.41,0,1.52-1.93,1.39-2.39-.3-.8-.87-.37-1.49,1.07h0Z"/>
      <path class="st2" d="M583.63,543.58c-.56.64-1.18,2.48-.83,2.39.19-.06.37.09.4.37.03.28.18.49.31.49.54,0,1.13-1.01.96-1.5-.12-.28-.13-.86-.03-1.35.2-.89-.19-1.1-.81-.4h0Z"/>
      <path class="st2" d="M581.76,553.37c-.69.37-1.26.77-1.32.89-.2.43.79.21,1.61-.37,1.29-.92,1.07-1.29-.29-.52h0Z"/>
      <path class="st2" d="M615.63,562.74c-.04.15.1.31.28.31.22,0,.41-.15.45-.31.05-.18-.07-.31-.28-.31-.18,0-.39.12-.45.31Z"/>
      <path class="st2" d="M594.57,571.18c-.47.86-.36,1.56.32,2.11,1.05.86,1.61.24,1.17-1.35-.32-1.29-1.02-1.62-1.49-.77,0,0,0,0,0,.01Z"/>
      <path class="st2" d="M630.3,574.28c-.42.92-1.41,1.62-2.22,1.62-.74,0-.74.03-.17.55.38.31.64.89.62,1.32-.03,1.1-1.32,2.78-2.29,3.06-.79.21-.89.15-.88-.49,0-.43-.18-.77-.37-.77-.62,0-1.03,1.01-.49,1.16.54.12.59,1.16.08,1.44-.19.09-.46-.12-.61-.46-.1-.34-.37-.61-.56-.61-.62,0-1.66,1.47-1.36,1.9.19.21.34.77.37,1.22.03.64-.13.86-.67.86-.92,0-1.25.46-.83,1.13.42.61-.48,1.56-.91,1.01s-.92-.31-1.98.92c-.74.86-.94,1.44-.79,1.99.15.43.07.77-.16.77-.19,0-.39-.24-.39-.55,0-.86-.37-1.01-1.5-.55-1.62.67-2.85,1.9-2.63,2.63.12.34.03.55-.15.43-.19-.09-.34-.37-.34-.61,0-.34-.15-.37-.73-.12-.42.15-1.19.31-1.72.31s-1.11.18-1.26.4c-.42.55-1.94.86-2.13.43-.07-.21-.57-.09-1.22.34-.65.43-1.59.67-2.43.67-1.74,0-2.31.43-2.29,1.84,0,.73-.41,1.53-1.29,2.57-.86,1.02-1.19,2.35-.99,3.98.2,1.44.68,2.97,1.09,3.61.45.64.8,1.53.83,1.99.02.46.33,1.13.7,1.47.41.43.55.95.46,1.71-.11.64.02,1.22.26,1.32.24.12.05.64-.45,1.32-.43.61-1.27,2.02-1.82,3.15-.52,1.13-1.24,2.17-1.64,2.33-.35.15-.97,1.1-1.32,2.11-.95,2.57-.43,4.62,1.82,7.04,1.35,1.44,1.58,1.9,1.34,2.39-.44.98.57,3.79,1.63,4.59.52.4.98.89,1.02,1.1.14.64,3.47,2.78,4.29,2.78.42,0,1.61.34,2.63.77,1.03.43,2.05.77,2.31.77.29,0,1.51-.46,2.77-1.01,1.29-.58,3.1-1.13,4.06-1.22,2.44-.31,3.14-.86,3.6-2.72.23-.89.65-2.14.92-2.75.32-.64.8-2.85,1.17-4.9.36-2.08,1.16-4.74,1.7-5.91.54-1.19,1.2-3,1.43-4.07.22-1.07.75-2.63,1.11-3.52.41-.89,1.63-3.98,2.77-6.86,1.78-4.47,2.14-5.6,2.1-7.41-.04-1.74.08-2.2.7-2.54.39-.21.94-.98,1.2-1.68.43-1.13.42-1.41-.18-2.08-.36-.43-.57-.92-.45-1.07.12-.15,0-.55-.24-.86-.48-.61-.28-1.59.35-1.59.2,0,.64.55,1,1.22.67,1.32,1.76,1.87,2.31,1.19.19-.24.63-1.1.98-1.9.42-.98.28-1.87-.45-2.66-.79-.86-1.03-1.47-.94-2.36.09-.64,0-1.35-.15-1.53-.16-.21-.19-.7-.07-1.1.16-.49-.03-1.22-.53-1.99-.46-.7-.8-1.65-.8-2.17,0-.55-.41-1.22-1.14-1.87-.62-.55-1.16-1.16-1.14-1.38,0-.24-.3-.61-.73-.83-.39-.21-.77-.67-.83-.98-.17-.8-1.02-.98-1.4-.28.01,0,.02,0,.04-.01Z"/>
      <path class="st2" d="M601.14,574.31c-1.08.12-1.1.52-.12,1.1.95.58,1.68.18,1.22-.64-.2-.37-.6-.52-1.12-.46,0,0,0,0,.01,0Z"/>
      <path class="st2" d="M596.56,575.29c-.03.4.98.77,1.35.49.12-.12.02-.34-.26-.49-.7-.4-1.07-.37-1.09,0Z"/>
      <path class="st2" d="M605.01,577.89c-.02.46.14.77.45.77s.53-.21.55-.46c.02-.25.24-.46.51-.46.3,0,.27-.12-.1-.31-.91-.49-1.36-.34-1.41.46Z"/>
      <path class="st2" d="M634.96,597.6c-.39.34-.62.86-.53,1.16.12.43.33.34.86-.46.77-1.22.65-1.53-.33-.7h0Z"/>
      <path class="st2" d="M590.42,598.85c.12.15.3.31.42.31.07,0,.15-.15.15-.31,0-.18-.19-.31-.42-.31-.19,0-.25.12-.15.31Z"/>
      <path class="st2" d="M549.85,621.5c.06.34.29.61.47.61.21,0,.31-.28.25-.61-.06-.34-.25-.61-.45-.61-.18,0-.31.28-.25.61h-.01Z"/>
    </g>
  </g>
</svg>