<?xml version="1.0" encoding="UTF-8"?>
<svg id="Layer_1" xmlns="http://www.w3.org/2000/svg" xmlns:xlink="http://www.w3.org/1999/xlink" version="1.1" viewBox="0 0 1000 1241.1">
  <!-- Generator: Adobe Illustrator 29.0.0, SVG Export Plug-In . SVG Version: 2.1.0 Build 186)  -->
  <defs>
    <style>
      .st0 {
        fill: #fdfdf2;
      }

      .st1 {
        fill: #e5e8f5;
      }

      .st2 {
        fill: #e7eaf6;
      }

      .st3 {
        fill: #8ea1d2;
      }

      .st4 {
        fill: #94a6d5;
      }

      .st5 {
        fill: #aebadf;
      }

      .st6 {
        fill: #9aabd7;
      }

      .st7 {
        fill: #aab7de;
      }

      .st8 {
        fill: #dde1f2;
      }

      .st9 {
        fill: #ccd3eb;
      }

      .st10 {
        fill: #a5b3dc;
      }

      .st11 {
        fill: #f4f5fb;
      }

      .st12 {
        fill: #eaecf7;
      }

      .st13 {
        fill: #eff0f8;
      }

      .st14 {
        fill: #c0c9e7;
      }

      .st15 {
        fill: #cad1ea;
      }

      .st16 {
        fill: #90a3d3;
      }

      .st17 {
        fill: #e0e3f3;
      }

      .st18 {
        fill: #eceef7;
      }

      .st19 {
        isolation: isolate;
      }

      .st20 {
        fill: #ced5ec;
      }

      .st21 {
        fill: #b7c2e3;
      }

      .st22 {
        fill: #f7f8fc;
      }

      .st23 {
        fill: #b0bce0;
      }

      .st24 {
        fill: #869bcf;
      }

      .st25 {
        fill: #c5cde9;
      }

      .st26 {
        fill: #8a9ed1;
      }

      .st27 {
        fill: #8c9fd1;
      }

      .st28 {
        fill: #f1f3f9;
      }

      .st29 {
        fill: #e2e5f4;
      }

      .st30 {
        fill: #d8ddf0;
      }

      .st31 {
        fill: #fff;
      }

      .st32 {
        fill: #a1b0da;
      }

      .st33 {
        fill: #d1d7ed;
      }

      .st34 {
        fill: #889cd0;
      }

      .st35 {
        fill: #a7b5dd;
      }

      .st36 {
        fill: #92a4d4;
      }

      .st37 {
        fill: #bcc6e5;
      }

      .st38 {
        fill: #b3bee1;
      }

      .st39 {
        fill: #d3d9ee;
      }

      .st40 {
        fill: #acb9df;
      }

      .st41 {
        fill: #b9c4e4;
      }

      .st42 {
        fill: #a3b2db;
      }

      .st43 {
        fill: #c7cfe9;
      }

      .st44 {
        fill: #96a7d6;
      }

      .st45 {
        fill: #c3cbe8;
      }

      .st46 {
        fill: #9cacd8;
      }

      .st47 {
        fill: #98a9d7;
      }

      .st48 {
        fill: #bec7e6;
      }

      .st49 {
        fill: #b5c0e2;
      }

      .st50 {
        fill: #dbdff1;
      }

      .st51 {
        fill: #d6dbef;
      }

      .st52 {
        fill: #fbfbfd;
      }

      .st53 {
        fill: #9faed9;
      }
    </style>
  </defs>
  <g id="Layer_4">
    <rect class="st0" width="1000" height="1241.1"/>
  </g>
  <g id="Layer_3">
    <image class="st19" width="2697" height="3917" transform="translate(232.6 200.6) scale(.2)" xlink:href="Background-1.png"/>
  </g>
  <g id="Layer_2">
    <g>
      <path class="st31" d="M1000,1346.1H0v-22.8c87.8.9,175.3,5.6,263.1,2.2,77.6-2.9,153.7-4.1,231.3.9,77.8,5,154.3,9.5,232.3,8.8,91-.9,182.3-2.4,273.3-1.1v11.9h0Z"/>
      <path class="st52" d="M1000,1326.2c-90.4-2-181.4.9-271.8,2.4-38.5.6-77.3,1.8-115.8-.3-40.4-2.1-80.7-9.8-121-13.9-38.7-3.9-78.3-9.5-117.2-8.1-37.9,1.3-75.8,4.5-113.6,6.8-87.2,5.4-173.3-2.2-260.5-3.8v-19.1c86.9,2.6,171.3,14.7,258.3,6.3,37.3-3.6,74.6-8.4,112.1-10.4,38.8-2,79.1,6.2,117.4,12,42,6.4,84.3,17.9,126.7,21.2,38.7,3,77.9,1.4,116.7.4,42.9-1.1,85.8,0,128.7-1.4,46.8-1.5,93.3-5.2,140.2-3.8v11.8h0Z"/>
      <path class="st22" d="M1000,1306.2c-46.3-1.4-92,3.5-138.1,5.6-42.7,2-85.5.7-128.2,2.1-38.9,1.3-78.5,3.2-117.4-.4-43.7-4.1-87.2-17.9-130.5-25.8-38-6.9-78.7-16.8-117.3-14.4-37,2.3-74,8.3-110.8,12.7-40.1,4.8-78.2,6.8-118.6,3.3-46.4-4-92.6-9.7-139.1-11.5v-16c47.1,2.3,93.7,9.6,140.6,14.7,40.5,4.4,77.4,2.1,117.6-3.9,36.1-5.4,72.3-12.8,108.8-15.6,38.4-3,79.5,8.9,116.9,17.2,44.8,9.9,90,26.8,135.6,31.9,39.2,4.4,79.3,2.2,118.5.5,42.4-1.9,85.1-.3,127.3-3.3,45.1-3.2,89.3-10,134.7-8.6v11.6h0Z"/>
      <path class="st11" d="M1000,1286.2c-44.6-1.2-87.6,7-131.8,11.1-41.9,3.9-84.5,2.1-126.6,4.3-39.5,2.1-80,4.5-119.4-.5-46.8-5.8-93.2-24.6-139.1-35.9-36.9-9.1-78.3-22.3-116.4-18.9-36,3.2-71.6,11.5-107.2,17.6-40.3,6.9-76.5,9.2-117.1,4.2-47.4-5.9-94.5-14.4-142.3-17.1v-13.3c48.9,3.2,97,13.2,145.4,20.1,40.9,5.9,76.2,3.6,116.7-4.5,34.7-6.9,69.5-16.5,104.9-20,37.8-3.8,79.2,10.8,115.5,20.8,47.3,13.1,95.1,34.1,143.6,40.9,39.8,5.6,80.8,3,120.7.5,41.7-2.6,84.2-.7,125.6-5.8,43-5.4,83.9-15.8,127.5-14.8v11.4h0Z"/>
      <path class="st28" d="M1000,1266.2c-43-.7-82.1,11.4-124.1,17.9-40.9,6.3-83.4,4.1-124.8,7.1-40.3,2.9-81.6,5.6-121.8-.4-49.7-7.5-98.6-29.9-146.9-44.3-35.7-10.6-77.2-26-114.6-21.9-34.8,3.8-69,14.2-103,21.7-40.6,9-75.3,11.1-116.5,4.7-49.4-7.7-98.4-18.8-148.4-22.4v-11.2c51.6,4.1,101.9,16.6,152.9,25.3,41.6,7.1,75.6,5.3,116.5-4.8,33.2-8.2,66.5-19.6,100.6-23.6,36.9-4.4,78.2,11.7,113.1,23,49.4,15.9,99.6,40,150.8,48.3,40.6,6.6,82.4,3.8,123.1.4,40.8-3.4,83.5-.8,123.6-8.8,40.6-8.1,77.3-22.4,119.4-22.2v11.2h0Z"/>
      <path class="st13" d="M1000,1246.2c-41.5.1-76,16.3-115.5,25.7-39.4,9.3-82.3,6.5-122.7,10.2-41.1,3.8-83.3,6.6-124.2-.4-52.4-9-103.4-34.2-153.8-51.2-34.4-11.6-75.3-28.1-111.8-23.5-33.5,4.2-66.1,16.3-98.6,25-41.1,11-74.6,12.4-116.6,4.8-52.2-9.5-103.8-23.1-156.8-27.5v-9.5c54.9,4.9,108.2,19.8,162.1,30.2,42.4,8.2,75.6,7.4,117-4.7,31.7-9.2,63.3-22.1,96.2-26.5,36-4.8,76.3,11.9,109.9,23.9,51.4,18.3,103.5,44.7,157.2,54.4,41.4,7.5,84,4.7,125.5.4,39.7-4.1,83-.9,121.4-12,38.2-11.1,69.7-29.5,110.7-30.2v11h0Z"/>
      <path class="st18" d="M1000,1226.3c-40.7,1.1-69.6,21.4-106.7,34-37.5,12.7-81.2,9.2-120.4,13.6-41.9,4.7-84.8,7.6-126.5-.4-54.7-10.4-107.7-37.6-159.8-56.8-33-12.2-72.7-28.9-108.2-24-32.4,4.5-63.2,18-94.2,27.6-41.6,12.9-74.6,13.1-117.4,4.6-55.5-11.1-110.3-27.1-166.7-32.3v-8.2c58.5,5.5,115.2,22.8,172.6,34.7,43.1,9,76.2,9.6,118-4.4,30.2-10.1,60.2-24.1,92-28.7,34.9-5.1,73.7,11.4,106,23.8,53.1,20.4,107,48.3,162.8,59.4,42.2,8.4,85.3,5.5,127.7.4,38.5-4.7,82.9-.8,119.1-15.4,35.8-14.4,61.5-36.9,102-38.6v10.8h0Z"/>
      <path class="st12" d="M1000,1206.3c-40.4,2.3-63.3,26.5-98.1,42.6-35,16.2-80.1,12-118,16.9-42.7,5.6-86.1,8.4-128.6-.4-56.7-11.7-111.3-40.1-165-61.3-31.6-12.5-69.5-28.5-103.9-23.4-31.3,4.7-60.6,19.2-90.2,29.6-16.6,5.8-34.7,12-52.4,13.4-21.7,1.7-45.2-4.8-66.3-9.2-59.1-12.6-117.3-30.9-177.6-36.7v-7.4c62.3,6,122.5,25.5,183.5,38.8,43.7,9.6,77.3,11.7,119.5-3.9,28.9-10.7,57.4-25.7,88.2-30.4,33.7-5.1,70.4,10.2,101.3,22.7,54.5,22.1,109.9,51,167.5,63.4,42.9,9.2,86.4,6.5,129.5.4,37.2-5.2,83.1-.8,116.7-18.7,33.5-17.9,53.3-44.2,93.8-47.1v10.6h0Z"/>
      <path class="st2" d="M1000,1186.3c-40.8,3.5-57.8,31.5-90.3,51-32.2,19.4-79,14.8-115.6,20.2-43.4,6.5-87,9.1-130.2-.5-58.3-12.9-114.3-42.1-169.4-65-30.1-12.5-65.8-27.1-98.8-22-30.4,4.7-58.3,20-86.7,30.9-42.3,16.3-76.4,13.3-120.4,3.6-62.7-13.9-124.5-34.4-188.6-40.6v-7c66.1,6.3,129.8,27.9,194.3,42.5,44.2,10,79,13.7,121.4-3.2,27.9-11.2,55.1-26.8,85.2-31.5,32.3-5,66.6,8.5,95.9,21,55.7,23.7,112.3,53,171.4,66.6,43.6,10,87,7.5,130.8.7,21-3.3,41.8-6.8,63-8.1,19.2-1.2,35-2.7,51.3-13.7,31.2-21.2,45.6-51.1,86.7-55.2v10.4h0Z"/>
      <path class="st1" d="M1000,1166.3c-41.5,4.6-53.5,36.3-83.8,59-15.8,11.9-31.3,13.4-50.6,14.7-21.1,1.4-41.8,5.1-62.7,8.5-44,7.2-87.3,9.6-131.1-.8-59.7-14.2-116.8-43.6-173-67.9-28.6-12.4-61.5-24.8-93.1-19.9-29.9,4.6-56.5,20.5-84.1,31.8-42.5,17.5-78.1,13-122.4,2.9-66.1-15.1-131.4-37.7-199.2-44v-6.9c69.5,6.3,136.4,29.9,204.2,45.5,44.4,10.2,80.9,15.4,123.6-2.5,27.3-11.5,53.5-27.6,83.2-32.1,30.8-4.7,62.2,6.3,90,18.6,56.6,25,114.3,54.3,174.5,69.2,43.9,10.8,87.1,8.7,131.2,1,20.7-3.6,41.2-7.4,62.2-8.9,19.3-1.4,34.5-3,49.9-15.7,29.3-24.1,39-57.6,81.1-62.7v10.2h0Z"/>
      <path class="st29" d="M1000,1146.4c-42.7,5.5-50.6,40.7-79.1,66.1-15,13.4-30,15.1-49.5,16.6-20.8,1.6-41.1,5.5-61.6,9.2-44.2,8.1-87.1,9.9-131.1-1.2-60.7-15.4-118.8-44.6-175.8-70.3-27-12.2-56.9-21.8-86.9-17.3-29.7,4.4-55.6,20.6-82.7,32.2-42.8,18.3-80.1,12.5-124.7,2.1-69.2-16.1-137.5-40.6-208.6-46.8v-7.3c72.4,6.1,142.2,31.6,212.6,48,44.6,10.4,83,16.7,125.9-1.8,27.1-11.7,52.8-28,82.5-32.3,29.1-4.2,57.4,3.9,83.5,15.9,57.2,26.3,115.9,55.3,176.9,71.3,44,11.6,86.5,10.1,130.8,1.6,20.3-3.9,40.2-8,60.9-9.6,19.6-1.5,34.5-3.3,49.2-17.3,27.9-26.6,34.2-63.4,77.7-69.2v10.1Z"/>
      <path class="st17" d="M1000,1126.4c-44.4,5.9-49.3,44.4-76.9,72-14.6,14.6-29.4,16.3-49.2,17.9-20.4,1.6-40,5.8-60,9.9-44.2,8.9-86.2,10-130.1-1.9-61.3-16.7-120.3-45.4-177.8-72.3-25.3-11.8-52-18.3-80.1-14.5-30,4.1-55.5,20.5-82.7,32.3-43.1,18.6-82.4,11.9-127.1,1.4-71.6-16.8-142.4-43.1-216.1-49v-7.9c74.6,5.6,146.4,32.7,218.9,49.8,44.9,10.6,85,17.5,128.3-1.1,27.5-11.8,53.1-28.2,83.4-32.2,27.1-3.5,52.3,1.3,76.6,13,97.1,46.7,198,98.9,307.7,75.6,19.6-4.2,38.9-8.5,58.9-10.1,20-1.6,34.9-3.3,49.4-18.3,27.5-28.5,31.4-68.4,76.8-74.4v9.9h0Z"/>
      <path class="st8" d="M1000,1106.4c-46.7,5.8-49.8,47.1-77.6,76.4-14.6,15.4-29.7,17-49.9,18.6-19.7,1.6-38.5,6.1-57.7,10.3-108.3,24.1-211.6-29.8-306.9-77.1-55.8-27.7-105.2-1.6-157.4,20.5-43.5,18.4-84.6,11.4-129.6.8-73.1-17.3-145.7-45.3-221-50.4v-8.9c75.7,4.7,148.9,33.4,222.3,50.9,45.1,10.7,87,17.6,130.8-.5,50-20.7,102-49.1,155.4-21.7,57.2,29.4,117.7,56.4,179.2,75.1,42.9,13,82.9,13.6,126.3,3.4,18.7-4.4,37-9,56.3-10.5,20.5-1.6,35.8-3.1,50.6-18.7,28.4-29.9,31.1-72.4,79.1-77.8v9.7h0Z"/>
      <path class="st50" d="M1000,1086.4c-49.2,4-53,45.6-83.4,74.9-15.6,15.1-31.6,15.7-52.2,17.8-18.6,1.9-36.2,7.2-54.2,11.9-41.9,11.1-80.8,11.1-122.6-1.2-61-18-120.5-46.1-176.9-75.4-53.3-27.6-105.8,1.7-155.9,22.1-44.6,18.1-86.7,11.7-132.6.8-73.4-17.4-146.5-46.2-222.2-50.9v-9.5c75.2,5.1,147.6,32.9,220.5,50.1,47.4,11.2,88.9,16.5,134.8-1.7,52.5-20.8,104.9-50.5,160.2-21.5,88.4,46.3,188.2,102.6,289.5,71,17.2-5.3,34.2-11.7,52.1-14.2,20.3-2.9,37.2-2.2,53.9-15.9,33.1-27.2,39.4-65.7,89-67.7v9.5h0Z"/>
      <path class="st30" d="M1000,1066.5c-49.7.1-58.7,35.7-94.3,60.5-17.7,12.4-35.4,10.4-55.6,14.1-17.2,3.1-33.5,10.2-49.9,15.9-99,34.5-192.5-22.5-279.9-65.7-58.4-28.9-110.2,0-166,21.3-47.2,18.1-88.2,14-136.9,2.7-72-16.8-143.2-43.4-217.4-48.8v-9.3c72.9,5.5,142.8,30.9,213.7,47.2,49.7,11.4,90.5,14.2,138.6-3.5,33.6-12.3,66.1-29.5,102-34.5,25-3.4,47.7,2.8,70.2,13.1,86.9,39.6,175.2,97.5,272.3,61.7,15.8-5.8,31.5-13.4,48.1-16.8,20.1-4.1,38.4-1.3,56.8-12.6,13.9-8.5,23.9-21.8,35.9-32.5,19-16.9,36.7-22.9,62.3-22.3v9.3h0Z"/>
      <path class="st51" d="M1000,1046.5c-25.7-1.3-44.2,3.7-64.4,19.3-12.6,9.8-23.4,22.1-37.6,29.6-19,10-37.9,6.5-57.9,10.9-15.9,3.6-31.1,11.3-46.3,17-33.1,12.4-67.8,16-102.7,9.2-56-10.9-109.1-45.8-162.1-67.1-23.1-9.3-48.2-16.9-73.1-12.8-37.4,6.1-71.6,22.1-107.1,34.5-49,17-89.7,15.6-140.2,4.3-69.2-15.5-137.3-39.6-208.4-44.9v-9.1c69.2,5.1,135.6,27.9,203.1,42.7,24.6,5.4,51.4,12.2,76.8,10.2,21.9-1.7,43.9-8.4,64.6-15.2,37-12.2,72.9-27.9,111.6-34.2,25.3-4.1,52.3,3.8,76.2,12.1,18.4,6.4,36.4,14.2,54.4,21.8,34.2,14.5,69.5,35.6,106.1,42.2,33.4,6,67.2,2.8,98.9-8.8,14.8-5.4,29.5-13,44.9-16.6,20-4.7,39.3-.6,58.7-9.7,14.5-6.8,25.8-18.4,38.8-27.4,21-14.6,40.1-18.8,65.8-17.1v9.1h0Z"/>
      <path class="st39" d="M1000,1026.5c-25.6-2.1-45.3,1.3-67,14.8-13.4,8.3-25.3,19-40,25.1-19.7,8.2-39.4,3.7-59.3,8.4-14.8,3.5-29,10.6-43.4,15.5-30.3,10.2-63.2,12.5-94.7,7.2-35.5-6-69.6-26.7-103-39.9-18.5-7.3-37.1-14.4-56.2-19.9-25.1-7.2-54.7-14.9-80.7-10.7-40.3,6.5-78.2,21.7-117,33.5-21.7,6.6-44.5,13.3-67.2,15.2-24.9,2-51.1-4.3-75.2-9.4-65.2-13.7-129.3-35-196.1-39.7v-8.9c64.6,4.3,126.6,24.1,189.7,36.9,23.7,4.8,49.4,10.7,73.7,8.7,23.4-1.9,46.9-8.5,69.4-15,40.3-11.5,79.9-26.1,121.5-32.7,26.8-4.3,58.5,3,84.9,9.1,19.7,4.6,39,11.1,58,18.1,33,12.2,66.1,32.2,100.8,37.9,30.2,5,62.2,3.7,91.5-5,14.2-4.2,28-10.9,42.3-14.2,19.9-4.6,39.8.1,59.7-7.4,14.8-5.6,27-15.7,40.6-23.4,22.2-12.6,42.3-15.5,67.8-13.1v8.9h0Z"/>
      <path class="st33" d="M1000,1006.5c-25.3-2.6-45.8-.2-68.4,11.4-13.8,7.1-26.4,16.5-41.2,21.5-20,6.8-40,2-60,6.3-13.9,3-27.3,8.8-41.2,12-28.2,6.5-59.4,6.1-87.9,1.5-33.8-5.5-65.8-24.5-98.4-35.2-19.8-6.5-40-12.2-60.6-15.7-28.2-4.8-62.5-11.1-90.7-6.8-43.2,6.7-84.7,20.4-126.9,31.4-50.1,13.1-92.6,16.7-143.6,6.9-60.4-11.6-119.6-29.6-181.2-33.3v-8.7c59.2,3.2,116.1,19.7,174.1,30.3,50.8,9.2,93.9,4.8,143.9-7.3,43.6-10.5,86.6-23.5,131-30.1,29.8-4.4,65.8.9,95.7,4.6,21.3,2.6,42.3,7.4,62.9,13.5,32.3,9.6,63.5,27.6,96.7,33.1,27.3,4.5,57.8,6.4,85.2,2,13.8-2.2,26.8-7.3,40.4-10,20-3.9,40,.8,60-5.5,14.8-4.7,27.6-13.6,41.5-20.2,22.8-10.9,43.4-13,68.6-10.3v8.7h0Z"/>
      <path class="st20" d="M1000,986.6c-24.9-2.7-45.7-1-68.6,9.2-14,6.2-26.9,14.5-41.7,18.8-20.1,5.8-39.9,1.3-59.9,4.6-13.3,2.2-25.9,6.1-39.5,6.9-26.7,1.6-55.9-2.6-82.1-7.1-32.4-5.5-62.8-22-94.8-30.1-21.7-5.5-43.8-9.2-66.1-10.6-32.6-2.1-70.5-6-102.7-1.4-46,6.5-90.8,18.4-136.1,28.2-49.5,10.7-93.6,16-143.8,7.7-54.9-9.2-108.7-23.7-164.6-26.2v-8.5c53.2,1.9,104.7,14.9,157.1,23,49.8,7.7,94.5,1.9,143.6-7.9,46.5-9.2,92.7-20.3,139.8-26.6,34.3-4.6,73.7-2.1,108.4-1.2,83.6,2.2,158.7,44.8,242.2,47.5,13.4.4,25.8-2.6,39-4.4,20-2.8,39.7,1.4,59.8-4,14.7-4,27.7-12,41.7-17.9,22.9-9.7,43.7-11.2,68.5-8.5v8.5h0Z"/>
      <path class="st9" d="M1000,966.6c-24.4-2.7-45.2-1.3-68,7.8-13.9,5.5-26.9,13-41.5,16.8-19.9,5.1-39.4,1.5-59.4,3.4-13.2,1.3-25.2,3-38.4.8-81.7-13.7-157.6-49.1-242-47.2-20.6.5-41.1,2.7-61.7,3.7-18.5.9-36.4-1.1-54.8,1.2-48.4,6-96.3,15.8-144.3,24.1-48.5,8.4-94,14.7-143,8.1-49.1-6.6-97.3-17.4-147-18.7v-8.4c47.1.7,92.9,9.9,139.6,15.5,48.5,5.7,94.4-.6,142.4-8.1,90.2-14,178.8-25.1,269.9-30,25.1-1.4,50.4-.9,75.4,2.5,31.5,4.2,60.5,16.1,91.4,22.3,26.4,5.3,49.8,15.3,75.5,22.4,13,3.6,24.8,2.8,38,2,19.9-1.3,39.3,1.9,59.1-3,14.4-3.6,27.4-10.8,41.2-16.1,22.7-8.7,43.4-10,67.6-7.4v8.4h0Z"/>
      <path class="st15" d="M1000,946.6c-23.8-2.4-44.4-1.2-66.8,7.2-13.6,5-26.5,11.9-40.8,15.3-19.4,4.7-38.8,2.3-58.5,2.6-13.5.2-25.1-.5-37.7-6-25.3-11-45.8-23.2-73.3-29.2-30.3-6.6-59.2-16.2-90.4-19-26.5-2.3-53.2-1.5-79.7,1-94.4,8.8-188.2,18.8-282.4,31.2-47.3,6.2-93.5,12.4-141.2,8-43.2-4-85.8-11-129.3-11.1v-8.2c41-.3,81.4,5.1,122.2,8,47.2,3.4,93.4-2.5,140.2-7.9,97.1-11.1,194-20.5,290.9-31.9,60.4-7.1,113.8-.4,172.6,13.1,28.5,6.5,47.1,20.4,71.9,34.2,26,14.4,67.6,13.1,95.7,6.5,14.1-3.3,26.9-10,40.4-14.9,22.2-8.1,42.7-9.3,66.2-7.1v8.2h0Z"/>
      <path class="st43" d="M1000,926.6c-23.1-2-43.4-.7-65.2,7.1-13.3,4.7-25.9,11.1-39.7,14.3-29.3,6.8-69.6,7.5-94.9-10.8-23.9-17.3-40.2-33.9-70-41.2-59.5-14.6-116.2-15-176.6-6-49.5,7.3-97.4,14.9-147.2,19-51.9,4.2-103.7,9.2-155.5,13.9-46.1,4.2-92.1,9.3-138.5,7.6-37.5-1.5-74.7-4.5-112.3-3.8v-8c35.3-1,70.5.5,105.8,1,45.8.6,91.5-3.8,137.1-7.2,52.2-3.9,104.5-7.8,156.7-11.6,52.2-3.8,102-13.1,153.7-21.8,60.3-10,119.8-14,179.5,1.3,30.7,7.9,45.8,26.5,68.9,45.9,24.8,20.8,64.1,20.7,94.4,13.6,13.6-3.2,26.2-9.4,39.3-14,21.6-7.6,41.7-9,64.5-7.2v8h0Z"/>
      <path class="st25" d="M1000,906.7c-39.3-2.5-65.5,12.5-102,21.1-32,7.5-69.7,6.8-93.9-17.6-21.8-22-35.6-44-67.4-52.6-60-16.1-124.2-5.6-184.1,5.8-54.9,10.5-107.7,22.6-163.5,25.9-52.5,3.1-105.1,5.4-157.6,8-77.2,3.9-154.3,6.5-231.5,9.5v-7.8c74.8-3.3,149.5-8.7,224.3-11.3,52.5-1.8,105.1-3.1,157.6-5.7,58.1-2.9,113.1-16.8,169.9-28.4,59.5-12.1,127.1-26.8,187.2-10.3,32.5,8.9,45.6,33.3,66.6,56.7,23.7,26.5,60.5,27.8,93.5,20,36-8.5,62.2-23.2,100.9-21.1v7.8h0Z"/>
      <path class="st45" d="M1000,886.7c-37.8-1.5-63.9,12.7-99.2,21.1-34.8,8.3-70.1,6-93.2-23.3-19.8-25.2-31.9-53.3-65.3-62.6-60.2-16.8-133.2,4.2-192.1,17.2-59.8,13.2-118.4,30-179.9,32.2-52.2,1.8-104.4,1.4-156.7,1.9-43.3.4-87.1.3-130.2,5-27.9,3.1-55.3,7.1-83.4,8.6v-7.6c27-1.4,52.5-6.6,79.1-10.4,42.2-6,85.7-4.6,128.2-4.3,51.8.4,103.6,1.8,155.4.5,63.5-1.6,124.5-20.3,186-34.3,58.7-13.4,134.9-38.1,195.2-21.3,34,9.5,45.6,39.9,64.7,65.9,22.8,30.9,57.4,33.7,93.1,25.2,34.8-8.4,61-22.3,98.2-21.2v7.6h0Z"/>
      <path class="st14" d="M1000,866.7c-36.4-.5-62.8,13-96.9,21.3-37.1,9-70.7,5.6-93.1-27.6-18.1-26.9-29-61-63.7-70.4-27.6-7.5-60-1-87.5,3.6-37.9,6.3-75.4,15.2-112.7,24.2-64.2,15.4-129.4,36.9-195.9,37.4-50.8.4-101.5-2.7-152.2-4.4-40.8-1.4-84.3-5.1-124.7,2.9-25,4.9-47.4,11.6-73.2,12.9v-7.4c25.6-1.2,46.1-8.6,70.4-14.2,39.2-9,82.7-4,122.4-2,49.8,2.5,99.6,6.7,149.6,6.8,68.3.2,136-23,201.7-39.1,38.4-9.4,76.9-18.9,115.9-25.9,27.2-4.9,60-12.7,87.4-5.5,35.1,9.2,45.6,45.3,63.2,72.5,22.1,34.2,55.3,37.9,93.2,28.7,33.8-8.3,60.3-21.5,96.3-21.4v7.4h0Z"/>
      <path class="st48" d="M1000,846.7c-35.3.5-62.3,13.2-95.6,21.3-38.8,9.5-71.5,5.9-93.5-29.9-16.8-27.5-26.8-66.7-62.4-75.1-27.2-6.4-60.5,3.1-87.1,8.6-40.7,8.4-80.9,18.5-121.2,28.7-68.1,17.1-140.2,42.8-211.2,41.3-48-1-95.9-6.8-143.8-10.7-37.5-3-81.3-10.1-118.3.1-23.7,6.6-41.1,14.7-66.9,15.6v-7.2c14.9-.4,29.7-.8,43.8-6.3,7.5-3,14.1-7.5,22-9.8,35.7-10.6,79.5-2.6,115.7,1,46.5,4.7,92.9,11.4,139.6,13,72.4,2.4,147.2-24.7,216.5-42.3,41.3-10.5,82.6-21,124.2-30.1,26.4-5.8,59.8-16.2,86.9-10.3,35.8,7.7,45.5,48.5,62,75.9,21.9,36.4,54.6,39.6,93.8,30.1,33.2-8,60.4-20.4,95.5-21.2v7.2h0Z"/>
      <path class="st37" d="M1000,826.8c-34.8,1.1-62.7,13.1-95.8,21-39.4,9.4-71.7,6.5-93.8-30.1-16.3-27-26.2-68.4-61.9-75.7-27.4-5.6-61.7,6.5-88.1,12.8-42.3,10-84.2,21.2-126.2,32.3-45.5,12-91,24.5-137,34.7-27.8,6.2-55.2,12.5-83.8,10.7-45.2-2.9-90-11.6-134.8-17.8-35.2-4.9-77.7-14.4-112.8-3.9-7.8,2.3-14.4,6.9-21.9,9.9-14.1,5.6-28.9,5.9-43.8,6.2v-7c15-.3,29.7-.7,43.8-6.1,7.7-2.9,14.4-7.4,22.4-9.7,35.2-10.2,76.7,0,111.8,5.5,44.3,7,88.5,16.4,133.3,20.2,28.7,2.4,56.5-4.8,84.4-11.3,46-10.7,91.5-23.5,137.1-35.9,42-11.4,84-23,126.3-33.3,26.4-6.5,61.4-19.4,88.9-13.8,35.4,7.2,45.6,48.4,62,75.2,22.3,36.5,54.4,39.2,93.8,30.1,33.2-7.8,61.5-19.6,96.3-20.8v7h0Z"/>
      <path class="st41" d="M1000,806.8c-34.9,1.2-64.2,12.8-97.6,20.2-39.3,8.8-71.2,6.5-93.9-29.7-16.6-26.4-27.2-66.9-62.3-74-27.6-5.6-63.4,8.5-89.8,15.4-42.1,10.9-83.9,22.8-125.8,34.7-45.4,12.9-90.8,26.1-136.6,37.4-27.9,6.9-56.1,15.5-85,12.3-44-4.9-87.5-15.3-131-23.4-35.1-6.5-75-17.2-110.6-7.8-24,6.4-41.3,14.5-67.5,14.9v-6.8c26.1-.4,44.2-8.2,68.4-14.3,35.7-8.9,75,1.8,110.1,8.7,43.1,8.4,86.3,19.8,130,24.6,29,3.2,57.1-5.6,85.1-12.7,45.6-11.6,90.8-24.9,136-37.9,41.7-12,83.3-24.1,125.2-35.2,26.4-7,62.4-21.5,90-16,34.8,7,45.8,47,62.5,73.2,23,36,54.8,38,94.1,29.5,33.7-7.3,63.5-18.5,98.5-19.8v6.8h0Z"/>
      <path class="st21" d="M1000,786.8c-35.4,1.3-66.4,12-100.7,18.9-39.2,7.9-71,6.7-94.6-28.9-17-25.6-28.4-64.6-62.9-71.2-27.6-5.4-63.7,9.7-90,16.8-41.4,11.3-82.5,23.5-123.6,35.7-44.7,13.2-89.3,26.7-134.3,38.5-27.9,7.3-56.1,16.7-85.1,13.2-43.3-5.1-86.1-17-128.7-25.9-35.4-7.3-73.5-17.9-109.7-10.1-24.7,5.3-44.2,12.7-70.4,12.8v-6.7c26.3,0,46.7-7,71.7-11.9,36.4-7.2,74.2,3.1,109.7,10.5,42.4,8.9,85.1,20.9,128.3,26.1,28.9,3.5,57-6,84.9-13.4,44.7-11.9,88.9-25.4,133.2-38.6,40.8-12.2,81.5-24.5,122.5-35.8,26.3-7.2,62.2-22.4,89.8-17.1,34.2,6.5,46,44.8,63.1,70.1,23.9,35.2,55.8,36,95,28.5,34.6-6.7,66.2-17.1,101.9-18.4v6.7h0Z"/>
      <path class="st49" d="M1000,766.8c-36.3,1.2-69.3,11-104.7,17.2-39,6.8-71.2,6.9-95.8-27.6-17.6-24.7-29.8-61.5-63.7-67.7-27.5-5-62.8,10-88.9,17.3-40.2,11.2-80.1,23.5-120,35.6-43.4,13.2-86.7,26.6-130.5,38.4-27.6,7.5-55.5,17.1-84.2,13.6-42.9-5.1-85.5-17-127.8-25.8-35.9-7.5-73.2-17-110-11.1-25.7,4.1-47.7,10.4-74.4,10v-6.5c26.8.5,49.8-5.3,75.8-9.1,37-5.3,74.2,3.8,110.3,11.2,42.3,8.6,84.8,20.3,127.7,25.3,28.6,3.3,56.3-6.2,83.7-13.6,43.3-11.7,86.1-25.1,129-38.2,39.5-12,78.9-24.2,118.6-35.3,26-7.3,61-22.2,88.3-17.3,33.7,6,46.2,41.9,64,66.3,24.9,34.2,57.4,33.6,96.3,27.2,35.9-5.9,69.5-15.4,106.2-16.5v6.5h0Z"/>
      <path class="st38" d="M1000,746.8c-37.5,1-72.6,9.7-109.5,15.1-38.7,5.7-71.7,7.2-97.4-26.1-18.3-23.7-31.4-57.9-64.7-63.4-27.1-4.5-61.1,9.8-86.8,17.1-38.6,10.9-77,22.7-115.3,34.5-41.7,12.8-83.4,25.8-125.5,37.3-27.1,7.4-54.3,16.5-82.5,13.5-42.9-4.6-85.6-15.7-127.9-23.8-36.5-7-73.9-15.1-111.3-11.1-26.9,2.9-51.6,7.9-79,6.9v-6.3c27.9,1.1,53.3-3.5,80.7-6,37.6-3.4,75.1,4.2,111.8,10.9,42.4,7.8,85.1,18.5,128.1,22.8,28,2.8,55-6.1,81.9-13.4,41.5-11.3,82.6-24.1,123.7-36.7,37.8-11.6,75.6-23.4,113.7-34,25.7-7.2,59-21.2,86-16.8,33.1,5.3,46.4,38.7,65,62,26.1,32.8,59.4,30.9,98,25.5,37.3-5.1,73.2-13.4,111.1-14.4v6.3h0Z"/>
      <path class="st23" d="M1000,726.9c-38.9.8-76.3,8.3-114.8,12.8-38.3,4.5-72.4,7.2-99.3-24.3-19.2-22.5-33.2-53.9-65.8-58.8-26.6-4-58.7,9.1-84,16.1-36.8,10.2-73.3,21.5-109.8,32.7-39.7,12.2-79.4,24.5-119.5,35.3-26.5,7.1-52.7,15.3-80.3,13-43.2-3.6-86.1-13.4-128.8-20.4-37.3-6.1-75.3-12.5-113.2-10.3-28.5,1.7-55.6,5.4-84.4,3.8v-6.1c29.2,1.7,57-1.6,86.1-2.9,38.1-1.8,76.4,4.1,113.9,9.9,42.9,6.6,85.9,15.9,129.2,19.1,27.4,2.1,53.2-5.8,79.5-12.8,39.5-10.5,78.5-22.7,117.5-34.6,35.9-11,71.8-22,108-32,25.1-6.9,56.6-19.5,83-15.8,32.5,4.6,46.7,35.2,66.3,57.3,27.4,31,61.7,28,100,23.8,39-4.3,77-11.4,116.4-12.1v6.1h0Z"/>
      <path class="st5" d="M1000,706.9c-40.5.5-80,6.8-120.3,10.5-38,3.5-73.2,7.2-101.5-22.5-20.3-21.3-35.2-49.8-67.3-53.9-25.9-3.4-56,8.1-80.7,14.8-34.8,9.4-69.2,19.9-103.7,30.3-37.5,11.3-75,22.9-112.9,32.8-25.8,6.7-51,13.7-77.7,12.2-43.6-2.4-87-10.5-130.3-16.1-38.2-5-77.1-9.7-115.6-8.9-30.3.6-59.7,3.1-90.1,1v-5.9c30.9,2.3,61,.1,91.8-.2,38.8-.5,78,3.8,116.4,8.4,43.4,5.2,87,12.8,130.7,14.8,62.2,2.9,129.1-26.2,187.7-43.8,33.8-10.2,67.7-20.5,101.8-29.6,24.5-6.5,54-17.5,79.7-14.3,31.9,4,47.1,31.6,67.7,52.5,28.7,29,64.2,25.2,102.2,22,40.8-3.5,80.9-9.3,121.9-9.7v5.9h0Z"/>
      <path class="st40" d="M1000,686.9c-42.2.2-83.8,5.2-125.8,8.1-37.8,2.6-74.2,6.9-103.8-20.7-21.4-19.9-37.3-45.5-68.9-49-25.1-2.8-53.1,6.8-77.1,13.1-32.6,8.5-65,18.1-97.3,27.7-57.2,16.8-120.4,42.9-180.9,40.9-44.1-1.5-88-7.5-131.9-11.7-71.5-6.8-143-2.5-214.3-8.4v-5.7c72,6.2,144.6,2.2,216.8,8.3,44,3.7,88.2,9.4,132.4,10.4,59.8,1.5,121.4-23.2,178.1-39.7,31.7-9.3,63.4-18.7,95.5-26.9,23.8-6.1,51.2-15.2,76.1-12.6,31.5,3.3,47.7,28.2,69.4,47.7,30,26.9,66.7,22.5,104.5,20.1,42.5-2.6,84.7-7.3,127.3-7.4v5.7h0Z"/>
      <path class="st7" d="M1000,667c-43.8,0-87.3,3.7-131,5.8-37.7,1.8-75.2,6.4-106.1-18.9-22.5-18.4-39.5-41.4-70.7-44.3-24.2-2.3-50.3,5.5-73.6,11.3-30.5,7.5-60.7,16.3-90.9,24.9-55.2,15.7-113.1,37-171.2,36.7-44.6-.2-89.1-4.8-133.5-7.6-74.2-4.6-149-1.3-223-7.9v-5.5c74.7,6.6,150.4,3.5,225.3,7.5,44.6,2.4,89.2,6.6,133.9,6.5,57.3,0,114-20.1,168.6-35.5,29.6-8.4,59.2-16.9,89.2-24.1,23.1-5.6,48.7-13,72.7-10.8,31,2.8,48.4,25.1,71.2,43.1,31.3,24.7,69,20,106.8,18.4,44.2-1.9,88.1-5.3,132.4-5.2v5.5h0Z"/>
      <path class="st35" d="M1000,647c-45.3-.2-90.5,2.4-135.7,3.8-37.8,1.2-76.1,5.8-108.4-17.3-23.7-16.9-41.9-37.5-72.8-40-50.6-4.2-107.2,18.5-155.2,31.7-53,14.5-106.6,31.6-162,32.5-45,.7-89.9-2.6-134.8-4.3-76.9-2.9-154.5.3-231.2-6.3v-5.3c77.4,6.4,155.7,3.1,233.3,5.7,45,1.5,90,4.6,135,3.7,54.6-1.1,107.3-17.2,159.6-31.4,47.5-12.9,102.8-34.5,152.8-30.5,30.8,2.5,49.4,22.5,73.3,39,32.7,22.5,71.1,17.9,109,16.9,45.6-1.2,91.2-3.6,136.9-3.3v5.3h0Z"/>
      <path class="st10" d="M1000,627c-46.6-.3-93.1,1.3-139.7,2.1-38.1.6-76.9,5.1-110.5-16-24.8-15.5-44.4-34.1-75-36.3-48.5-3.6-100.7,15.5-146.9,27.7-50.8,13.4-101,27.3-153.8,28.7-45.2,1.1-90.3-1.5-135.5-2.6-79.3-2-159.4,2.2-238.6-3.5v-5.2c79.8,5.3,160.4.7,240.4,2.6,45.1,1.1,90.3,3.6,135.5,2.5,52.1-1.3,101.7-14.7,151.9-27.8,45.8-12,97-30.3,145-26.8,30.6,2.2,50.6,20.4,75.6,35.5,34,20.6,72.8,16.2,111,15.7,46.8-.7,93.7-2.1,140.5-1.7v5.2h0Z"/>
      <path class="st42" d="M1000,607c-47.5-.3-95.1.5-142.6.8-38.6.3-77.5,4.3-112.4-15-25.8-14.3-46.9-31.3-77.5-33.5-46.7-3.3-95.6,13.3-140.3,24.7-48.7,12.4-96.6,24.5-147.1,25.5-45.1.9-90.2-1.7-135.3-3-81.6-2.2-163.4,4.2-244.8.4v-5c81.9,3.1,164-4.1,246.1-1.6,45,1.4,90,4.1,135.1,3.4,50-.8,97.4-12.6,145.7-24.8,44.3-11.2,92.7-27.4,139-24.1,30.6,2.2,52.2,18.9,78.2,32.9,35.2,19,74,15,112.8,14.8,47.7-.2,95.4-.9,143.2-.6v5h0Z"/>
      <path class="st32" d="M1000,587c-48.1-.1-96.2,0-144.3,0-39.2,0-77.8,3.5-113.9-14.5-26.7-13.3-49.5-29.3-80.2-31.6-45.4-3.4-92.5,12-135.9,22.8-47.1,11.8-93.5,23.6-142.4,23.3-44.7-.3-89.3-3.7-133.9-5.9-83.7-4.1-165.9,6.3-249.3,5.7v-4.8c41.5-.2,82.4-5.2,123.7-8,42.2-3,84.3-1.6,126.5.9,44.4,2.6,88.9,6.4,133.4,7.1,48.5.8,94.8-11.2,141.6-23,43.2-10.8,90.1-26.1,135.2-22.7,30.8,2.3,54,18.2,80.9,31.3,36.3,17.7,74.8,14.4,114.2,14.4,48.2,0,96.3,0,144.5,0v4.8Z"/>
      <path class="st53" d="M1000,566.6c-47.7-1.4-95.3-1-143-.2-39.9.7-78.3,4.8-115-13.4-28.1-14-52.3-30.2-84.7-32-45.2-2.6-91.5,12.7-134.8,24-45.6,12-91.2,24.6-138.7,23.1-44.3-1.4-88.2-8.5-132.2-13.2-42.4-4.6-83.9-6.1-126.3-1.3-41.9,4.8-83,12.1-125.2,13.6v-4.6c42.4-1.8,83.5-9.8,125.4-15.2,42.6-5.5,83.8-3.8,126.3,1.5,43.9,5.5,87.8,13.7,132.1,15.4,47.2,1.7,92.6-11.2,137.8-23.3,43.2-11.6,89.4-27,134.7-24.7,33,1.7,57.5,18,86,32.3,36.9,18.5,75.2,14,115.2,13,47.5-1.2,94.9-1.7,142.4,0v5Z"/>
      <path class="st46" d="M1000,544.2c-46.7-2.8-93-1.3-139.7,1.3-40.6,2.3-78.6,8-116-11.2-30-15.4-55.7-32.1-90.7-33.1-45.6-1.3-91.5,14.9-134.8,27.5-43.9,12.7-89,27.2-135.2,24.5-44.6-2.6-88.4-14.9-132.2-23.1-43-8.1-83-10.3-126.3-3-41.9,7-82.5,17.3-125.1,20v-4.4c42.6-2.9,83-13.8,124.8-21.3,43.5-7.8,83.2-5.4,126.3,3.5,43.8,9.1,87.6,22.5,132.4,25.5,46,3,91-12.1,134.5-25,43.2-12.8,89.1-29.5,134.8-28.4,35.5.8,61.7,17.6,92.1,33.3,37.6,19.3,75.4,13.3,116.3,10.6,46.3-3.1,92.4-4.9,138.8-1.9v5.2h0Z"/>
      <path class="st6" d="M1000,520.2c-45.5-3.6-90-.3-135.2,4.8-41.5,4.6-78.7,11.8-117.1-8.1-32.2-16.7-59.8-34-97.4-34-46.1-.1-92,18-135.1,32.2-42,13.8-87.3,31.3-132.2,27-45.7-4.4-89.7-22.2-133.6-34.4-43.6-12-81.9-15.6-126.3-5.9-41.3,9-80.5,21.8-123,25.3v-4.2c42.4-3.7,81.2-17,122.3-26.3,44.7-10.1,82.7-6.2,126.3,6.7,44,12.9,88.1,32.1,134,36.9,44.7,4.7,90.1-13.7,131.7-27.7,43.2-14.5,89.1-33.2,135.3-33.3,38.2-.1,66.3,17.2,98.9,34.2,38.6,20.1,75.7,12.5,117.3,7.3,44.9-5.6,88.9-9.4,134.1-5.7v5.2h0Z"/>
      <path class="st47" d="M1000,494.9c-44.4-3.8-86.2,2-129.8,9.9-42.2,7.7-78.6,16.3-118.2-4.2-34.5-17.9-64.3-35.7-104.7-34.8-46.7,1.1-92.7,21.7-135.9,37.8-40,14.9-86.1,36.3-129.7,30.2-47.2-6.5-91.8-30.4-136.1-46.6-43.9-16-80.8-21.8-126.4-9.8-40.3,10.6-77.3,25.6-119.2,29.7v-4c41.7-4.2,78.3-19.5,118.2-30.5,45.9-12.5,82.5-6.1,126.4,10.7,44.5,17,89.2,42.1,136.8,49.1,43.4,6.4,89.7-15.8,129.3-31,43.1-16.5,89.2-37.6,136-39,41-1.2,71.3,16.8,106.2,34.9,39.8,20.7,76,11.8,118.4,3.4,43.2-8.5,84.4-15,128.6-11.2v5.2h0Z"/>
      <path class="st44" d="M1000,468.6c-43.6-3.6-82,5.4-123.8,16.6-42.8,11.5-78.3,21.4-119.3.3-36.9-19.1-69.2-37.4-112.4-35.4-47.5,2.2-93.7,25.5-136.8,43.8-38,16.1-85,41.6-127.5,33.8-49.2-9-94.6-39.1-139.6-59.4-43.8-19.8-79.8-28.9-126.5-14.4-38.8,12-73.1,28.7-114.1,33.2v-3.8c40.8-4.5,74.5-21.5,113-33.8,16.9-5.4,36.4-10.6,54.3-9.3,24.9,1.7,50,14.2,72.2,24.6,45.1,21.1,90.7,52.3,140.3,61.8,42.3,8.1,89.5-18.2,127.2-34.5,43.1-18.8,89.3-42.6,137-45,43.8-2.2,76.5,16.2,113.9,35.5,41.2,21.3,76.6,11.1,119.5-1.2,41.4-11.8,79.1-21.6,122.5-18v5.1h0Z"/>
      <path class="st4" d="M1000,441.7c-43.2-3.1-77.5,9.7-117.3,24.4-43,15.9-77.9,27-120.3,5.3-39.4-20.1-74.3-38.9-120.3-35.8-48.5,3.3-94.9,29.3-138,49.9-36.2,17.3-84.1,46.8-125.6,37.4-51.4-11.6-97.8-48-143.6-72.3-22.2-11.8-48-26.7-73.7-29.1-17.4-1.6-36.8,3.9-53,9.7-37.1,13.2-68.1,31.3-108.2,35.9v-3.6c39.8-4.6,70.2-23,107-36.3,16.1-5.9,35.4-11.4,52.7-9.8,25.9,2.5,51.8,17.9,74,30.1,46.5,25.4,92.4,61.5,144.4,74.7,40.8,10.4,90-20.8,125.3-38.1,43.1-21.1,89.5-47.5,138.2-51,46.5-3.3,81.9,15.5,121.8,35.9,42.7,21.8,77.5,10.5,120.5-6.3,39.4-15.4,72.9-28.9,116.1-25.9v5h0Z"/>
      <path class="st36" d="M1000,414.5c-43.2-2.4-73,14.7-110.6,33.1-42.7,20.8-77.4,33-121.3,10.9-42-21.1-79.4-40.3-128.2-36-49.6,4.3-96.1,32.8-139.3,55.7-33.9,18-83.7,52.4-123.9,40.7-54-15.7-100.7-56.4-148.1-85.1-42.1-25.5-78.8-43.9-126.9-24.5-35.3,14.2-62.6,33.4-101.6,38v-3.5c38.8-4.5,65.5-23.9,100.5-38.3,48.1-19.8,85.1-.5,126.9,25.4,47.6,29.4,94.5,71.1,148.9,87.3,40.1,11.9,89.9-23,123.6-41.2,43.2-23.3,89.7-52.2,139.5-56.6,49.3-4.4,87.2,14.8,129.6,36.1,44.2,22.2,79,9.8,121.5-11.9,37.2-19,66.2-36.9,109.5-34.7v4.7h0Z"/>
      <path class="st16" d="M1000,387.5c-43.7-1.4-68.8,20.5-104,42.4-41.8,25.9-76.8,39.3-122.3,16.8-44.6-22.1-84.5-41.5-136.1-36.1-50.8,5.3-97.3,35.6-140.6,60.7-32.6,18.9-82.6,56.3-122.2,43.3-56.4-18.5-104.1-64.8-152.6-97.4-40.5-27.2-78.9-51.3-127.1-29.5-33.5,15.1-56.9,35.1-95,39.5v-3.3c38-4.3,60.7-24.4,93.9-39.7,48.2-22.2,86.9,2.9,127.1,30.3,48.7,33.2,96.6,80.4,153.4,99.3,39.6,13.2,89.5-24.6,122-43.6,43.3-25.4,89.9-56,140.8-61.5,52-5.5,92.3,13.9,137.3,36.1,45.7,22.6,80.8,9,122.5-17.8,34.9-22.5,59.1-45.2,103-44v4.4h0Z"/>
      <path class="st3" d="M1000,360.9c-44.5-.3-64.9,27-97.7,52.1-19.3,14.8-44.2,31.9-68.5,35.9-19.6,3.2-37.4-4.4-54.7-13-46.8-23.2-89.6-42.4-143.6-36-51.9,6.1-98.4,37.7-141.9,64.6-31.7,19.6-81.2,58.9-120.6,44.9-58.8-21-107.5-72.6-157.1-108.7-38.7-28.2-79.4-58.1-127.3-34.1-31.8,16-51.1,36.5-88.6,40.6v-3.1c37.4-4,56.1-24.6,87.7-40.7,47.8-24.4,88.9,6.5,127.4,34.8,49.8,36.6,98.6,89,157.8,110.3,39.4,14.2,88.7-25.3,120.3-45,43.5-27.2,90.1-58.8,142.1-65.1,54.3-6.6,97.5,12.6,144.7,35.9,17.3,8.6,35.1,16.2,54.8,12.9,24.4-4.1,49.3-21.7,68.5-36.8,32.5-25.6,52.1-53.7,96.8-53.6v4h0Z"/>
      <path class="st27" d="M1000,335c-45.4,1-61.5,33.9-91.9,61.9-18.4,16.9-43.7,36.7-68.6,41.6-19.7,3.9-37.9-3.8-55.3-12.4-49-24.3-94.4-43-150.6-35.6-52.8,6.9-99.3,38.6-143.2,67-31.1,20.1-79.5,59.8-118.8,45.1-61-22.8-110.6-79.5-161.1-118.6-36.8-28.5-80.2-64.2-127.6-38-12,6.6-21.5,16.6-32.6,24.5-15.5,11-31.6,15-50.3,16.8v-2.9c18.7-1.8,34.6-5.8,50-16.8,10.9-7.9,20.2-18,32.1-24.5,47.4-26.2,90.9,9.9,127.6,38.5,50.6,39.5,100.4,96.8,161.7,119.9,39.3,14.8,87.5-24.8,118.5-45,43.9-28.5,90.4-60.1,143.3-67.2,56.6-7.5,102.2,11.2,151.6,35.6,17.4,8.6,35.6,16.3,55.4,12.3,25.1-5.1,50.3-25.2,68.7-42.5,30.1-28.3,45.5-62.1,91.1-63.3v3.6h0Z"/>
      <path class="st26" d="M1000,310.4c-46.4,2.3-58.6,41.2-86.8,71.4-17.7,19-43.2,41.3-69,47.3-19.8,4.6-38.1-3.1-55.6-11.7-51.3-25.1-98.5-43.4-157.1-35.1-53.6,7.6-99.9,38.2-144.3,67.4-30.8,20.3-77.7,58.5-116.9,43.6-26.9-10.2-50.6-30.4-72.6-48.4-31.2-25.5-60.7-53.1-92-78.5-35.3-28.6-81-68.8-127.8-41-11.3,6.7-19.5,17-29.7,25-14.6,11.5-30.1,15.1-48.3,16.7v-2.7c18.2-1.6,33.6-5.1,48.1-16.7,10.1-8,18.2-18.4,29.4-25.1,46.7-27.9,92.8,12.8,127.8,41.4,31.4,25.6,61,53.3,92.2,79.1,22,18.1,45.8,38.4,72.8,48.7,39.2,14.9,85.8-23,116.6-43.2,44.4-29.2,90.8-59.6,144.4-67.3,58.9-8.5,106.3,9.8,157.9,35,17.6,8.6,35.8,16.3,55.6,11.5,25.8-6.2,51.5-28.8,69-48,27.9-30.6,39.7-70.3,86.2-72.7v3.2h0Z"/>
      <path class="st34" d="M1000,287.2c-47.5,3.5-56.3,48.4-82.7,80.6-17,20.8-43.1,45.6-69.6,52.8-19.7,5.4-37.8-2.3-55.5-10.8-53.5-26-101.9-43.3-162.7-34.4-53.8,7.9-100.3,36.4-145.1,65.5-30.9,20-75.6,54.6-114.7,40-27.4-10.3-51.5-31.6-73.5-50.2-31.8-26.9-61.7-55.9-93.6-82.7-33.9-28.4-81.9-71.9-128-42.8-10.8,6.8-17.9,17.4-27.5,25.5-14.1,11.9-28.9,15.2-47.1,16.5v-2.5c18.1-1.3,32.9-4.6,47-16.5,9.5-8.1,16.6-18.8,27.3-25.6,46.1-29.2,94.3,14.6,128,43,31.9,26.9,61.9,56,93.7,83.1,22,18.7,46.1,40.1,73.6,50.4,39,14.5,83.4-19.4,114.4-39.4,45-29,91.4-57.1,145.2-65.1,61-9.1,109.6,8.2,163.3,34.2,17.6,8.5,35.7,16.2,55.4,10.7,26.6-7.4,52.8-32.4,69.7-53.5,26.2-32.5,34.7-78.1,82.3-81.7v2.8h0Z"/>
      <path class="st24" d="M1000,266c-48.7,4.4-54.8,55.1-79.8,89-16.7,22.6-43.2,49.5-70.7,58.1-19.5,6.1-37.2-1.4-54.8-9.9-55.1-26.6-105-43.5-167.3-33.4-53.7,8.7-99.9,32.9-145.8,60.9-31.5,19.2-73.4,47.7-112.1,34-27.7-9.8-52.1-32.1-73.9-51-32.1-27.8-62.4-57.8-94.5-85.5-32.9-28.5-82.6-73.1-128.2-43.1-10.5,6.9-17,17.7-26.2,26-13.8,12.3-28.6,15.3-46.7,16.3v-2.3c18.1-1,33-3.9,46.8-16.3,9.2-8.2,15.6-19.1,26.1-26,45.6-30,95.3,14.6,128.2,43.1,32.2,27.9,62.5,57.9,94.6,85.8,21.8,18.9,46.1,41.3,73.9,51,38.6,13.5,80.2-14.1,111.8-33.2,46-27.8,92.2-51.4,145.8-60.1,62.5-10.2,112.5,6.5,167.8,33.2,17.6,8.5,35.2,15.9,54.7,9.8,27.5-8.7,54.1-35.9,70.8-58.7,24.9-34.1,30.7-85.4,79.6-89.9v2.4h0Z"/>
    </g>
  </g>
  <g id="Layer_11" data-name="Layer_1">
    <image class="st19" width="1072" height="1314" transform="translate(-36 -36)" xlink:href="Background-2.png"/>
  </g>
</svg>