<?xml version="1.0" encoding="UTF-8"?>
<svg id="Layer_1" xmlns="http://www.w3.org/2000/svg" version="1.1" viewBox="0 0 1000 1000">
  <!-- Generator: Adobe Illustrator 29.0.0, SVG Export Plug-In . SVG Version: 2.1.0 Build 186)  -->
  <defs>
    <style>
      .st0, .st1, .st2 {
        stroke-width: 3px;
      }

      .st0, .st1, .st2, .st3 {
        stroke: #fff;
        stroke-miterlimit: 10;
      }

      .st0, .st4, .st3 {
        fill: #fff;
      }

      .st1, .st2 {
        fill: none;
      }

      .st2, .st3 {
        display: none;
      }
    </style>
  </defs>
  <g>
    <path class="st3" d="M968.99,104.85v790.3H31.01V104.85h937.98ZM574.67,413.37c39.56-71.06-35.62-148.28-108.89-111.81-27.31,13.59-46.97,46.17-44.41,77,.94,11.34,8.38,22.1,9.62,30.34.36,2.36.73,4.08-1.68,5.5l-277.93,96.43-.88,6.06,89.62,30.9-86.25,31.23-2.49,1.49v6.19s88.73,29.77,88.73,29.77c-.5,2.95-3.66,3.85-5.97,4.95-23.39,11.18-55.9,16.38-80.26,27.27-3.05.99-4.3,3.59-3.34,6.53.68,2.07,28.07,11.32,32.78,13.02,106.13,38.42,214.11,72.24,320.67,109.5l349.33-120.66,4.11-3.81c.01-5.85-76.22-27.87-86.78-32.66-2.34-1.06-3.6.95-2.8-4.15,24.33-9.31,59.01-15.7,81.66-26.88,5.27-2.6,9.75-4.58,5.48-10.52l-87.14-31.28c10.55-5.71,89.62-27.59,89.59-33.86l-2.92-3.01-279.83-97.55Z"/>
    <path class="st3" d="M574.67,413.37l279.83,97.55,2.92,3.01c.03,6.27-79.04,28.15-89.59,33.86l87.14,31.28c4.28,5.94-.21,7.92-5.48,10.52-22.65,11.18-57.33,17.57-81.66,26.88-.8,5.1.46,3.09,2.8,4.15,10.56,4.78,86.79,26.81,86.78,32.66l-4.11,3.81-349.33,120.66c-106.55-37.26-214.54-71.08-320.67-109.5-4.71-1.71-32.11-10.95-32.78-13.02-.96-2.94.29-5.55,3.34-6.53,24.36-10.89,56.87-16.09,80.26-27.27,2.32-1.11,5.47-2.01,5.97-4.95l-88.73-29.77v-6.19s2.49-1.49,2.49-1.49l86.25-31.23-89.62-30.9.88-6.06,277.93-96.43c2.41-1.42,2.03-3.15,1.68-5.5-1.24-8.24-8.68-19.01-9.62-30.34-2.56-30.83,17.11-63.41,44.41-77,73.27-36.47,148.45,40.75,108.89,111.81ZM490.56,302.44c-37.89,5.18-63.58,43-59.27,80.11,4.21,36.19,48.65,84.9,66.73,116.43,8.51,7.33,15.84-7.12,20.53-13.28,15.99-21.05,53.79-77.25,57.64-101.64,7.9-50.03-36.87-88.28-85.64-81.62ZM453.19,451.22l-17.12-29.61-32.66,9.73c-.8,5.1.46,3.09,2.8,4.15,13.73,6.23,32.56,10.2,46.98,15.73ZM602.55,431.35l-33.7-9.85-16.08,29.71c14.52-5.46,33.35-8.81,46.95-15.72,1.54-.78,6.24-.69,2.83-4.13ZM464.53,465.8c-4.14-3.48-72.34-26.8-77.98-26.61-29.66,11.46-67.41,18.93-95.85,31.76-2.34,1.06-3.6-.94-2.79,4.14l100.41,33.86,82.78-28.88c3.69-1.94-5.12-13.05-6.58-14.27ZM720.06,475.1c-.23-2.82-2.93-3.13-4.9-4.04-28.75-13.19-65.67-20.94-95.61-31.87-6.32.22-66.57,20.63-73.32,24.41-2.44,1.36-11.88,12.32-11.38,14.47l84.64,30.63,100.57-33.61ZM371.55,514.91c-.23-2.82-2.93-3.13-4.9-4.04-28.4-13.01-65.96-20.58-95.67-31.83-27.95,9-56.07,17.89-83.68,27.88-5.24,1.9-13.59,3.64-16.89,7.98l102.43,33.81,98.7-33.81ZM835.56,514.91c-.21-2.74-2.91-3.16-4.88-4.06-28.53-13.02-64.22-19.95-93.7-31.8-30.04,11.12-66.91,18.68-95.68,31.8-1.97.9-4.67,1.32-4.88,4.06l100.39,33.76,98.74-33.76ZM527.17,487.25c-6.23,9.67-12.73,25.89-26.7,23.38-11.12-1.99-16.28-23.34-23.98-23.19l-73.07,27.46,102.01,33.52,97.13-33.52c-.21-2.73-2.91-3.16-4.88-4.06-21.5-9.77-48.12-15.48-70.51-23.6ZM487.04,552.78l-98.73-33.76-100.39,33.76c.21,2.74,2.91,3.16,4.88,4.06,28.45,12.97,64.39,19.55,93.66,31.84l100.59-35.9ZM720.04,552.78l-100.59-33.96-98.5,34.93,98.54,34.88,83.67-27.88,16.88-7.97ZM837.54,582.64l-87.85-28.87-245.71,84.34-247.25-84.78-86.33,30.29,333.62,114.49,333.53-115.46ZM602.56,592.59l-100.44-33.81-98.72,34.78,100.59,34.89c25.9-8.42,52.16-16.5,77.71-25.89,2.49-.91,22.61-7.74,20.87-9.97ZM835.56,652.31l-85.88-28.89-245.69,84.73-247.28-85.27-86.31,30.4,331.62,114.6c98.55-32.13,197-65.12,294.75-99.64,10.31-3.64,24.6-7.64,33.92-11.88,1.97-.9,4.67-1.32,4.88-4.06Z"/>
    <polygon class="st0" points="837.54 582.64 504.01 698.1 170.39 583.61 256.73 553.32 503.98 638.1 749.69 553.76 837.54 582.64"/>
    <path class="st1" d="M835.56,652.31c-.21,2.73-2.91,3.16-4.88,4.06-9.31,4.24-23.61,8.24-33.92,11.88-97.75,34.51-196.2,67.51-294.75,99.64l-331.62-114.6,86.31-30.4,247.28,85.27,245.69-84.73,85.88,28.89Z"/>
    <path class="st1" d="M490.56,302.44c48.76-6.66,93.54,31.59,85.64,81.62-3.85,24.38-41.66,80.59-57.64,101.64-4.69,6.17-12.02,20.61-20.53,13.28-18.09-31.52-62.53-80.24-66.73-116.43-4.31-37.11,21.38-74.93,59.27-80.11Z"/>
    <path class="st1" d="M371.55,514.91l-98.7,33.81-102.43-33.81c3.3-4.34,11.65-6.08,16.89-7.98,27.6-9.99,55.73-18.88,83.68-27.88,29.7,11.24,67.27,18.81,95.67,31.83,1.98.91,4.67,1.21,4.9,4.04Z"/>
    <path class="st1" d="M487.04,552.78l-100.59,35.9c-29.27-12.3-65.21-18.87-93.66-31.84-1.97-.9-4.67-1.32-4.88-4.06l100.39-33.76,98.73,33.76Z"/>
    <path class="st1" d="M835.56,514.91l-98.74,33.76-100.39-33.76c.21-2.73,2.91-3.16,4.88-4.06,28.78-13.12,65.64-20.68,95.68-31.8,29.48,11.85,65.18,18.78,93.7,31.8,1.97.9,4.67,1.32,4.88,4.06Z"/>
    <polygon class="st1" points="720.04 552.78 703.17 560.75 619.49 588.63 520.95 553.75 619.45 518.82 720.04 552.78"/>
    <path class="st1" d="M602.56,592.59c1.74,2.23-18.38,9.05-20.87,9.97-25.54,9.39-51.81,17.47-77.71,25.89l-100.59-34.89,98.72-34.78,100.44,33.81Z"/>
    <path class="st1" d="M464.53,465.8c1.45,1.22,10.27,12.33,6.58,14.27l-82.78,28.88-100.41-33.86c-.81-5.09.45-3.09,2.79-4.14,28.44-12.83,66.19-20.3,95.85-31.76,5.63-.18,73.83,23.14,77.98,26.61Z"/>
    <path class="st1" d="M720.06,475.1l-100.57,33.61-84.64-30.63c-.51-2.15,8.94-13.11,11.38-14.47,6.75-3.77,67-24.19,73.32-24.41,29.93,10.93,66.86,18.68,95.61,31.87,1.97.91,4.67,1.22,4.9,4.04Z"/>
    <path class="st1" d="M527.17,487.25c22.39,8.12,49.01,13.83,70.51,23.6,1.97.89,4.67,1.32,4.88,4.06l-97.13,33.52-102.01-33.52,73.07-27.46c7.7-.15,12.86,21.2,23.98,23.19,13.97,2.5,20.47-13.72,26.7-23.38Z"/>
    <path class="st1" d="M453.19,451.22c-14.42-5.52-33.25-9.49-46.98-15.73-2.34-1.06-3.6.95-2.8-4.15l32.66-9.73,17.12,29.61Z"/>
    <path class="st1" d="M602.55,431.35c3.41,3.44-1.29,3.35-2.83,4.13-13.6,6.91-32.43,10.26-46.95,15.72l16.08-29.71,33.7,9.85Z"/>
    <path class="st2" d="M494.47,340.2c39.59-8.14,61.71,39.59,29.41,63.24-29.49,21.59-68.52-11.31-51.58-45.58,3.87-7.82,13.6-15.9,22.16-17.66ZM485.76,354.38c-24.03,21.81,6.2,61.85,34.17,41.12,28.62-21.2-7.18-65.62-34.17-41.12Z"/>
    <path class="st2" d="M485.76,354.38c26.99-24.5,62.79,19.92,34.17,41.12-27.97,20.72-58.2-19.31-34.17-41.12Z"/>
  </g>
  <path class="st4" d="M509.43,451.21v-10.67c10.9-.57,19.19-3.53,25.59-8.9,6.4-5.37,9.61-12.5,9.61-20.77,0-8.9-2.59-15.47-8.31-19.64-5.79-4.73-14.08-8.33-26.28-10.67h-.61v-27.36c8.31,1.2,15.38,3.53,22.39,8.33l10.27-13.07c-10.27-6.57-21.17-10.1-32.68-10.67v-7.16h-9.61v7.13c-9.61.57-17.96,3.53-24.37,8.9s-9.61,12.5-9.61,20.77,2.59,14.83,8.31,19c5.11,4.17,14.08,7.7,25.59,10.1v27.9c-8.99-1.2-17.96-5.37-26.89-12.5l-11.51,12.5c11.51,9.54,24.37,14.83,38.45,16.03v10.71h9.65,0ZM510.04,399.5c6.4,1.77,10.27,3.53,12.81,5.37,1.91,2.4,3.2,4.73,3.2,8.34s-1.29,5.93-4.5,8.34-7.09,3.53-11.51,4.17v-26.21ZM487.65,373.98c-1.91-1.77-3.2-4.73-3.2-7.7,0-3.53,1.29-5.93,3.81-8.33,3.2-2.4,6.4-3.53,11.51-4.17v25.57c-6.4-1.84-10.22-3.6-12.13-5.37Z"/>
</svg>