<?xml version="1.0" encoding="UTF-8"?>
<svg id="Layer_1" xmlns="http://www.w3.org/2000/svg" version="1.1" viewBox="0 0 1000 1000">
  <!-- Generator: Adobe Illustrator 29.0.0, SVG Export Plug-In . SVG Version: 2.1.0 Build 186)  -->
  <defs>
    <style>
      .st0 {
        fill: #010101;
      }

      .st1 {
        stroke-width: 6px;
      }

      .st1, .st2 {
        fill: none;
        stroke: #fff;
        stroke-miterlimit: 10;
      }

      .st2 {
        stroke-width: 3px;
      }

      .st3, .st4 {
        fill: #fff;
      }

      .st3, .st5 {
        display: none;
      }
    </style>
  </defs>
  <g id="Layer_11" data-name="Layer_1" class="st5">
    <g>
      <path class="st0" d="M877.5,34.8v796H77.5V34.8h800ZM271.9,91.8l-113.5,115.2c13.9,21.1,28.4,42,38.8,65.1,41.3,91.8-24.5,149.5-42.5,233.9-21.7,101.6,38.7,191.3,138.1,215.8,41.2,10.2,82.8,3.2,124.5,14.3,26.9,7.2,45.9,20.5,67.4,37.5,2.1.2,16.7-12.3,20-14.6,19.8-13.8,44-25,68-28.9,22.5-3.7,44.2-1.8,67.3-6.6,113.6-23.4,176.7-115.7,146.3-230.6-10.5-39.8-35.8-72.7-44.3-113.5-6.2-29.9-7-70.5,1.4-99.8,7.1-24.9,22.4-46.8,37.5-67.4l.3-2.7-108.1-113.7c-16.8,11.1-33.2,19.6-53.3,23.3-48.8,9.1-98.6-3.5-142.2-25.3-38.3,23.3-82.5,30.6-127,27.8-28.6-1.8-56.5-12.1-78.7-29.9h0ZM386.1,106.7h-31v1h31v-1ZM752.7,342.4v-26h-1v26h1ZM808.6,568.1v-37h-1v37h1Z"/>
      <path class="st0" d="M271.9,91.8c22.3,17.8,50.1,28.1,78.7,29.9,44.5,2.8,88.7-4.4,127-27.8,43.6,21.8,93.4,34.3,142.2,25.3,20-3.7,36.5-12.3,53.3-23.3l108.1,113.7-.3,2.7c-15.1,20.6-30.4,42.6-37.5,67.4-8.4,29.4-7.7,70-1.4,99.8,8.5,40.7,33.8,73.6,44.3,113.5,30.3,114.9-32.7,207.2-146.3,230.6-23.2,4.8-44.8,2.9-67.3,6.6-24,3.9-48.2,15.1-68,28.9-3.3,2.3-17.9,14.8-20,14.6-21.5-17-40.4-30.3-67.4-37.5-41.7-11.1-83.2-4.1-124.5-14.3-99.4-24.6-159.8-114.2-138.1-215.9,18-84.4,83.8-142.1,42.5-233.9-10.4-23.1-25-44-38.8-65.1l113.5-115.2h0ZM672.6,108.9c-9.1,4.3-17.5,10.2-27.3,13.8-31.5,11.6-81,10.4-113.6,2.7-18.4-4.4-35.9-12.1-53.2-19.6-41.2,23.3-87.1,27.8-133.9,24.9-25.6-1.6-51.4-10.6-71.9-25.8l-101.2,104c19,26.3,34.9,54.9,45.5,85.6l512.1-.2,1.5-1.5c2.4-20.2,11-39.3,21.3-56.6,2.3-3.9,17.2-24.1,16.7-25.9l-95.9-101.4h0ZM728.7,304.4H218.4c.3,1.9,1,3.5,1.1,5.4,1.2,38.5-1.2,60.9-15.6,96.4-21.9,54.3-55.5,110.3-41.9,171.8,14.4,65.4,63.2,113.4,126.6,132.1,44.2,13,87.6,4.9,131.6,16.2,25.2,6.5,44.4,18.3,64.4,34.5,10.1-6.2,19.4-14.2,29.8-20.1,46.4-26.5,77.1-16.5,124.7-27.1,129.5-28.8,176.1-137.7,122.8-257-7.8-17.5-17.5-33.8-23.6-52.3-10.9-33.1-10.1-65.4-9.5-99.8h0Z"/>
      <rect class="st0" x="807.6" y="531.2" width="1" height="37"/>
      <rect class="st0" x="355.2" y="106.7" width="31" height="1"/>
      <rect class="st0" x="751.7" y="316.4" width="1" height="26"/>
      <path class="st0" d="M728.7,304.4c-.5,34.5-1.4,66.8,9.5,99.8,6.1,18.5,15.8,34.8,23.6,52.3,53.3,119.3,6.6,228.2-122.8,257-47.6,10.6-78.3.6-124.7,27.1-10.4,6-19.7,14-29.8,20.1-20-16.2-39.2-28-64.4-34.5-44-11.3-87.4-3.2-131.6-16.2-63.4-18.7-112.2-66.7-126.6-132.1-13.6-61.5,20-117.5,41.9-171.8,14.3-35.5,16.8-57.9,15.6-96.4,0-1.9-.8-3.6-1.1-5.4h510.4Z"/>
      <path class="st0" d="M672.6,108.9l95.9,101.4c.5,1.9-14.4,22.1-16.7,25.9-10.3,17.3-18.9,36.3-21.3,56.6l-1.5,1.5-512.1.2c-10.6-30.8-26.5-59.4-45.5-85.6l101.3-104c20.5,15.2,46.2,24.3,71.9,25.8,46.8,2.9,92.6-1.6,133.9-24.9,17.3,7.5,34.8,15.2,53.2,19.6,32.6,7.7,82,8.9,113.6-2.7,9.8-3.6,18.2-9.6,27.3-13.8h0Z"/>
    </g>
    <g>
      <path class="st4" d="M877.5,34.8v796H77.5V34.8h800ZM271.9,91.8l-113.5,115.2c13.9,21.1,28.4,42,38.8,65.1,41.3,91.8-24.5,149.5-42.5,233.9-21.7,101.6,38.7,191.3,138.1,215.8,41.2,10.2,82.8,3.2,124.5,14.3,26.9,7.2,45.9,20.5,67.4,37.5,2.1.2,16.7-12.3,20-14.6,19.8-13.8,44-25,68-28.9,22.5-3.7,44.2-1.8,67.3-6.6,113.6-23.4,176.7-115.7,146.3-230.6-10.5-39.8-35.8-72.7-44.3-113.5-6.2-29.9-7-70.5,1.4-99.8,7.1-24.9,22.4-46.8,37.5-67.4l.3-2.7-108.1-113.7c-16.8,11.1-33.2,19.6-53.3,23.3-48.8,9.1-98.6-3.5-142.2-25.3-38.3,23.3-82.5,30.6-127,27.8-28.6-1.8-56.5-12.1-78.7-29.9h0ZM386.1,106.7h-31v1h31v-1ZM752.7,342.4v-26h-1v26h1ZM808.6,568.1v-37h-1v37h1Z"/>
      <path d="M271.9,91.8c22.3,17.8,50.1,28.1,78.7,29.9,44.5,2.8,88.7-4.4,127-27.8,43.6,21.8,93.4,34.3,142.2,25.3,20-3.7,36.5-12.3,53.3-23.3l108.1,113.7-.3,2.7c-15.1,20.6-30.4,42.6-37.5,67.4-8.4,29.4-7.7,70-1.4,99.8,8.5,40.7,33.8,73.6,44.3,113.5,30.3,114.9-32.7,207.2-146.3,230.6-23.2,4.8-44.8,2.9-67.3,6.6-24,3.9-48.2,15.1-68,28.9-3.3,2.3-17.9,14.8-20,14.6-21.5-17-40.4-30.3-67.4-37.5-41.7-11.1-83.2-4.1-124.5-14.3-99.4-24.6-159.8-114.2-138.1-215.9,18-84.4,83.8-142.1,42.5-233.9-10.4-23.1-25-44-38.8-65.1l113.5-115.2h0ZM672.6,108.9c-9.1,4.3-17.5,10.2-27.3,13.8-31.5,11.6-81,10.4-113.6,2.7-18.4-4.4-35.9-12.1-53.2-19.6-41.2,23.3-87.1,27.8-133.9,24.9-25.6-1.6-51.4-10.6-71.9-25.8l-101.2,104c19,26.3,34.9,54.9,45.5,85.6l512.1-.2,1.5-1.5c2.4-20.2,11-39.3,21.3-56.6,2.3-3.9,17.2-24.1,16.7-25.9l-95.9-101.4h0ZM728.7,304.4H218.4c.3,1.9,1,3.5,1.1,5.4,1.2,38.5-1.2,60.9-15.6,96.4-21.9,54.3-55.5,110.3-41.9,171.8,14.4,65.4,63.2,113.4,126.6,132.1,44.2,13,87.6,4.9,131.6,16.2,25.2,6.5,44.4,18.3,64.4,34.5,10.1-6.2,19.4-14.2,29.8-20.1,46.4-26.5,77.1-16.5,124.7-27.1,129.5-28.8,176.1-137.7,122.8-257-7.8-17.5-17.5-33.8-23.6-52.3-10.9-33.1-10.1-65.4-9.5-99.8h0Z"/>
      <rect x="807.6" y="531.2" width="1" height="37"/>
      <rect x="355.2" y="106.7" width="31" height="1"/>
      <rect x="751.7" y="316.4" width="1" height="26"/>
      <path class="st4" d="M728.7,304.4c-.5,34.5-1.4,66.8,9.5,99.8,6.1,18.5,15.8,34.8,23.6,52.3,53.3,119.3,6.6,228.2-122.8,257-47.6,10.6-78.3.6-124.7,27.1-10.4,6-19.7,14-29.8,20.1-20-16.2-39.2-28-64.4-34.5-44-11.3-87.4-3.2-131.6-16.2-63.4-18.7-112.2-66.7-126.6-132.1-13.6-61.5,20-117.5,41.9-171.8,14.3-35.5,16.8-57.9,15.6-96.4,0-1.9-.8-3.6-1.1-5.4h510.4Z"/>
      <path class="st4" d="M672.6,108.9l95.9,101.4c.5,1.9-14.4,22.1-16.7,25.9-10.3,17.3-18.9,36.3-21.3,56.6l-1.5,1.5-512.1.2c-10.6-30.8-26.5-59.4-45.5-85.6l101.3-104c20.5,15.2,46.2,24.3,71.9,25.8,46.8,2.9,92.6-1.6,133.9-24.9,17.3,7.5,34.8,15.2,53.2,19.6,32.6,7.7,82,8.9,113.6-2.7,9.8-3.6,18.2-9.6,27.3-13.8h0Z"/>
    </g>
  </g>
  <g id="Layer_4">
    <g>
      <path class="st3" d="M485.5,623v262.2H187.2v-262.2h298.3ZM417.8,737.7c8.5-.4,15.3-8.3,16.2-16.5.3-3.2.4-10.1-.5-13-3.7-12.2-11.5-25.2-15.6-37.5-.7-6,.6-13-.1-18.8-.1-1.1-.4-2-1.4-2.5l-161.8-.3c-1.8,0-3,.7-3.2,2.5-.9,5.7.7,13.3-.1,19.2-4.1,12.3-11.9,25.3-15.6,37.5-.9,2.9-.8,9.8-.5,13,.9,8.2,7.6,16.2,16.2,16.5v79.9c-9.9-1.8-5.8,6.5-6.6,12.7-4.8-.2-9.1,3.4-9.7,8.1-.3,2.9-1,10.5,3.3,9.9h193.3c3.4-.3,2.7-6.9,2.4-9.5-.5-5-4.5-8.8-9.7-8.6-.8-6.1,3.2-14.6-6.6-12.7v-79.9h0Z"/>
      <path class="st4" d="M594.6,552.4v79.9c9.8-1.8,5.8,6.6,6.6,12.7,5.1-.2,9.2,3.5,9.7,8.6.3,2.6.9,9.1-2.4,9.4h-193.3c-4.3.6-3.6-7-3.3-9.9.5-4.8,4.9-8.3,9.7-8.1.8-6.2-3.3-14.6,6.6-12.7v-79.9c-8.6-.4-15.3-8.3-16.2-16.5-.3-3.2-.4-10.1.5-13,3.7-12.2,11.5-25.2,15.6-37.5.8-5.9-.8-13.5.1-19.2.3-1.8,1.5-2.5,3.2-2.5l161.8.3c1.1.5,1.3,1.4,1.4,2.5.7,5.8-.6,12.8,0,18.8,4.1,12.4,11.9,25.3,15.6,37.5.9,2.9.8,9.9.5,13-.9,8.2-7.7,16.1-16.2,16.5h0ZM589.8,468.6h-156.8v14.5h156.8v-14.5ZM604.7,522.1l-14-33.6h-158.3c0-.1-14.4,33.6-14.4,33.6h186.7ZM444.4,527h-27.7v9c0,.9,1.6,4.4,2.1,5.3,5,8.9,18.4,8.9,23.4,0,.5-.9,2.1-4.5,2.1-5.4v-9h0ZM476.5,527h-27.2v9.4c0,6,7.7,11.6,13.4,11.7s13.8-5.4,13.8-11.2v-9.9h0ZM509,527h-27.7v7.7c0,11.1,14,17.3,22.6,10.3,1.8-1.5,5.1-6.3,5.1-8.5v-9.4h0ZM541.5,527h-27.7v9.4c0,2.4,3.1,7,5.1,8.5,8.7,7.1,22.6.5,22.6-10.3v-7.7h0ZM573.5,527h-27.2v9.9c0,5.6,8.1,11.2,13.4,11.2,5.8,0,13.8-5.5,13.8-11.7v-9.4h0ZM606,527h-27.7v9c0,.4,1.3,3.9,1.6,4.6,4.6,9.6,18.8,9.9,24,.8.5-.9,2.1-4.5,2.1-5.4v-9h0ZM433,552.4v79.9h105v-66.5c0-.1,1.1-1.1,1.3-1.3l38.3.2c.2.1.7,1,.7,1.1v66.5h11.4v-79.3c-1-.9-2.5-.8-4-1.3-4.5-1.8-7.2-4.3-10.1-8.1-6.4,12.3-25.3,12.4-31.6,0-1.7,1.5-2.9,3.4-4.6,4.8-9.1,7.6-22.1,5.1-28.1-4.8-5,8.1-14.6,11.5-23.6,7.8-4-1.7-6.2-4.7-9.1-7.8-6.6,12.6-24.9,12-31.9,0-3.4,4.5-7.9,8.6-13.8,8.8h0ZM573.5,569.1h-30.8v63.2h30.8v-63.2h0ZM596.4,637.2h-170v7.9h170v-7.9ZM606,658.3c.3-4,.2-7.8-4.6-8.3h-179.2c-5.5.4-5.8,3.4-5.5,8.3h189.3,0Z"/>
      <polygon class="st3" points="604.7 522.1 418 522.1 432.4 488.4 590.7 488.5 604.7 522.1"/>
      <path class="st3" d="M433,552.4c5.9-.2,10.5-4.3,13.8-8.8,7,12,25.2,12.6,31.8,0,2.9,3,5.1,6.1,9.1,7.8,9,3.7,18.6.3,23.6-7.8,6,10,19,12.4,28.1,4.8,1.7-1.4,2.9-3.4,4.6-4.8,6.3,12.4,25.2,12.3,31.6,0,2.9,3.8,5.6,6.3,10.1,8.1,1.4.6,2.9.4,4,1.3v79.3h-11.4v-66.5c0-.2-.5-1-.7-1.1l-38.3-.2c-.3.2-1.3,1.2-1.3,1.3v66.5h-105v-79.9h0ZM526,620.4v-55.5c.1,0-81.2,0-81.2,0l-.4,53.5,1.4,2.2,80.3-.3Z"/>
      <rect class="st3" x="433" y="468.6" width="156.8" height="14.5"/>
      <rect class="st3" x="542.8" y="569.1" width="30.8" height="63.2"/>
      <path class="st3" d="M606,658.3h-189.3c-.3-4.9,0-8,5.5-8.4h179.2c4.8.6,4.9,4.3,4.6,8.4h0Z"/>
      <rect class="st3" x="426.4" y="637.2" width="170" height="7.9"/>
      <path class="st3" d="M509,527v9.4c0,2.2-3.3,7.1-5.1,8.5-8.6,7-22.6.8-22.6-10.3v-7.7h27.7Z"/>
      <path class="st3" d="M606,527v9c0,.8-1.6,4.4-2.1,5.4-5.2,9.2-19.3,8.8-24-.8-.3-.6-1.6-4.2-1.6-4.6v-9h27.7Z"/>
      <path class="st3" d="M444.4,527v9c0,.8-1.6,4.4-2.1,5.4-5,8.8-18.4,8.9-23.4,0-.5-1-2.1-4.5-2.1-5.3v-9h27.7,0Z"/>
      <path class="st3" d="M541.5,527v7.7c0,10.9-13.9,17.4-22.6,10.3-1.9-1.6-5.1-6.1-5.1-8.5v-9.4h27.7Z"/>
      <path class="st3" d="M476.5,527v9.9c0,5.9-8.3,11.3-13.8,11.2s-13.4-5.7-13.4-11.7v-9.4h27.2,0Z"/>
      <path class="st3" d="M573.5,527v9.4c0,6.1-8,11.7-13.8,11.7-5.3,0-13.4-5.6-13.4-11.2v-9.9h27.2Z"/>
      <path class="st4" d="M526,620.4l-80.3.3-1.4-2.2.4-53.5h81.3c0,0-.1,55.4-.1,55.4h0ZM521.7,569.1h-72.5v47h72.5v-47h0Z"/>
      <rect class="st3" x="449.2" y="569.1" width="72.5" height="47"/>
    </g>
    <g>
      <path class="st3" d="M631,562.8v320.4H170.2v-320.4h460.7,0ZM268.3,808.2h121.8l14.5-7.3,3.2,4.4-5.2,2.9h85c26.2-14.5,57.7-47,32.1-73.9-29-30.5-88.9-48-126-70.9-6.2-3.8-21.1-12.9-13-20.4,11.3-10.3,62.5-16.8,79.5-18.8,27.2-3.2,54.6-4.8,82-6.4v-6.3l-18.1.5v-5.2l18.1-.5v-5.2c-31.1,1.4-62.2,3-93.1,5.8-24.3,2.2-49.5,5-73.4,9.1-18.6,3.2-61.4,10.9-72.9,24.8-2.6,3.1-2.7,6.2-2.4,10,2.4,29.1,58.6,63.1,79.7,84.1,8.6,8.5,16.5,17.1,8.4,28.5-14.6,20.5-77.4,33.3-103.3,39.9l-16.9,5h0Z"/>
      <path class="st2" d="M346.5,786.7c18.7-6.3,35.4-14.1,42.1-23.4,8.1-11.4.2-20-8.4-28.5-21.2-21-77.3-55-79.7-84.1-.3-3.8-.2-6.8,2.4-10,11.5-13.8,54.2-21.6,72.9-24.8,17.1-2.9,34.9-5.2,52.5-7M428.1,628.7v-19.8,19.8c-19.5,3.3-40.6,8.1-47.4,14.3-8.2,7.5,6.8,16.5,13,20.4,37.1,22.9,97.1,40.4,126,70.9,25.6,26.9-5.9,59.5-32.1,73.9h-11.7M428.1,614.8l-13.2,1.5.6,5.8,12.6-1.6M428.1,614.8v5.7l-29.6-1.6c-12.6,2.2-25.2,4.5-37.3,8.4l1.1,5.2,36.8-7.9-.6-5.8,29.6-4.1ZM351.8,665c-5.4-7.7-15-19.8-2.9-26.5l-4.3-3.9c-14.2,7.8-6,23.5,1.9,32.7l.8.2,4.4-2.6ZM389.1,700.6l2.9-3.9-28.6-21c-2-.8-4.2,2-4.6,3.6.3,1.2,16.8,13,19.2,14.7,2.2,1.5,7.4,5.5,9.3,6.3.5.2,1.1.5,1.7.2h0ZM434.1,729l2.9-3.9-30.3-19.4-1.7-.2c-.5,1.7-3.6,3.1-1.8,4.9l30.9,18.6h0ZM464.5,765.7c3.1-9.5,3.5-15.3-3.8-23.1-1.2-1.3-9.1-8.5-10.4-8.3l-3.9,3.9c9.5,7,18,13.6,12.3,25.7l5.8,1.9h0ZM433,793.4c7.8-4,15.4-8.4,21.6-14.4l-4.3-3.4c-7.8,6.2-16.6,11.4-25.8,15.6"/>
      <path class="st4" d="M428.1,620.5"/>
      <path class="st4" d="M428.1,614.8"/>
      <polyline class="st4" points="428.1 620.5 415.5 622 414.9 616.3 428.1 614.8"/>
      <polygon class="st3" points="507.7 607.9 507.8 612.8 507.4 613.1 469.8 615.7 469.2 610.5 507.7 607.9"/>
      <path class="st4" d="M398.6,618.9l.6,5.8-36.8,7.9-1.1-5.2c12.1-3.9,24.7-6.3,37.3-8.4Z"/>
      <path class="st4" d="M389.1,700.6c-.6.3-1.1,0-1.7-.2-1.9-.8-7.1-4.9-9.3-6.3-2.5-1.7-19-13.5-19.2-14.7.4-1.7,2.6-4.4,4.6-3.6l28.6,21-2.9,3.9h0Z"/>
      <path class="st4" d="M464.5,765.7l-5.8-1.9c5.7-12.1-2.8-18.6-12.3-25.7l3.9-3.9c1.3-.2,9.2,7,10.4,8.3,7.3,7.8,6.9,13.5,3.8,23.1h0Z"/>
      <path class="st4" d="M351.8,665l-4.4,2.6-.8-.2c-8-9.2-16.1-24.9-1.9-32.7l4.3,3.9c-12.1,6.6-2.5,18.8,2.9,26.5Z"/>
      <path class="st4" d="M434.1,729l-30.9-18.6c-1.7-1.8,1.3-3.2,1.8-4.9l1.7.2,30.3,19.4-2.9,3.9h0Z"/>
      <path class="st4" d="M448.1,784.5c-7.7,5.6-6.4,4.5-15,8.9l-10.4-1.2h0c11.1-4.6,18.5-9.2,27.7-16.5l4.3,3.4c-2,2-4.2,3.8-6.5,5.4"/>
    </g>
  </g>
  <g id="Layer_3">
    <path class="st1" d="M298.3,152.5c39.5,21.9,55.4,31.9,94.9,31.9s72-6.9,111.5-28.9c39.5,21.9,75.9,27.6,115.4,27.6s41.1-5.6,80.6-27.6l106.7,115.3s-21.4,30.5-26.7,41.6-15,44.9-15,44.9H234.6s-13.2-33.6-18.9-44.2c-6.2-11.8-28.8-44.9-28.8-44.9l111.4-115.7h0Z"/>
    <path class="st1" d="M423.9,791.6c-15.4-2.7-33.1-4.3-53.5-4-88.4,1-137.9-44.1-166.9-87.6-52.6-79-16.6-162.7,23.6-246.2,9.6-20,8.7-88.5,8.7-88.5l530,.4s-6.4,61.8,2.9,81h0c48.8,101.3,79,173.7,27.3,253.4-36.4,56.1-98.5,89.6-181.2,88.9-57.1-.5-100.4,49.1-100.4,49.1,0,0-22.1-34.5-90.4-46.6"/>
  </g>
</svg>