<?xml version="1.0" encoding="UTF-8"?>
<svg xmlns="http://www.w3.org/2000/svg" version="1.1" viewBox="0 0 1000 1000">
  <!-- Generator: Adobe Illustrator 29.0.0, SVG Export Plug-In . SVG Version: 2.1.0 Build 186)  -->
  <defs>
    <style>
      .st0 {
        fill: #010101;
      }

      .st1 {
        fill: none;
        stroke: #fff;
        stroke-miterlimit: 10;
        stroke-width: 3px;
      }

      .st2, .st3 {
        fill: #fff;
      }

      .st2, .st4 {
        display: none;
      }
    </style>
  </defs>
  <g id="Layer_1" class="st4">
    <g>
      <path class="st0" d="M877.52,34.78v796H77.52V34.78h800ZM271.92,91.81l-113.51,115.23c13.86,21.05,28.42,41.99,38.82,65.08,41.34,91.75-24.47,149.51-42.5,233.87-21.71,101.6,38.73,191.29,138.09,215.85,41.25,10.2,82.75,3.2,124.49,14.34,26.91,7.18,45.89,20.49,67.35,37.46,2.13.21,16.67-12.27,20.01-14.59,19.8-13.79,44-24.96,68.02-28.86,22.55-3.66,44.16-1.84,67.31-6.6,113.62-23.37,176.68-115.68,146.35-230.61-10.51-39.83-35.83-72.74-44.35-113.46-6.24-29.86-6.98-70.46,1.42-99.82,7.12-24.9,22.39-46.81,37.48-67.45l.28-2.67-108.06-113.73c-16.81,11.05-33.22,19.62-53.27,23.34-48.83,9.05-98.64-3.5-142.19-25.28-38.31,23.35-82.51,30.57-127.03,27.8-28.58-1.78-56.45-12.1-78.72-29.9ZM386.14,106.69h-30.96v1h30.96v-1ZM752.68,342.39v-25.97h-1v25.97h1ZM808.61,568.11v-36.95h-1v36.95h1Z"/>
      <path class="st0" d="M271.92,91.81c22.26,17.8,50.14,28.12,78.72,29.9,44.52,2.77,88.73-4.45,127.03-27.8,43.55,21.79,93.36,34.34,142.19,25.28,20.04-3.72,36.46-12.29,53.27-23.34l108.06,113.73-.28,2.67c-15.1,20.64-30.36,42.55-37.48,67.45-8.4,29.37-7.66,69.96-1.42,99.82,8.51,40.72,33.84,73.63,44.35,113.46,30.33,114.93-32.73,207.24-146.35,230.61-23.15,4.76-44.76,2.94-67.31,6.6-24.02,3.89-48.22,15.06-68.02,28.86-3.34,2.32-17.88,14.8-20.01,14.59-21.47-16.98-40.44-30.29-67.35-37.46-41.74-11.13-83.24-4.14-124.49-14.34-99.36-24.56-159.81-114.24-138.09-215.85,18.03-84.37,83.84-142.13,42.5-233.87-10.4-23.09-24.96-44.03-38.82-65.08l113.51-115.23ZM672.61,108.86c-9.1,4.28-17.52,10.24-27.27,13.84-31.54,11.63-81.03,10.39-113.59,2.68-18.44-4.37-35.92-12.1-53.23-19.61-41.24,23.32-87.07,27.84-133.87,24.94-25.65-1.59-51.36-10.6-71.88-25.84l-101.25,103.99c19.02,26.28,34.94,54.87,45.49,85.65l512.06-.18,1.47-1.53c2.41-20.25,11.01-39.28,21.33-56.57,2.31-3.87,17.15-24.1,16.68-25.95l-95.94-101.41ZM728.71,304.44H218.35c.28,1.85.99,3.52,1.05,5.44,1.2,38.47-1.24,60.87-15.57,96.4-21.91,54.33-55.49,110.3-41.94,171.84,14.4,65.42,63.16,113.36,126.61,132.07,44.22,13.04,87.59,4.87,131.61,16.21,25.16,6.48,44.43,18.28,64.38,34.45,10.11-6.17,19.37-14.15,29.82-20.13,46.41-26.55,77.07-16.5,124.7-27.11,129.47-28.85,176.12-137.7,122.84-257.04-7.84-17.55-17.49-33.76-23.61-52.3-10.92-33.07-10.06-65.36-9.53-99.84Z"/>
      <rect class="st0" x="807.61" y="531.16" width="1" height="36.95"/>
      <rect class="st0" x="355.18" y="106.69" width="30.96" height="1"/>
      <rect class="st0" x="751.68" y="316.42" width="1" height="25.97"/>
      <path class="st0" d="M728.71,304.44c-.53,34.48-1.39,66.76,9.53,99.84,6.12,18.54,15.77,34.75,23.61,52.3,53.29,119.34,6.64,228.19-122.84,257.04-47.63,10.61-78.3.56-124.7,27.11-10.44,5.98-19.71,13.96-29.82,20.13-19.95-16.16-39.22-27.97-64.38-34.45-44.01-11.34-87.39-3.17-131.61-16.21-63.45-18.7-112.21-66.65-126.61-132.07-13.55-61.54,20.03-117.51,41.94-171.84,14.33-35.52,16.76-57.93,15.57-96.4-.06-1.92-.78-3.59-1.05-5.44h510.36Z"/>
      <path class="st0" d="M672.61,108.86l95.94,101.41c.47,1.85-14.37,22.09-16.68,25.95-10.32,17.29-18.92,36.32-21.33,56.57l-1.47,1.53-512.06.18c-10.55-30.77-26.47-59.37-45.49-85.65l101.25-103.99c20.52,15.24,46.23,24.25,71.88,25.84,46.81,2.9,92.64-1.62,133.87-24.94,17.3,7.51,34.78,15.24,53.23,19.61,32.56,7.72,82.05,8.95,113.59-2.68,9.76-3.6,18.17-9.56,27.27-13.84Z"/>
    </g>
    <g>
      <path class="st3" d="M877.52,34.78v796H77.52V34.78h800ZM271.92,91.81l-113.51,115.23c13.86,21.05,28.42,41.99,38.82,65.08,41.34,91.75-24.47,149.51-42.5,233.87-21.71,101.6,38.73,191.29,138.09,215.85,41.25,10.2,82.75,3.2,124.49,14.34,26.91,7.18,45.89,20.49,67.35,37.46,2.13.21,16.67-12.27,20.01-14.59,19.8-13.79,44-24.96,68.02-28.86,22.55-3.66,44.16-1.84,67.31-6.6,113.62-23.37,176.68-115.68,146.35-230.61-10.51-39.83-35.83-72.74-44.35-113.46-6.24-29.86-6.98-70.46,1.42-99.82,7.12-24.9,22.39-46.81,37.48-67.45l.28-2.67-108.06-113.73c-16.81,11.05-33.22,19.62-53.27,23.34-48.83,9.05-98.64-3.5-142.19-25.28-38.31,23.35-82.51,30.57-127.03,27.8-28.58-1.78-56.45-12.1-78.72-29.9ZM386.14,106.69h-30.96v1h30.96v-1ZM752.68,342.39v-25.97h-1v25.97h1ZM808.61,568.11v-36.95h-1v36.95h1Z"/>
      <path d="M271.92,91.81c22.26,17.8,50.14,28.12,78.72,29.9,44.52,2.77,88.73-4.45,127.03-27.8,43.55,21.79,93.36,34.34,142.19,25.28,20.04-3.72,36.46-12.29,53.27-23.34l108.06,113.73-.28,2.67c-15.1,20.64-30.36,42.55-37.48,67.45-8.4,29.37-7.66,69.96-1.42,99.82,8.51,40.72,33.84,73.63,44.35,113.46,30.33,114.93-32.73,207.24-146.35,230.61-23.15,4.76-44.76,2.94-67.31,6.6-24.02,3.89-48.22,15.06-68.02,28.86-3.34,2.32-17.88,14.8-20.01,14.59-21.47-16.98-40.44-30.29-67.35-37.46-41.74-11.13-83.24-4.14-124.49-14.34-99.36-24.56-159.81-114.24-138.09-215.85,18.03-84.37,83.84-142.13,42.5-233.87-10.4-23.09-24.96-44.03-38.82-65.08l113.51-115.23ZM672.61,108.86c-9.1,4.28-17.52,10.24-27.27,13.84-31.54,11.63-81.03,10.39-113.59,2.68-18.44-4.37-35.92-12.1-53.23-19.61-41.24,23.32-87.07,27.84-133.87,24.94-25.65-1.59-51.36-10.6-71.88-25.84l-101.25,103.99c19.02,26.28,34.94,54.87,45.49,85.65l512.06-.18,1.47-1.53c2.41-20.25,11.01-39.28,21.33-56.57,2.31-3.87,17.15-24.1,16.68-25.95l-95.94-101.41ZM728.71,304.44H218.35c.28,1.85.99,3.52,1.05,5.44,1.2,38.47-1.24,60.87-15.57,96.4-21.91,54.33-55.49,110.3-41.94,171.84,14.4,65.42,63.16,113.36,126.61,132.07,44.22,13.04,87.59,4.87,131.61,16.21,25.16,6.48,44.43,18.28,64.38,34.45,10.11-6.17,19.37-14.15,29.82-20.13,46.41-26.55,77.07-16.5,124.7-27.11,129.47-28.85,176.12-137.7,122.84-257.04-7.84-17.55-17.49-33.76-23.61-52.3-10.92-33.07-10.06-65.36-9.53-99.84Z"/>
      <rect x="807.61" y="531.16" width="1" height="36.95"/>
      <rect x="355.18" y="106.69" width="30.96" height="1"/>
      <rect x="751.68" y="316.42" width="1" height="25.97"/>
      <path class="st3" d="M728.71,304.44c-.53,34.48-1.39,66.76,9.53,99.84,6.12,18.54,15.77,34.75,23.61,52.3,53.29,119.34,6.64,228.19-122.84,257.04-47.63,10.61-78.3.56-124.7,27.11-10.44,5.98-19.71,13.96-29.82,20.13-19.95-16.16-39.22-27.97-64.38-34.45-44.01-11.34-87.39-3.17-131.61-16.21-63.45-18.7-112.21-66.65-126.61-132.07-13.55-61.54,20.03-117.51,41.94-171.84,14.33-35.52,16.76-57.93,15.57-96.4-.06-1.92-.78-3.59-1.05-5.44h510.36Z"/>
      <path class="st3" d="M672.61,108.86l95.94,101.41c.47,1.85-14.37,22.09-16.68,25.95-10.32,17.29-18.92,36.32-21.33,56.57l-1.47,1.53-512.06.18c-10.55-30.77-26.47-59.37-45.49-85.65l101.25-103.99c20.52,15.24,46.23,24.25,71.88,25.84,46.81,2.9,92.64-1.62,133.87-24.94,17.3,7.51,34.78,15.24,53.23,19.61,32.56,7.72,82.05,8.95,113.59-2.68,9.76-3.6,18.17-9.56,27.27-13.84Z"/>
    </g>
  </g>
  <g id="Layer_4">
    <g>
      <path class="st2" d="M524.83,563.24v262.2H226.56v-262.2h298.27ZM457.18,677.87c8.49-.42,15.34-8.31,16.2-16.52.33-3.18.39-10.1-.48-13.02-3.68-12.24-11.55-25.18-15.61-37.53-.71-5.96.6-12.96-.1-18.79-.13-1.1-.36-1.99-1.43-2.52l-161.79-.34c-1.76-.04-2.97.67-3.25,2.46-.89,5.71.69,13.28-.13,19.19-4.08,12.33-11.93,25.29-15.61,37.53-.88,2.92-.82,9.85-.48,13.02.86,8.25,7.64,16.15,16.2,16.52v79.93c-9.9-1.83-5.77,6.5-6.59,12.73-4.77-.22-9.13,3.37-9.66,8.13-.32,2.87-1.05,10.46,3.28,9.9l193.28-.05c3.35-.29,2.7-6.85,2.44-9.41-.51-5.02-4.54-8.75-9.66-8.57-.76-6.14,3.16-14.59-6.59-12.73v-79.93Z"/>
      <path class="st3" d="M633.99,492.64v79.93c9.75-1.85,5.83,6.6,6.59,12.73,5.12-.18,9.15,3.55,9.66,8.57.26,2.56.91,9.12-2.44,9.41l-193.28.05c-4.32.56-3.6-7.03-3.28-9.9.53-4.75,4.9-8.34,9.66-8.13.82-6.23-3.3-14.57,6.59-12.73v-79.93c-8.56-.37-15.34-8.27-16.2-16.52-.33-3.18-.39-10.1.48-13.02,3.68-12.24,11.53-25.2,15.61-37.53.82-5.92-.76-13.48.13-19.19.28-1.8,1.48-2.5,3.25-2.46l161.79.34c1.07.53,1.3,1.42,1.43,2.52.69,5.83-.62,12.83.1,18.79,4.06,12.35,11.93,25.29,15.61,37.53.88,2.92.82,9.85.48,13.02-.86,8.21-7.71,16.11-16.2,16.52ZM629.15,408.75h-156.82v14.49h156.82v-14.49ZM644.09,462.34l-14.05-33.61-158.3-.14-14.35,33.75h186.69ZM483.75,467.17h-27.67v9c0,.86,1.58,4.38,2.12,5.34,5,8.93,18.4,8.85,23.44.01.53-.92,2.11-4.55,2.11-5.35v-9ZM515.82,467.17h-27.24v9.44c0,5.98,7.71,11.58,13.39,11.67s13.84-5.35,13.84-11.23v-9.88ZM548.33,467.17h-27.67v7.69c0,11.15,14.05,17.34,22.61,10.31,1.8-1.48,5.06-6.33,5.06-8.55v-9.44ZM580.83,467.17h-27.67v9.44c0,2.43,3.13,6.99,5.06,8.55,8.73,7.07,22.61.54,22.61-10.31v-7.69ZM612.9,467.17h-27.24v9.88c0,5.64,8.06,11.22,13.4,11.24,5.79.02,13.84-5.55,13.84-11.68v-9.44ZM645.41,467.17h-27.67v9c0,.39,1.28,3.94,1.58,4.57,4.64,9.58,18.76,9.94,23.98.79.53-.92,2.11-4.55,2.11-5.35v-9ZM472.33,492.64v79.93h104.99v-66.54c0-.12,1.06-1.06,1.33-1.31l38.35.18c.23.14.74.96.74,1.13v66.54h11.42v-79.27c-1.04-.89-2.54-.76-3.95-1.32-4.54-1.81-7.19-4.31-10.1-8.12-6.4,12.27-25.33,12.38-31.64,0-1.67,1.45-2.88,3.41-4.6,4.84-9.1,7.58-22.07,5.15-28.12-4.83-5,8.08-14.64,11.5-23.59,7.77-4.04-1.69-6.21-4.74-9.13-7.78-6.6,12.59-24.85,12-31.85,0-3.39,4.5-7.89,8.56-13.84,8.78ZM612.9,509.33h-30.75v63.24h30.75v-63.24ZM635.74,577.4h-170v7.91h170v-7.91ZM645.41,598.48c.3-4.05.21-7.79-4.61-8.34l-179.24-.02c-5.54.39-5.8,3.46-5.47,8.36h189.33Z"/>
      <polygon class="st2" points="644.09 462.34 457.4 462.34 471.74 428.59 630.04 428.73 644.09 462.34"/>
      <path class="st2" d="M472.33,492.64c5.94-.21,10.45-4.27,13.84-8.78,7.01,11.99,25.25,12.58,31.85,0,2.92,3.04,5.08,6.09,9.13,7.78,8.95,3.73,18.59.31,23.59-7.77,6.05,9.98,19.03,12.41,28.12,4.83,1.71-1.43,2.93-3.39,4.6-4.84,6.32,12.38,25.24,12.27,31.64,0,2.92,3.81,5.57,6.31,10.1,8.12,1.41.56,2.91.43,3.95,1.32v79.27h-11.42v-66.54c0-.17-.51-.99-.74-1.13l-38.35-.18c-.27.24-1.33,1.19-1.33,1.31v66.54h-104.99v-79.93ZM565.36,560.61l.12-55.46-81.31.08-.43,53.53,1.35,2.16,80.27-.31Z"/>
      <rect class="st2" x="472.33" y="408.75" width="156.82" height="14.49"/>
      <rect class="st2" x="582.15" y="509.33" width="30.75" height="63.24"/>
      <path class="st2" d="M645.41,598.48h-189.33c-.32-4.91-.07-7.98,5.47-8.36l179.24.02c4.83.55,4.91,4.3,4.61,8.34Z"/>
      <rect class="st2" x="465.74" y="577.4" width="170" height="7.91"/>
      <path class="st2" d="M548.33,467.17v9.44c0,2.23-3.27,7.08-5.06,8.55-8.57,7.03-22.61.84-22.61-10.31v-7.69h27.67Z"/>
      <path class="st2" d="M645.41,467.17v9c0,.81-1.59,4.43-2.11,5.35-5.22,9.16-19.34,8.8-23.98-.79-.3-.62-1.58-4.18-1.58-4.57v-9h27.67Z"/>
      <path class="st2" d="M483.75,467.17v9c0,.81-1.59,4.43-2.11,5.35-5.04,8.84-18.44,8.92-23.44-.01-.54-.96-2.12-4.49-2.12-5.34v-9h27.67Z"/>
      <path class="st2" d="M580.83,467.17v7.69c0,10.85-13.89,17.38-22.61,10.31-1.93-1.57-5.06-6.12-5.06-8.55v-9.44h27.67Z"/>
      <path class="st2" d="M515.82,467.17v9.88c0,5.88-8.31,11.32-13.84,11.23s-13.39-5.69-13.39-11.67v-9.44h27.24Z"/>
      <path class="st2" d="M612.9,467.17v9.44c0,6.13-8.04,11.69-13.84,11.68-5.34-.01-13.4-5.6-13.4-11.24v-9.88h27.24Z"/>
      <path class="st3" d="M565.36,560.61l-80.27.31-1.35-2.16.43-53.53,81.31-.08-.12,55.46ZM561.07,509.33h-72.48v46.99h72.48v-46.99Z"/>
      <rect class="st2" x="488.59" y="509.33" width="72.48" height="46.99"/>
    </g>
    <g>
      <path class="st2" d="M670.32,502.98v320.38H209.61v-320.38h460.72ZM307.71,748.38h121.75l14.54-7.3,3.21,4.42-5.19,2.87h84.96c26.18-14.48,57.69-47.02,32.12-73.94-28.98-30.51-88.91-47.98-126.03-70.88-6.19-3.82-21.13-12.89-12.96-20.36,11.31-10.32,62.51-16.81,79.5-18.8,27.16-3.18,54.64-4.76,81.96-6.36v-6.3s-18.11.53-18.11.53v-5.25s18.11-.52,18.11-.52v-5.25c-31.06,1.4-62.18,2.96-93.13,5.78-24.28,2.21-49.45,5.02-73.41,9.06-18.63,3.15-61.38,10.91-72.87,24.76-2.6,3.13-2.68,6.18-2.36,9.98,2.44,29.12,58.57,63.11,79.74,84.13,8.56,8.51,16.51,17.06,8.36,28.5-14.58,20.5-77.45,33.35-103.26,39.94l-16.93,4.98Z"/>
      <path class="st1" d="M467.5,568.91,467.5,549.08,467.5,568.91c-19.49,3.29-40.61,8.1-47.39,14.29-8.17,7.46,6.77,16.54,12.96,20.36,37.11,22.9,97.05,40.37,126.03,70.88,25.57,26.92-5.94,59.46-32.12,73.94h-84.96l5.19-2.87-3.21-4.42-14.54,7.3h-121.75l16.93-4.98c25.81-6.59,88.68-19.44,103.26-39.94,8.14-11.44.2-19.99-8.36-28.5-21.17-21.03-77.29-55.01-79.74-84.13-.32-3.8-.24-6.85,2.36-9.98,11.49-13.85,54.24-21.61,72.87-24.76,17.13-2.89,34.88-5.15,52.47-7.01M467.5,555l-13.23,1.46.59,5.76,12.64-1.58M467.5,555,467.5,560.65,437.92,559.08c-12.61,2.16-25.23,4.51-37.32,8.44l1.12,5.19,36.79-7.86-.59-5.77ZM391.21,605.22c-5.41-7.69-15.04-19.83-2.93-26.47l-4.26-3.86c-14.22,7.78-6.05,23.55,1.92,32.72l.84.22,4.43-2.61ZM428.5,640.81l2.94-3.86-28.57-20.99c-1.96-.82-4.2,1.97-4.57,3.61.27,1.22,16.78,13.03,19.24,14.7,2.16,1.47,7.36,5.51,9.3,6.34.54.23,1.09.49,1.66.2ZM473.48,669.16l2.87-3.9-30.27-19.39-1.66-.2c-.53,1.68-3.56,3.13-1.83,4.9l30.89,18.58ZM503.9,705.91c3.1-9.53,3.55-15.27-3.78-23.08-1.23-1.31-9.15-8.53-10.43-8.33l-3.85,3.89c9.46,7.03,17.99,13.57,12.29,25.65l5.78,1.88ZM458.94,733.7l3.21,5.18c11.14-5.78,22.95-11.05,31.82-19.61l-4.28-3.37c-9.16,7.27-19.67,13.19-30.74,17.79Z"/>
      <path class="st3" d="M467.5,560.65"/>
      <path class="st3" d="M467.5,555"/>
      <polyline class="st3" points="467.5 560.65 454.86 562.23 454.27 556.46 467.5 555"/>
      <polygon class="st2" points="547.12 548.07 547.15 552.99 546.74 553.34 509.16 555.94 508.57 550.69 547.12 548.07"/>
      <path class="st3" d="M437.92,559.08l.59,5.77-36.79,7.86-1.12-5.19c12.08-3.94,24.7-6.29,37.32-8.44Z"/>
      <path class="st3" d="M428.5,640.81c-.57.3-1.12.03-1.66-.2-1.94-.82-7.14-4.86-9.3-6.34-2.46-1.67-18.97-13.49-19.24-14.7.37-1.65,2.61-4.43,4.57-3.61l28.57,20.99-2.94,3.86Z"/>
      <path class="st3" d="M503.9,705.91l-5.78-1.88c5.7-12.07-2.83-18.62-12.29-25.65l3.85-3.89c1.29-.2,9.2,7.02,10.43,8.33,7.33,7.81,6.88,13.55,3.78,23.08Z"/>
      <path class="st3" d="M391.21,605.22l-4.43,2.61-.84-.22c-7.97-9.17-16.14-24.94-1.92-32.72l4.26,3.86c-12.12,6.64-2.48,18.78,2.93,26.47Z"/>
      <path class="st3" d="M473.48,669.16l-30.89-18.58c-1.73-1.77,1.3-3.21,1.83-4.9l1.66.2,30.27,19.39-2.87,3.9Z"/>
      <path class="st3" d="M458.94,733.7c11.07-4.6,21.59-10.53,30.74-17.79l4.28,3.37c-8.87,8.56-20.68,13.83-31.82,19.61l-3.21-5.18Z"/>
    </g>
  </g>
  <g id="Layer_3">
    <path class="st1" d="M298.28,152.46c39.48,21.94,55.43,31.86,94.91,31.86s71.99-6.95,111.47-28.89c39.48,21.94,75.93,27.59,115.42,27.59s41.13-5.65,80.61-27.59l106.68,115.35s-21.38,30.46-26.72,41.61-14.95,44.86-14.95,44.86H234.57s-13.23-33.59-18.85-44.21c-6.24-11.78-28.83-44.86-28.83-44.86l111.39-115.72Z"/>
    <path class="st1" d="M768.58,446.72c48.85,101.32,78.95,173.73,27.35,253.39-36.36,56.13-98.55,89.62-181.25,88.94-57.11-.47-100.44,49.14-100.44,49.14,0,0-33.25-51.89-143.83-50.59-88.44,1.04-137.93-44.09-166.93-87.58-52.65-78.97-16.6-162.68,23.55-246.16,9.63-20.03,8.69-88.5,8.69-88.5l529.97.38s-6.38,61.75,2.89,80.98Z"/>
  </g>
</svg>