<?xml version="1.0" encoding="UTF-8"?>
<svg id="Layer_1" xmlns="http://www.w3.org/2000/svg" version="1.1" viewBox="0 0 1000 1000">
  <!-- Generator: Adobe Illustrator 29.0.0, SVG Export Plug-In . SVG Version: 2.1.0 Build 186)  -->
  <defs>
    <style>
      .st0 {
        fill: #fff;
      }

      .st0, .st1, .st2 {
        stroke: #fff;
        stroke-miterlimit: 10;
        stroke-width: 3px;
      }

      .st1, .st2 {
        fill: none;
      }

      .st2 {
        display: none;
      }
    </style>
  </defs>
  <path class="st1" d="M341.09,723.01h59.66-59.66Z"/>
  <g>
    <path class="st2" d="M783.82,559.57l-48.53-48.53-36.71-36.71-36.14-36.14c-17.87-17.86-48.93-17.83-66.76.03l-121.35,121.35c-7.16,7.18-7.16,18.79,0,25.96,7.17,7.18,18.8,7.18,25.97,0l121.34-121.35c3.95-3.93,10.92-3.93,14.85-.01l121.36,121.36c3.6,3.59,8.29,5.37,12.98,5.37s9.4-1.79,12.99-5.37c7.17-7.17,7.17-18.78,0-25.96h0Z"/>
    <path class="st1" d="M635.45,499.01c-3.53-3.52-9.23-3.52-12.75,0l-106.74,106.71c-1.69,1.68-2.64,3.98-2.64,6.38v77.83c0,18.26,14.81,33.07,33.07,33.07h52.85v-81.84h59.66v81.84h52.85c18.26,0,33.07-14.81,33.07-33.07v-77.83c0-2.4-.95-4.7-2.64-6.38l-106.73-106.71h0Z"/>
  </g>
  <g>
    <path class="st1" d="M377.3,499.01c-3.53-3.52-9.23-3.52-12.75,0l-106.74,106.71c-1.69,1.68-2.64,3.98-2.64,6.38v77.83c0,18.26,14.81,33.07,33.07,33.07h52.85v-81.84h59.66v81.84h52.85c18.26,0,33.07-14.81,33.07-33.07v-77.83c0-2.4-.95-4.7-2.64-6.38l-106.73-106.71h0Z"/>
    <path class="st0" d="M769.32,277.2l-125.83,30.94,33.62,30.94-170.15,182.7c-5.07,5.44-13.64,5.59-18.89.32l-47.64-47.78-36.14-36.14c-17.87-17.86-48.93-17.83-66.76.03l-121.35,121.35c-7.16,7.18-7.16,18.79,0,25.96,7.17,7.18,18.8,7.18,25.97,0l121.34-121.35c3.95-3.93,10.92-3.93,14.85-.01l110.46,110.46c6.07,6.07,15.86,6.2,22.09.3l209.23-198.26"/>
    <path class="st0" d="M643.5,308.14l126.04-31.15-14.35,128.78-36.17-30.32"/>
  </g>
  <path class="st1" d="M599.24,723h59.66-59.66Z"/>
</svg>