<?xml version="1.0" encoding="UTF-8"?>
<svg id="Layer_1" xmlns="http://www.w3.org/2000/svg" version="1.1" viewBox="0 0 1000 1000">
  <!-- Generator: Adobe Illustrator 29.0.0, SVG Export Plug-In . SVG Version: 2.1.0 Build 186)  -->
  <defs>
    <style>
      .st0 {
        fill: #fff;
      }

      .st1 {
        display: none;
      }
    </style>
  </defs>
  <g class="st1">
    <path class="st0" d="M689.58,685.5l.86-354.72c-24.76-60.95-124.57-71.37-182.2-68.07-48.92,2.8-117.61,15.8-142.51,62.52l-1.43,356.48c7.62,48.62,108.33,67,147.94,68.73,56.52,2.47,149.19-9.01,177.34-64.94ZM674.26,679.52c0,4.16-13.42,18.88-17.49,22.1-53.25,42.19-203.32,41.37-257.48,1.01-3.52-2.62-18.81-17.73-18.81-20.78v-82.57c10.01,3.11,17.68,11.28,27.1,15.99,61.64,30.83,175.9,30.75,237.96.72,10.19-4.93,18.17-13.08,28.71-16.71v80.24ZM674.26,567.88c0,5.3-12.9,18.49-17.49,22.1-54.14,42.53-204.65,42.55-258.8,0-4.59-3.61-17.49-16.79-17.49-22.1v-80.24l33.39,19.03c72.08,27.73,154.97,27.4,227,0l33.39-19.03v80.24ZM674.26,456.23c0,12.75-27.6,29.29-38.07,34.12-59.22,27.34-181.34,29.52-235.49-10.1-3.95-2.89-20.22-18.11-20.22-21.7v-82.57c7.74,2.45,13.52,8.8,20.95,12.83,63.52,34.46,171.8,35.15,237.83,6.91l35.01-19.74v80.24ZM631.55,381.06c-57.25,24.11-151.08,24.11-208.35,0-66.25-27.89-50.06-66.34,9.11-87.11,26.98-9.47,54.5-12.87,82.92-14.97l20.28-.65c24.85,2.93,48.69,4.25,72.96,10.94,59.73,16.46,101.46,58.78,23.07,91.79Z"/>
    <path class="st0" d="M639.59,410.54c-12.22,0-22.13,9.91-22.13,22.13s9.91,22.13,22.13,22.13,22.13-9.91,22.13-22.13-9.91-22.13-22.13-22.13ZM639.59,447.56c-8.23,0-14.9-6.67-14.9-14.9s6.67-14.9,14.9-14.9,14.9,6.67,14.9,14.9-6.67,14.9-14.9,14.9Z"/>
    <path class="st0" d="M639.59,532.63c-12.22,0-22.13,9.91-22.13,22.13s9.91,22.13,22.13,22.13,22.13-9.91,22.13-22.13-9.91-22.13-22.13-22.13ZM639.59,569.66c-8.23,0-14.9-6.67-14.9-14.9s6.67-14.9,14.9-14.9,14.9,6.67,14.9,14.9-6.67,14.9-14.9,14.9Z"/>
    <path class="st0" d="M639.59,640.91c-12.22,0-22.13,9.91-22.13,22.13s9.91,22.13,22.13,22.13,22.13-9.91,22.13-22.13-9.91-22.13-22.13-22.13ZM639.59,677.94c-8.23,0-14.9-6.67-14.9-14.9s6.67-14.9,14.9-14.9,14.9,6.67,14.9,14.9-6.67,14.9-14.9,14.9Z"/>
  </g>
  <g>
    <path class="st0" d="M573.27,714.35c-1.84,5.77-6.76,10.78-10.38,9.58-1.59-.53-3.49-2.33-5.4-4.86-67.44,17.33-165.86,9.69-207.53-21.36-3.52-2.62-18.81-17.73-18.81-20.78v-82.57c10.01,3.11,17.68,11.28,27.1,15.99,45.22,22.61,118.76,28.6,179.23,18.32-2.03-4.77-5.02-10.62-7.94-15.45-64.87,9.76-144.57.37-180.91-28.17-4.59-3.61-17.49-16.79-17.49-22.1v-80.24l33.39,19.03c72.08,27.73,154.97,27.4,227,0l33.39-19.03v80.24c0,5.3-12.9,18.49-17.49,22.1-7.45,5.85-16.73,10.89-27.32,15.13,6.02,2.15,11.85,5.35,18.03,9.89,9.29-4.97,16.91-12.33,26.78-15.73v40.61c6.2,6.86,10.43,12.9,15.37,22.18l.8-331.29c-24.76-60.95-124.57-71.37-182.2-68.07-48.92,2.8-117.61,15.8-142.51,62.52l-1.43,356.48c7.62,48.62,108.33,67,147.94,68.73,36.41,1.59,87.8-2.61,127.3-20.75-3.6-3.82-7.75-8.7-10.72-12.71-2.02.79-4.1,1.55-6.22,2.28ZM624.93,451.32c0,12.75-27.6,29.29-38.07,34.12-59.22,27.34-181.34,29.52-235.49-10.1-3.95-2.89-20.22-18.11-20.22-21.7v-82.57c7.74,2.45,13.52,8.8,20.95,12.83,63.52,34.46,171.8,35.15,237.83,6.91l35.01-19.74v80.24ZM382.98,289.03c26.98-9.47,54.5-12.87,82.92-14.97l20.28-.65c24.85,2.93,48.69,4.25,72.96,10.94,59.73,16.46,101.46,58.78,23.07,91.79-57.25,24.11-151.08,24.11-208.35,0-66.25-27.89-50.06-66.34,9.11-87.11Z"/>
    <path class="st0" d="M568.13,427.74c0,12.22,9.91,22.13,22.13,22.13s22.13-9.91,22.13-22.13-9.91-22.13-22.13-22.13-22.13,9.91-22.13,22.13ZM590.26,412.84c8.23,0,14.9,6.67,14.9,14.9s-6.67,14.9-14.9,14.9-14.9-6.67-14.9-14.9,6.67-14.9,14.9-14.9Z"/>
    <path class="st0" d="M590.26,571.97c12.22,0,22.13-9.91,22.13-22.13s-9.91-22.13-22.13-22.13-22.13,9.91-22.13,22.13,9.91,22.13,22.13,22.13ZM590.26,534.94c8.23,0,14.9,6.67,14.9,14.9s-6.67,14.9-14.9,14.9-14.9-6.67-14.9-14.9,6.67-14.9,14.9-14.9Z"/>
  </g>
  <g>
    <path class="st0" d="M693.71,753.6c-5.93-3.7-10.62-7.65-10.62-8.64s4.19-2.71,9.38-3.46c13.82-2.47,17.77-3.7,17.77-6.17,0-3.7-24.93-22.46-36.78-27.65-10.12-4.69-11.35-6.67-24.44-33.56-11.61-24.68-16.29-31.59-31.1-46.4-19-19-32.08-27.15-48.87-29.62-5.68-.99-13.57-3.95-17.03-6.42-8.15-6.17-24.68-8.39-28.64-4.19v.03c-4.93,4.94-3.69,10.62,4.94,23.45,4.45,6.66,9.63,17.03,11.61,22.96,1.98,6.17,5.93,14.56,8.64,18.76,4.94,6.91,4.94,8.39,1.72,20.98-1.98,7.89-2.71,17.78-1.72,23.95,1.48,10.37,9.87,25.42,15.05,27.15,4.45,1.48,10.86-6.42,11.11-13.57,0-6.17.25-6.42,2.96-1.98,4.69,7.65,19.5,23.94,20.73,22.7.49-.49-2.71-6.91-7.4-14.06-4.45-7.4-9.63-17.03-11.6-21.48-2.71-7.4-3.7-7.89-6.91-4.45-1.98,1.98-4.45,7.65-5.18,12.83-1.98,11.85-6.42,13.33-9.87,3.21-3.46-10.12-3.46-27.4,0-39.24,2.47-8.15,2.22-10.36-1.98-16.54-2.71-3.7-6.91-12.59-9.14-19.74-2.22-6.91-7.4-17.28-11.6-22.71-9.63-13.57-9.63-18.51.49-16.54,4.19.74,10.62,3.7,14.56,6.42,3.7,2.71,10.12,4.94,14.06,4.94,11.85,0,32.58,11.61,47.64,26.66,11.61,11.6,17.52,20.98,30.12,46.4,14.81,30.11,16.04,31.84,25.18,34.8,10.86,3.7,33.56,17.52,33.56,20.49,0,.99-5.68,2.47-12.59,2.96-18.51,1.98-20.24,5.43-8.15,16.29,5.68,4.94,16.3,12.59,23.95,16.79l13.82,7.89-6.42-8.15c-3.7-4.45-11.35-11.35-17.28-15.05Z"/>
    <path class="st0" d="M563.93,621.49c.58-.26,1.22-.42,1.89-.42,2.51,0,4.55,2.04,4.55,4.55,0,.68-.15,1.32-.42,1.9,1.75-.67,2.99-2.36,2.99-4.35,0-2.58-2.09-4.67-4.67-4.67-1.98,0-3.67,1.24-4.35,2.99Z"/>
  </g>
</svg>