<?xml version="1.0" encoding="UTF-8"?>
<svg id="Layer_1" xmlns="http://www.w3.org/2000/svg" version="1.1" viewBox="0 0 1000 1000">
  <!-- Generator: Adobe Illustrator 29.0.0, SVG Export Plug-In . SVG Version: 2.1.0 Build 186)  -->
  <defs>
    <style>
      .st0, .st1, .st2, .st3, .st4, .st5, .st6, .st7, .st8 {
        fill: none;
      }

      .st1 {
        stroke-width: 3px;
      }

      .st1, .st2, .st3, .st4, .st9, .st10, .st11, .st12, .st13, .st14 {
        stroke: #fff;
      }

      .st1, .st6 {
        stroke-miterlimit: 10;
      }

      .st2, .st9, .st5, .st13 {
        stroke-miterlimit: 10;
      }

      .st2, .st9, .st13 {
        stroke-width: 3px;
      }

      .st3 {
        stroke-width: 3px;
      }

      .st3, .st11, .st7, .st14 {
        stroke-miterlimit: 10;
      }

      .st4, .st10, .st8, .st12 {
        stroke-miterlimit: 10;
      }

      .st4, .st10, .st12 {
        stroke-width: 3px;
      }

      .st9, .st10, .st11, .st5, .st6, .st7, .st8 {
        display: none;
      }

      .st9, .st10, .st11, .st12, .st13, .st14 {
        fill: #414042;
      }

      .st11, .st14 {
        stroke-width: 3px;
      }

      .st15 {
        fill: #fff;
      }

      .st5 {
        stroke-width: 2px;
      }

      .st5, .st6, .st7, .st8 {
        stroke: #231f20;
      }

      .st6 {
        stroke-width: 2px;
      }

      .st7 {
        stroke-width: 2px;
      }

      .st8 {
        stroke-width: 2px;
      }
    </style>
  </defs>
  <g id="Layer_11" data-name="Layer_1">
    <path class="st2" d="M478.96,749.55s-.02.01-.03.01c-6.08,2.8-13.27.17-16.12-5.89l-22.83-48.66-147.54-314.37-.54-1.15c-2.86-6.09-.24-13.36,5.85-16.22l41.61-19.52,126.65-59.44,14.16-6.64-27.32-34.76c-4.16-5.29-11.82-6.21-17.12-2.06l-220.43,173.28c-5.29,4.16-6.21,11.82-2.05,17.12l248.61,316.27c4.16,5.29,11.82,6.21,17.12,2.05l.1-.08-.08.04s-.05.02-.07.03ZM240.96,421.11c3.41-2.38,8.25-2.58,12.71-.29.83.41,2,1.14,2.58,1.59l1.06.83-.55-1.21c-.61-1.36-1.27-3.95-1.35-5.19-.06-1.43.17-3.79.5-4.94,1.51-5.1,6.35-8.22,11.76-7.56,4.31.52,7.93,2.62,10.81,6.28,1.87,2.38,2.78,4.38,3.53,7.75.73,3.24.91,6.9.72,14.06-.33,11.8-.2,15.14.72,19.48.66,3.2,2.08,6.79,3.32,8.45.31.42.69,1.01.83,1.32.18.41.06.31-.57-.46-2.34-2.89-6.7-5.64-11.82-7.5-3.33-1.19-6.18-1.95-13.2-3.48-11.13-2.41-14.66-3.61-18.64-6.29-1.47-.99-1.64-1.17-3.27-3.25-1.47-1.87-1.83-2.4-2.3-3.6-2.1-5.16-1.82-10.08.83-13.67h-.01c.44-.6.93-1.14,1.47-1.61.28-.25.58-.49.89-.7Z"/>
    <path class="st13" d="M287.59,461.66c.18.41.06.31-.57-.46-2.34-2.89-6.7-5.64-11.82-7.5-3.33-1.19-6.18-1.95-13.2-3.48-11.13-2.41-14.66-3.61-18.64-6.29-1.47-.99-1.64-1.17-3.27-3.25-1.47-1.87-1.83-2.4-2.3-3.6-2.1-5.16-1.82-10.08.83-13.67h-.01c.44-.6.93-1.14,1.47-1.61.28-.25.58-.49.89-.7,3.41-2.38,8.25-2.58,12.71-.29.83.41,2,1.14,2.58,1.59l1.06.83-.55-1.21c-.61-1.36-1.27-3.95-1.35-5.19-.06-1.43.17-3.79.5-4.94,1.51-5.1,6.35-8.22,11.76-7.56,4.31.52,7.93,2.62,10.81,6.28,1.87,2.38,2.78,4.38,3.53,7.75.73,3.24.91,6.9.72,14.06-.33,11.8-.2,15.14.72,19.48.66,3.2,2.08,6.79,3.32,8.45.31.42.69,1.01.83,1.32Z"/>
    <path class="st9" d="M702.45,572.8c-.74,1.31-1.76,2.5-3.02,3.49l-145.94,114.72-74.39,58.47-.08.04s-.05.02-.07.03c0,0-.02.01-.03.01-6.08,2.8-13.27.17-16.12-5.89l-22.83-48.66-147.54-314.37-.54-1.15c-2.86-6.09-.24-13.36,5.85-16.22l41.61-19.52,126.65-59.44,14.16-6.64,25.23,32.09,182.61,232.31,13.45,17.11c3.17,4.03,3.39,9.44.97,13.63Z"/>
    <path class="st15" d="M287.59,461.66c.18.41.06.31-.57-.46-2.34-2.89-6.7-5.64-11.82-7.5-3.33-1.19-6.18-1.95-13.2-3.48-11.13-2.41-14.66-3.61-18.64-6.29-1.47-.99-1.64-1.17-3.27-3.25-1.47-1.87-1.83-2.4-2.3-3.6-2.1-5.16-1.82-10.08.83-13.67h-.01c.44-.6.93-1.14,1.47-1.61l.89-.7c3.41-2.38,8.25-2.58,12.71-.29.83.41,2,1.14,2.58,1.59l1.06.83-.55-1.21c-.61-1.36-1.27-3.95-1.35-5.19-.06-1.43.17-3.79.5-4.94,1.51-5.1,6.35-8.22,11.76-7.56,4.31.52,7.93,2.62,10.81,6.28,1.87,2.38,2.78,4.38,3.53,7.75.73,3.24.91,6.9.72,14.06-.33,11.8-.2,15.14.72,19.48.66,3.2,2.08,6.79,3.32,8.45.31.42.69,1.01.83,1.32Z"/>
    <path class="st5" d="M675.22,568.19l-198.39,155.95c-.42.33-.85.62-1.3.87-4.65,2.69-10.69,1.62-14.11-2.72l-.17-.22-21.27-27.07-147.54-314.37,46.93-36.89,126.65-59.44,22.57,28.72,188.47,239.76c3.75,4.76,2.92,11.66-1.84,15.41Z"/>
    <path class="st15" d="M287.02,461.2c-2.34-2.89-6.7-5.64-11.82-7.5-3.33-1.19-6.18-1.95-13.2-3.48-11.13-2.41-14.66-3.61-18.64-6.29-1.47-.99-1.64-1.17-3.27-3.25-1.47-1.87-1.83-2.4-2.3-3.6-2.1-5.16-1.82-10.08.83-13.67h-.01c.44-.6.93-1.14,1.47-1.61.28-.25.58-.49.89-.7,3.41-2.38,8.25-2.58,12.71-.29.83.41,2,1.14,2.58,1.59l1.06.83-.55-1.21c-.61-1.36-1.27-3.95-1.35-5.19-.06-1.43.17-3.79.5-4.94,1.51-5.1,6.35-8.22,11.76-7.56,4.31.52,7.93,2.62,10.81,6.28,1.87,2.38,2.78,4.38,3.53,7.75.73,3.24.91,6.9.72,14.06-.33,11.8-.2,15.14.72,19.48.66,3.2,2.08,6.79,3.32,8.45.31.42.69,1.01.83,1.32.18.41.06.31-.57-.46Z"/>
  </g>
  <g id="Layer_3">
    <path class="st4" d="M567.81,250.01c-2.86-6.09-10.12-8.72-16.22-5.86l-71.4,33.51-14.16,6.64-126.65,59.44-41.61,19.52c-6.09,2.86-8.72,10.12-5.85,16.22l.54,1.15,147.54,314.37,22.83,48.66c2.85,6.06,10.04,8.69,16.12,5.89h-.03c-6.56,1.22-12.9-3.09-14.18-9.66l-3.47-17.83-5.84-30.04-67.45-347.03c-.03-.15-.06-.31-.08-.46-1-6.45,3.26-12.59,9.72-13.84l33.74-6.56,57.25-11.13,16.82-3.27,67.44-13.11,15.43-3-20.48-43.64ZM371.57,408.47c-.9,3.06-2.4,5.14-4.95,6.88-3.72,2.52-9.38,2.26-13.34-.59-1.32-.97-1.32-.8,0,.52,3.34,3.41,7.06,5.19,11.07,5.4,1.89.08,3.56-.08,4.95-.5.66-.18,1.19-.33,1.23-.3,0,.03-6.09,2.91-13.56,6.42-7.5,3.51-13.61,6.33-13.61,6.22,0-.08.28-.28.61-.44.91-.43,2.58-1.98,3.71-3.44,2.49-3.26,3.5-7.44,2.95-12.3-.11-.77-.21-1.42-.25-1.43-.05,0-.11.54-.15,1.22-.1,2-1.12,4.84-2.35,6.46-1.42,1.85-2.55,2.79-4.42,3.67-2.54,1.18-5.27,1.4-8.08.63-2.3-.62-4.44-1.98-6.15-3.77-1.95-2.05-3.32-4.67-3.69-7.38-.03-.22-.05-.43-.08-.65-.37-3.62.35-7.63,2.54-14.8,3.24-10.53,3.97-13.4,4.44-17.16.48-3.85.14-7.61-.91-10.55h-.01l-.51-1.37-.02-.05.03.05.66,1.13c2.36,4.01,6.23,7.18,12.31,10.1,1.02.48,4.79,2.09,8.37,3.55,12.84,5.29,16.54,7.94,18.73,13.38,1.21,3.02,1.38,6.06.48,9.07Z"/>
    <path class="st12" d="M371.09,399.4c1.21,3.02,1.38,6.06.48,9.07-.9,3.06-2.4,5.14-4.95,6.88-3.72,2.52-9.38,2.26-13.34-.59-1.32-.97-1.32-.8,0,.52,3.34,3.41,7.06,5.19,11.07,5.4,1.89.08,3.56-.08,4.95-.5.66-.18,1.19-.33,1.23-.3,0,.03-6.09,2.91-13.56,6.42-7.5,3.51-13.61,6.33-13.61,6.22,0-.08.28-.28.61-.44.91-.43,2.58-1.98,3.71-3.44,2.49-3.26,3.5-7.44,2.95-12.3-.11-.77-.21-1.42-.25-1.43-.05,0-.11.54-.15,1.22-.1,2-1.12,4.84-2.35,6.46-1.42,1.85-2.55,2.79-4.42,3.67-2.54,1.18-5.27,1.4-8.08.63-2.3-.62-4.44-1.98-6.15-3.77-1.95-2.05-3.32-4.67-3.69-7.38-.03-.22-.05-.43-.08-.65-.37-3.62.35-7.63,2.54-14.8,3.24-10.53,3.97-13.4,4.44-17.16.48-3.85.14-7.61-.91-10.55h-.01l-.51-1.37-.02-.05.03.05.66,1.13c2.36,4.01,6.23,7.18,12.31,10.1,1.02.48,4.79,2.09,8.37,3.55,12.84,5.29,16.54,7.94,18.73,13.38Z"/>
    <path class="st10" d="M737.61,626.43c-1.18,1.66-2.79,3.05-4.76,3.98l-174.83,82.04-37.44,17.57-41.48,19.47-.08.04s-.05.02-.07.03c0,0-.02.01-.03.01h-.03c-6.56,1.22-12.9-3.09-14.18-9.66l-3.47-17.83-5.84-30.04-67.45-347.03c-.03-.15-.06-.31-.08-.46-1-6.45,3.26-12.59,9.72-13.84l33.74-6.56,57.25-11.13,16.82-3.27,67.44-13.11,15.43-3,16.09,34.29,10.23,21.8,118.17,251.82,5.93,12.63c1.94,4.12,1.36,8.77-1.09,12.24Z"/>
    <path class="st15" d="M371.09,399.4c1.21,3.02,1.38,6.06.48,9.07-.9,3.06-2.4,5.14-4.95,6.88-3.72,2.52-9.38,2.26-13.34-.59-1.32-.97-1.32-.8,0,.52,3.34,3.41,7.06,5.19,11.07,5.4,1.89.08,3.56-.08,4.95-.5.66-.18,1.19-.33,1.23-.3,0,.03-6.09,2.91-13.56,6.42-7.5,3.51-13.61,6.33-13.61,6.22,0-.08.28-.28.61-.44.91-.43,2.58-1.98,3.71-3.44,2.49-3.26,3.5-7.44,2.95-12.3-.11-.77-.21-1.42-.25-1.43-.05,0-.11.54-.15,1.22-.1,2-1.12,4.84-2.35,6.46-1.42,1.85-2.55,2.79-4.42,3.67-2.54,1.18-5.27,1.4-8.08.63-2.3-.62-4.44-1.98-6.15-3.77l-3.77-8.03c-.37-3.62.35-7.63,2.54-14.8,3.24-10.53,3.97-13.4,4.44-17.16.48-3.85.14-7.61-.91-10.55h-.01l-.51-1.37h0l.66,1.13c2.36,4.01,6.23,7.18,12.31,10.1,1.02.48,4.79,2.09,8.37,3.55,12.84,5.29,16.54,7.94,18.73,13.38Z"/>
    <path class="st8" d="M711.09,617.05l-226.25,106.17-2.19,1.03c-.43.2-.87.38-1.31.52-5.12,1.65-10.77-.68-13.19-5.62-.03-.05-.06-.11-.08-.17l-12.65-26.94-67.45-347.03c-.03-.15-.06-.31-.08-.46l43.47-20.4,141.51-27.51,14.33,30.55,10.23,21.8,118.95,253.47c2.58,5.48.22,12.01-5.27,14.59Z"/>
    <path class="st15" d="M353.28,415.29c3.34,3.41,7.06,5.19,11.07,5.4,1.89.08,3.56-.08,4.95-.5.66-.18,1.19-.33,1.23-.3,0,.03-6.09,2.91-13.56,6.42-7.5,3.51-13.61,6.33-13.61,6.22,0-.08.28-.28.61-.44.91-.43,2.58-1.98,3.71-3.44,2.49-3.26,3.5-7.44,2.95-12.3-.11-.77-.21-1.42-.25-1.43-.05,0-.11.54-.15,1.22-.1,2-1.12,4.84-2.35,6.46-1.42,1.85-2.55,2.79-4.42,3.67-2.54,1.18-5.27,1.4-8.08.63-2.3-.62-4.44-1.98-6.15-3.77-1.95-2.05-3.32-4.67-3.69-7.38-.03-.22-.05-.43-.08-.65-.37-3.62.35-7.63,2.54-14.8,3.24-10.53,3.97-13.4,4.44-17.16.48-3.85.14-7.61-.91-10.55h-.01l-.51-1.37-.02-.05.03.05.66,1.13c2.36,4.01,6.23,7.18,12.31,10.1,1.02.48,4.79,2.09,8.37,3.55,12.84,5.29,16.54,7.94,18.73,13.38,1.21,3.02,1.38,6.06.48,9.07-.9,3.06-2.4,5.14-4.95,6.88-3.72,2.52-9.38,2.26-13.34-.59-1.32-.97-1.32-.8,0,.52Z"/>
  </g>
  <g id="Layer_4">
    <path class="st14" d="M454.74,369.34l3.6,2.34-.61.9c-.34.5-1.73,2.56-3.09,4.55-3.15,4.61-6.53,10.17-7.62,12.5-1.23,2.67-3.33,7.75-5.12,12.44-.88,2.32-1.64,4.18-1.68,4.2-.07,0-1.35-1.35-2.86-2.99-3.65-3.96-8.14-8.53-10.29-10.45-2.12-1.9-7.69-5.96-12.76-9.3l-3.79-2.5h-.02s.01-.03.01-.03l.87-1.24c4.58-6.53,8.76-13.17,10.32-16.44,1.31-2.7,4.28-9.97,5.79-14.1.54-1.5,1.01-2.73,1.09-2.8,0,0,0,0,0,0h0c.08.05,1.08,1.08,2.23,2.36,2.98,3.28,7.56,7.97,10.08,10.36,2.38,2.24,8.2,6.52,13.84,10.2Z"/>
    <path class="st11" d="M759.04,693.97c-.32.23-.66.45-1,.65-1.15.67-2.42,1.16-3.79,1.42l-42.87,8.33-142.69,27.73-89.67,17.43s-.07.01-.11.02c-6.67-.36-11.82-6.02-11.52-12.71l2.24-51.61,15.2-349.75.03-.55c.29-6.72,5.98-11.94,12.71-11.65l40.86,1.77,141.81,6.17,15.66.69,4.18,21.53,60.29,310.15,3.52,18.13c.94,4.82-1.1,9.53-4.84,12.22Z"/>
    <path class="st3" d="M687.13,286.85c-1.29-6.61-7.68-10.92-14.29-9.64l-84.55,16.44-15.43,3-141.51,27.51-33.74,6.56c-6.46,1.25-10.73,7.39-9.72,13.84.02.15.05.31.08.46l67.45,347.03,9.31,47.87c1.28,6.57,7.62,10.88,14.18,9.66-6.67-.36-11.82-6.02-11.52-12.71l.77-17.7,1.47-33.91,15.2-349.75.03-.55c.29-6.72,5.98-11.94,12.71-11.65l40.86,1.77,48.77,2.12,17.19.75,75.85,3.3,15.66.69-8.76-45.07ZM454.63,377.13c-3.15,4.61-6.53,10.17-7.62,12.5-1.23,2.67-3.33,7.75-5.12,12.44-.88,2.32-1.64,4.18-1.68,4.2-.07,0-1.35-1.35-2.86-2.99-3.65-3.96-8.14-8.53-10.29-10.45-2.12-1.9-7.69-5.96-12.76-9.3l-3.79-2.5h-.02s.01-.03.01-.03l.87-1.24c4.58-6.53,8.76-13.17,10.32-16.44,1.31-2.7,4.28-9.97,5.79-14.1.54-1.5,1.01-2.73,1.09-2.8,0,0,0,0,0,0h0c.08.05,1.08,1.08,2.23,2.36,2.98,3.28,7.56,7.97,10.08,10.36,2.38,2.24,8.2,6.52,13.84,10.2l3.6,2.34-.61.9c-.34.5-1.73,2.56-3.09,4.55Z"/>
    <path class="st0" d="M454.74,369.34l3.6,2.34-.61.9c-.34.5-1.73,2.56-3.09,4.55-3.15,4.61-6.53,10.17-7.62,12.5-1.23,2.67-3.33,7.75-5.12,12.44-.88,2.32-1.64,4.18-1.68,4.2-.07,0-1.35-1.35-2.86-2.99-3.65-3.96-8.14-8.53-10.29-10.45-2.12-1.9-7.69-5.96-12.76-9.3l-3.79-2.5v-.03s.87-1.24.87-1.24c4.58-6.53,8.76-13.17,10.32-16.44,1.31-2.7,4.28-9.97,5.79-14.1.54-1.5,1.01-2.73,1.09-2.8,0,0,0,0,0,0h0c.08.05,1.08,1.08,2.23,2.36,2.98,3.28,7.56,7.97,10.08,10.36,2.38,2.24,8.2,6.52,13.84,10.2Z"/>
    <path class="st7" d="M736.72,677.71c-.1.03-.2.05-.31.07l-10.04,1.95-237.67,46.2c-.52.1-1.03.16-1.54.19-5.37.27-10.26-3.43-11.32-8.87l-6.22-32,15.2-349.75,53.59-10.42,141.81,6.17,4.19,21.54,60.67,312.13c1.14,5.85-2.6,11.51-8.37,12.8Z"/>
    <path class="st15" d="M458.33,371.68l-.61.9c-.34.5-1.73,2.56-3.09,4.55-3.15,4.61-6.53,10.17-7.62,12.5-1.23,2.67-3.33,7.75-5.12,12.44-.88,2.32-1.64,4.18-1.68,4.2-.07,0-1.35-1.35-2.86-2.99-3.65-3.96-8.14-8.53-10.29-10.45-2.12-1.9-7.69-5.96-12.76-9.3l-3.79-2.5h-.02s.01-.03.01-.03l.87-1.24c4.58-6.53,8.76-13.17,10.32-16.44,1.31-2.7,4.28-9.97,5.79-14.1.54-1.5,1.01-2.73,1.09-2.8,0,0,0,0,0,0h0c.08.05,1.08,1.08,2.23,2.36,2.98,3.28,7.56,7.97,10.08,10.36,2.38,2.24,8.2,6.52,13.84,10.2l3.6,2.34Z"/>
  </g>
  <g id="Layer_5">
    <path class="st1" d="M789.33,348.18l-17.48,401.91c-.29,6.73-5.98,11.94-12.71,11.65l-280.12-12.18s-.06,0-.09,0h-.03c-6.67-.36-11.82-6.02-11.52-12.71l.77-17.7,1.47-33.91,15.2-349.75.03-.55c.29-6.72,5.98-11.94,12.71-11.65l40.86,1.77,48.77,2.12,17.19.75,75.85,3.3,15.66.69,81.79,3.56c6.73.29,11.94,5.98,11.65,12.71Z"/>
    <rect id="Card7" class="st6" x="436.35" y="405.38" width="384" height="274.29" rx="10.97" ry="10.97" transform="translate(59.05 1146.71) rotate(-87.51)"/>
    <path class="st15" d="M521.25,345.98c-8.61,2.01-12.87,13.03-8.23,21.31.89,1.6,2.5,3.4,3.91,4.36,1.38.94,2.34,2.22,3.32,4.51.61,1.35,1.45,3.86,1.44,4.19,0,.07-.38-.54-.84-1.37-3.66-6.58-11.4-8.41-17.25-4.1-2.06,1.52-3.97,4.25-4.88,7.01-.39,1.16-.5,1.88-.6,3.91-.11,2.63.01,3.73.68,5.75.94,2.85,3.15,5.71,5.49,7.18,4.99,3.08,11.26,1.93,15.08-2.77.51-.63,1.11-1.48,1.33-1.89.57-1.04.51-.57-.11.98-.77,1.93-1.94,3.97-3.02,5.27-2.4,2.95-6.28,5.07-9.83,5.4-.68.05-1.27.13-1.3.17s6.79.35,15.19.72,15.17.6,15.06.52c-.12-.09-.46-.17-.77-.18-.94-.04-3.61-1.08-5.05-1.96-2.43-1.49-4.63-3.99-5.91-6.69-.6-1.22-1.6-4.01-1.48-4.1.04-.04.38.5.76,1.21,1.27,2.27,3.46,4.21,5.96,5.32,1.17.51,1.54.59,3.72.68s2.56.05,3.77-.35c4.13-1.4,7.16-4.61,8.58-9.14.38-1.22.48-1.93.57-3.97.09-2.27.05-2.67-.4-4.34-1.41-5.29-5.06-8.91-9.94-9.87-4.19-.82-8.85,1.29-11.62,5.28-.46.67-.84,1.17-.84,1.12,0-.24.89-2.23,1.48-3.35.93-1.77,2.18-3.36,3.47-4.43,2.49-2.05,4.11-3.8,4.95-5.38,1.19-2.19,1.67-4.02,1.8-6.7.18-3.47-.57-6.33-2.41-9.08-1.12-1.66-2.07-2.58-3.77-3.68-2.52-1.61-5.56-2.15-8.33-1.51v-.02Z"/>
    <path class="st15" d="M728.97,738.01c-8.4-2.77-11.67-14.12-6.3-21.94,1.02-1.51,2.79-3.16,4.29-4,1.46-.82,2.52-2,3.71-4.19.72-1.29,1.79-3.73,1.8-4.05,0-.07-.41.5-.96,1.28-4.23,6.23-12.09,7.38-17.54,2.55-1.93-1.71-3.57-4.58-4.24-7.42-.29-1.18-.33-1.91-.26-3.95.12-2.63.35-3.72,1.19-5.67,1.18-2.76,3.63-5.41,6.11-6.67,5.23-2.63,11.4-.93,14.77,4.08.45.67.98,1.56,1.16,2,.48,1.07.46.62-.02-.99-.6-1.99-1.58-4.13-2.55-5.52-2.13-3.16-5.8-5.61-9.3-6.24-.68-.11-1.26-.24-1.28-.29s6.8.24,15.2.63c8.37.38,15.15.74,15.04.82-.13.07-.48.13-.78.12-.94-.04-3.69.76-5.21,1.51-2.55,1.27-4.97,3.56-6.47,6.14-.71,1.16-1.94,3.85-1.84,3.95.04.04.41-.46.87-1.13,1.46-2.15,3.82-3.89,6.41-4.77,1.21-.4,1.58-.45,3.77-.35s2.55.17,3.72.68c4,1.76,6.72,5.23,7.74,9.86.27,1.24.3,1.95.22,4.01-.12,2.27-.2,2.66-.79,4.29-1.88,5.14-5.83,8.42-10.76,8.95-4.25.44-8.7-2.06-11.11-6.29-.4-.71-.73-1.24-.74-1.18,0,.24.69,2.3,1.18,3.47.77,1.84,1.88,3.55,3.07,4.72,2.29,2.26,3.75,4.14,4.46,5.79,1,2.29,1.3,4.16,1.21,6.84-.12,3.47-1.13,6.25-3.21,8.84-1.26,1.56-2.29,2.4-4.08,3.33-2.66,1.38-5.73,1.65-8.44.77l-.04.02Z"/>
    <path class="st15" d="M626.58,484.32c-14.68,3.93-22.04,25.03-14.2,40.8,1.5,3.05,4.23,6.47,6.63,8.3,2.34,1.79,3.96,4.22,5.61,8.58,1.02,2.58,2.44,7.39,2.41,8.01,0,.15-.63-1.02-1.43-2.6-6.17-12.54-19.35-15.98-29.33-7.67-3.54,2.94-6.8,8.16-8.37,13.46-.68,2.21-.87,3.6-1.06,7.49-.22,5.02,0,7.13,1.12,11,1.57,5.44,5.29,10.89,9.29,13.67,8.46,5.84,19.18,3.58,25.7-5.42.88-1.21,1.9-2.82,2.28-3.61.98-1.97.88-1.1-.21,1.87-1.33,3.69-3.34,7.61-5.19,10.11-4.11,5.67-10.73,9.75-16.77,10.41-1.17.1-2.16.27-2.22.34s11.57.61,25.87,1.23c14.28.62,25.82,1.01,25.65.85-.21-.16-.78-.33-1.3-.35-1.6-.07-6.14-2.04-8.58-3.72-4.11-2.83-7.86-7.58-10-12.75-1-2.33-2.67-7.66-2.49-7.83.06-.07.63.95,1.28,2.29,2.15,4.32,5.85,8.01,10.12,10.11,1.99.96,2.62,1.11,6.33,1.27s4.35.07,6.41-.72c7.05-2.71,12.23-8.87,14.69-17.55.66-2.33.83-3.68,1-7.61.16-4.33.1-5.11-.65-8.3-2.35-10.09-8.53-16.98-16.82-18.77-7.14-1.52-15.08,2.55-19.83,10.2-.79,1.29-1.45,2.26-1.44,2.15.02-.48,1.54-4.27,2.55-6.44,1.58-3.39,3.74-6.45,5.95-8.48,4.25-3.94,7.03-7.3,8.48-10.33,2.06-4.21,2.88-7.7,3.13-12.84.35-6.63-.91-12.09-4.04-17.33-1.89-3.17-3.5-4.92-6.39-7-4.29-3.05-9.46-4.05-14.18-2.82h0Z"/>
  </g>
</svg>