<?xml version="1.0" encoding="UTF-8"?>
<svg id="Layer_1" xmlns="http://www.w3.org/2000/svg" version="1.1" viewBox="0 0 1000 1000">
  <!-- Generator: Adobe Illustrator 29.0.0, SVG Export Plug-In . SVG Version: 2.1.0 Build 186)  -->
  <defs>
    <style>
      .st0, .st1, .st2, .st3 {
        fill: #fff;
      }

      .st0, .st3 {
        display: none;
      }

      .st2, .st3 {
        stroke: #fff;
        stroke-miterlimit: 10;
      }
    </style>
  </defs>
  <g>
    <path class="st1" d="M190.29,498.09c1.86-7.81,3.72-15.61,5.59-23.42-3.2-2.78-5.23-6.91-5.43-11.44-.09-2.03.31-3.98,1.09-5.76-.8-.16-1.7-.34-2.74-.56-8.67-1.83-8.42-1.78-6.68-9.07.96-4.02,1.67-5.89,2.23-6.08.36-.12,1.55.03,3.56.36-.03-.31-.07-.63-.09-.95-.06-1.45.13-2.86.53-4.19-16.68-3.68-31.96-9.98-45.96-18.43-.15,1.91-.31,3.82-.49,5.73,3.45,2,7.03,4.23,7.48,4.8.4.51.21,2.38-.65,6-1.52,6.39-1.41,6.83-8.4,2.45-.25,1.75-.52,3.54-.8,5.35,13.59,8.51,27.83,14.88,44.28,19.67-2.5,10.49-5,20.97-7.51,31.46-2.5,10.49-5,20.97-7.51,31.46-18.15-8.65-33.36-19-47.66-31.8-.22,2.71-.41,5.43-.55,8.14,1.06.89,2.43,2.11,4.25,3.71,5.38,4.72,5.89,5.04,6.49,6.33.56,1.18.45,2.46-.45,6.23-1.53,6.42-1.41,6.72-9.02-.35-.53-.5-1.02-.95-1.47-1.38.02.74.04,1.48.07,2.21v.38c11.91,11.51,25.12,21.54,39.84,29.58,1.44-.57,2.95-.91,4.51-1.02-4.71-2.38-4.35-3.38-2.95-9.25,1.68-7.05,1.41-6.75,9.69-3.26,5.02,2.12,6.51,2.71,7.28,3.59.83.9.77,1.68-.47,6.87-.58,2.44-.95,4.1-1.46,5.1,2.64.96,5.88,1.88,8.91,2.47.04-.29.09-.6.16-.96-2.91-5.69-2.32-12.73,2.53-17.57.59-.59,1.25-1.12,1.94-1.59-2.62-.68-5.25-1.4-7.9-2.18,2.59-10.88,5.19-21.75,7.78-32.63h-.02ZM173.54,445.59c-1.63,6.83-1.56,7.07-9.99,3.69-8.37-3.36-8.27-3.53-6.74-9.94,1.59-6.65,1.24-6.28,10.17-3.09,6.17,2.21,6.92,2.36,7.38,3.16.21.49-.12,3.23-.82,6.18h0ZM153.77,533.89c-1.1,4.59-1.53,5.59-2.38,5.61-1.31.04-12.71-7.54-13.6-8.98-.38-.61-.16-2.62.79-6.59,1.2-5.02,1.46-5.59,2.43-5.29.55.14,3.61,2.04,6.78,4.02,4.47,2.8,5.95,3.68,6.53,4.54.63.89.54,2.08-.55,6.68h0Z"/>
    <path class="st1" d="M386.97,517.69c-1.72-1.06-3.17-2.42-4.32-3.98-13.08,4.03-26.22,7.89-39.44,11.48,2.49-10.45,4.99-20.91,7.48-31.36-5.43-2.78-9.68-7.2-11.88-12.93-.35,1.47-.7,2.94-1.05,4.41-3.34,14-6.68,28.01-10.02,42.01,1.89.01,3.71.05,5.43.08,10.49.21,20.92,1.16,31.34,2.28,4.07-1.09,5.5-1.31,6.07-.88.31.2.45.62.38,1.59,1.07.12,2.15.24,3.22.36.54.06,1.07.14,1.59.24.61.02,1.23.03,1.84.05.86.02,1.72.04,2.58.07,1.71-6.57,2.79-6.73,11.09-9.23,1.07-.32,2-.6,2.81-.83-2.42-.81-4.8-1.91-7.13-3.35h.01Z"/>
    <path class="st1" d="M400.28,522.47c-.19,1.37-.69,3.6-1.59,7.36-.12.5-.23.97-.34,1.42,3.06-.04,6.13-.13,9.2-.26.24-1.09.54-2.38.91-3.92.42-1.75.76-3.23,1.08-4.48-3.09.32-6.19.31-9.26-.11h0Z"/>
    <path class="st1" d="M694.2,270.14c-81.09,6.14-157.36,49.16-228.46,85.03-12.58,6.34-25.32,12.91-38.22,19.46,1.51-.11,3.04-.14,4.57-.05,3.83.23,7.52,1.05,10.99,2.38.79-2.8,1.38-4.35,1.84-4.85,1.5-1.64,17.14-9.41,18.15-8.98.47.2,0,3.25-1.6,9.96-1.91,8-2.57,9.95-3.71,11.2-.38.43-.88.85-1.64,1.34.84.87,1.64,1.77,2.4,2.73,1.14,1.43,2.05,2.95,2.73,4.52,21.76-9.92,43.55-19.75,65.55-29.13l-13.43,56.3c-4.48,18.77-8.96,37.53-13.43,56.3-8.14,2.41-16.24,4.91-24.34,7.44-.72,5.87-4.97,11.02-10.88,12.83-.63.19-1.33.51-1.99.68-1.14.61-2.35,1.13-3.49,1.75-2.14,1.16-4.23,2.41-6.31,3.69,3.52-1.03,4.82-1.19,5.35-.71.71.56.46,2.42-1.53,10.77-1.67,7-2.75,10.42-3.43,11.08-1.44,1.42-16.22,5.55-17.15,4.82-.44-.34.07-3.58,1.78-10.71.76-3.19,1.3-5.4,1.75-6.97-2.22,1.34-4.46,2.63-6.75,3.83-1.27.67-2.55,1.31-3.86,1.92-.25,1.16-.57,2.57-.98,4.27-1.02,4.28-1.63,6.94-2.49,8.75,9.17-.67,18.34-1.23,27.55-1,1,.02,1.97.14,2.9.34,58.74-16.07,120.76-30.35,180.57-17.79,89.34,18.76,135.74,99.56,165.46,179.01,2.59-10.87,5.19-21.74,7.78-32.61l7.78-32.61c-2.47-6.56-3.73-9.74-6.29-15.91s-3.86-9.17-6.51-14.97c6.5-27.24,13-54.48,19.5-81.71,6.5-27.24,13-54.48,19.5-81.71,2.8,5.18,4.18,7.86,6.88,13.41s4.04,8.42,6.66,14.35c2.67-11.2,5.35-22.41,8.02-33.61l8.02-33.61c-36.7-73.44-92.79-127.78-179.25-121.23h0ZM492.26,358.53c-2.89,12.11-2.52,11.64-12.69,16.39-10.54,4.92-10.27,5.13-7.87-6.02,2.61-12.31,2.32-11.89,13.45-17.39,7.6-3.75,8.45-4.05,8.92-3.32.2.52-.56,5.09-1.82,10.34h.01ZM522.72,344.82c-3.15,12.13-2.7,11.58-13.12,16.28-10.21,4.61-10,4.84-7.1-7.31,1.3-5.46,2.82-10.44,3.35-11.33,1-1.46,1.92-2.04,9.48-5.66,8.08-3.87,8.42-3.95,9.23-2.97.62.95.3,2.82-1.84,10.98h0ZM805.31,333.42c1.86-7.79,3.76-14.41,4.28-15.2.91-1.11,1.65-.9,7.09,4.35,5.82,5.6,6.01,6.17,6.32,9.22.2,2.7-.35,5.56-3.23,16.81-4.26,16.76-3.81,16.23-11.29,8.62-7.33-7.45-7.3-6.47-3.17-23.8h0ZM782.06,316.89c4.02-18.21,3.82-18.19,12.28-12.48,5.77,3.9,6.35,4.74,6.53,6.72.03,1.22-1.31,8.23-3.11,15.76-4.14,17.36-3.74,16.78-11.46,11.2-7.99-5.77-7.91-4.74-4.24-21.2h0ZM758.4,303.72c2.26-9.47,3.59-13.94,4.23-14.46,1.37-1.11,13.87,4.29,14.5,6.31.29.95-.58,5.71-2.9,15.44-2.77,11.61-3.58,14.19-4.61,14.95-.95.7-2.51.18-7.07-2-8.35-3.99-8.25-3.06-4.15-20.24h0ZM732.66,297.09c1.71-7.15,3.52-13.39,4.06-14.27.97-1.33,1.79-1.5,8.14-.02,5.55,1.29,7.11,2.11,7.57,3.45.52,1.36.1,3.93-2.45,14.61-3.98,16.67-3.73,16.18-12.53,13.78-8.67-2.37-8.59-1.64-4.79-17.55h0ZM706.04,294.66c3.6-16.45,3.38-16.36,12.92-15.7,4.8.33,7.37,1.01,7.72,1.74s-.45,5.15-2.6,14.16c-3.96,16.6-3.54,15.91-12.36,14.98-9.14-.97-8.99-.23-5.68-15.18ZM679.35,294.23c2.06-8.65,3.32-12.84,4.01-13.54,1.46-1.48,15.48-2.45,16.26-1.09.37.64-.4,4.96-2.63,14.28-3.76,15.77-3.06,14.75-12.45,15.08-9.05.32-8.95.97-5.2-14.73h.01ZM651.01,298.48c2.28-9.54,3.02-11.83,4.15-13.03,1.06-1.18,2.98-1.86,8.76-2.9,5.78-1.05,7.53-1.03,8.1-.13.63.9.28,3.17-2.04,12.92-3.63,15.21-3.4,14.78-12.98,16.21s-9.54,1.81-5.99-13.07h0ZM622.58,305.85c2.04-8.56,3.27-12.62,3.97-13.39,1.49-1.63,16.25-5.68,17.12-4.67.41.48-.27,4.4-2.23,12.6-3.59,15.03-3.19,14.45-12.58,16.73-10.08,2.45-9.74,3.2-6.29-11.28h.01ZM593.11,314.85c1.87-7.83,3.05-11.71,3.76-12.5s3.78-2.2,9.03-4.03c7.45-2.6,8.05-2.67,8.67-1.43.6,1.04.21,3.49-1.79,11.88-3.28,13.73-3.14,13.43-13.21,16.65-10.07,3.21-9.85,3.65-6.46-10.56h0ZM563.02,326.45c2.05-8.61,2.75-10.73,3.91-12.03,1.08-1.28,3.1-2.34,9.58-4.97,7.42-3.01,8.23-3.16,8.66-2.22.17.65-.74,5.81-2.14,11.69-3.23,13.55-2.84,12.99-12.92,16.8-10.37,3.92-10.3,4.17-7.09-9.26h0ZM533.3,339.21c1.76-7.36,2.88-11,3.6-11.81,1.52-1.72,16.97-8.67,17.92-8.03.45.3-.12,3.77-1.88,11.16-3.25,13.62-2.84,13.01-12.97,17.29-5.79,2.44-7.63,3.07-8.29,2.57-.73-.47-.47-2.4,1.62-11.17h0ZM529.68,414.38c4.57-19.16,9.14-38.31,13.71-57.47,25.73-10.12,51.6-19.09,78.4-25.94,24.82-5.51,48.68-8.63,74.12-8.02-5.46,22.9-10.93,45.8-16.39,68.7s-10.93,45.8-16.39,68.7c-24.1-4.52-47.03-5.11-71.44-3.21-25.76,2.98-50.64,8.19-75.72,14.71,4.57-19.16,9.14-38.31,13.71-57.47h0ZM486.13,504.18c-3.07,12.88-2.62,12.35-12.75,15-9.85,2.58-9.72,2.83-6.78-9.47,2.93-12.3,2.67-12.02,12.46-14.88,5.94-1.74,7.64-2.02,8.46-1.39.89.62.73,1.85-1.39,10.73h0ZM514.81,497.13c-1.88,7.9-2.78,10.85-3.74,11.85-1.7,1.94-15.68,5.19-16.88,3.95-1.27-1.22,3.39-20.49,5.5-22.77,2.02-2.19,15.91-5.87,16.93-4.43.56.64.07,3.5-1.81,11.4h0ZM543.11,491.69c-2.52,10.55-2.81,11.5-4.2,12.41-.83.48-4.71,1.46-8.58,2.16-5.78,1.04-7.24,1.16-7.75.32-.55-.69-.05-3.6,1.89-11.73,3.18-13.32,2.74-12.85,12.74-14.96,5.48-1.16,7.2-1.26,7.79-.49.66.76.35,2.88-1.89,12.28h0ZM571.51,487.18c-3.42,14.35-3.02,13.75-12.51,14.83-9.83,1.11-9.63,1.63-6.35-12.09,3.34-14.02,3-13.66,12.57-15.06,5.66-.83,7.28-.78,8.03.14.82.91.62,2.31-1.74,12.19h0ZM598.86,485.67c-2.09,8.76-3.06,11.99-3.99,12.91-1.68,1.84-14.98,2.27-16.07.55-.62-.93-.28-3.17,1.98-12.64s3-11.75,4.09-12.8c1.96-1.94,15.35-2.7,16.15-.9.5.9-.07,4.12-2.16,12.88h0ZM625.58,486.84c-2.37,9.92-3.12,12.28-4.19,13.22-1.91,1.74-14.86.66-15.64-1.26-.49-.96.1-4.23,2.25-13.24,3.52-14.76,3.11-14.4,12.39-14.01,5.02.21,6.56.61,7.25,1.79.76,1.19.51,2.79-2.05,13.5h-.01ZM651.89,491.1c-3.69,15.48-3.38,15-12.06,13.19-9.17-1.91-9.03-1.16-5.41-16.32,3.69-15.48,3.31-15.25,12.44-13.7,6.25,1.06,6.75,1.44,7.22,3.26.45,1.65-.03,4.47-2.2,13.57h.01ZM676.73,498.77c-2.3,9.62-3.6,13.99-4.23,14.47-1.19.9-12.93-3.35-14.34-5.05-.89-1.17-.7-2.26,2.21-14.43,2.59-10.84,3.36-13.27,4.41-14.13.97-.79,2.65-.74,7.3.76,3.32,1.07,6.45,2.68,7.01,3.34.87,1.24.67,2.37-2.35,15.03h-.01ZM701.09,511.2c-2.59,10.87-3.38,13.37-4.39,14.04-.95.71-2.53-.05-7.41-2.75-8.22-4.55-8.18-3.87-4.34-19.98,3.84-16.11,3.64-16.09,11.77-11.96,4.93,2.51,6.28,3.66,6.85,5.37.63,1.74.32,3.55-2.48,15.29h0ZM724.42,527.94c-4.03,16.91-3.72,16.42-11.39,10.37-8.1-6.39-8.02-5.36-4.06-21.95,4.04-16.94,3.71-16.9,11.78-10.93,5.53,4.09,5.95,4.8,6.28,7.21.32,2.19-.24,5.37-2.61,15.3h0ZM746.04,549.12c-2.5,10.48-3.87,15.12-4.45,15.38-1.24.56-12.23-11.18-12.76-13.59-.25-1.14.66-6.04,3.01-15.88,2.8-11.74,3.61-14.31,4.58-14.84.9-.49,2.39.36,6.42,4.44,2.88,2.91,5.56,6.41,6.02,7.5.71,1.94.47,3.2-2.82,16.99h0ZM766.76,576.79c-2.82,11.81-3.64,14.43-4.55,14.71-.87.35-2.11-2.15-6.34-7.26-6.58-7.96-5.26-16.66-2.8-26.45,4.35-17.26,4.02-17.68,10.92-8.4,4.19,5.63,5.3,7.77,5.71,10.15.46,2.45.1,4.49-2.94,17.25ZM775.6,616.09c-3.84-7.07-5.05-9.38-5.31-11.57-.31-2.26.21-5.26,3.04-17.08,4.46-18.69,4.18-18.9,10.9-6.43,4.82,8.97,4.93,9.61,4.91,12.97-.01,2.24-1.07,8.01-3.13,16.65-4.24,17.76-3.95,17.36-10.41,5.47h0ZM806.87,630.61c.22,2.61-.37,5.9-3.48,18.94-3.49,14.63-3.84,15.82-4.8,14.95-.56-.64-2.95-5.9-5.32-11.5-3.53-8.36-4.43-10.6-4.57-13.01-.19-2.21.66-6.59,3.37-17.95,4.44-18.6,4.15-18.77,10.29-4.69,3.36,7.72,4.33,10.74,4.52,13.25h-.01ZM814.84,492.53l-19.35,81.09c-15.09-27.36-32.05-51.67-54.73-73.25-19.65-16.47-39.31-27.95-63.54-36.32,5.56-23.29,11.11-46.57,16.67-69.86s11.11-46.57,16.67-69.86c24.59,4.18,45.04,11.88,66.22,25.09,23.89,16.23,41.62,38.17,57.41,62.02-6.45,27.03-12.9,54.06-19.35,81.09h0ZM840.59,373.68c-3,12.59-3.84,15.28-4.76,15.6-.87.4-2.17-1.28-6.13-6.76s-5.21-7.33-5.52-9.33c-.35-2.06.18-5.1,3.13-17.49,2.48-10.38,3.86-15.09,4.45-15.36,1.24-.58,11.73,13.29,12.16,16.12.2,1.33-.81,6.65-3.33,17.21h0ZM859.84,407.5c-4.48,18.79-3.89,17.45-10.47,6.53-6.08-10.09-5.01-18.45-2.2-29.79,4.56-18.35,4.14-18.7,11.04-6.45,4.66,8.27,5.1,9.69,5.15,12.24-.04,1.52-1.57,9.31-3.52,17.47h0Z"/>
  </g>
  <g id="Camara_cine">
    <path class="st1" d="M578.81,528.39c-1.68-1.38-3.89-1.94-6.03-1.52l-49.14,9.71c-3.41.67-5.87,3.67-5.87,7.14v5.61h-24.88v-4.15c0-12.88-10.89-23.35-24.27-23.35h-22.95c28.85-12.86,49.02-41.8,49.02-75.37,0-45.49-37.01-82.49-82.49-82.49-33.59,0-62.53,20.19-75.39,49.05-12.86-28.87-41.8-49.05-75.39-49.05-45.49,0-82.49,37.01-82.49,82.49,0,33.57,20.17,62.51,49.02,75.37h-22.61c-12.92,0-23.48,9.77-24.2,22.03l-22.39-3.54c-2.1-.33-4.25.27-5.86,1.66-1.62,1.38-2.55,3.4-2.55,5.53v47.92c0,2.13.93,4.15,2.55,5.54,1.33,1.13,3.01,1.74,4.73,1.74.38,0,.76-.03,1.14-.09l22.32-3.52v54.57c0,12.88,10.89,23.35,24.27,23.35h50.05v32.16c0,4.02,3.26,7.28,7.28,7.28h148.63c4.02,0,7.28-3.26,7.28-7.28v-32.16h50.05c13.38,0,24.27-10.48,24.27-23.35v-12.14h24.88v5.61c0,3.48,2.46,6.47,5.87,7.14l49.14,9.71c.47.09.94.14,1.41.14,1.67,0,3.31-.58,4.62-1.66,1.68-1.38,2.66-3.45,2.66-5.62v-122.84c0-2.18-.98-4.24-2.66-5.62h-.02ZM412.19,378.53c37.46,0,67.93,30.48,67.93,67.93s-30.48,67.94-67.93,67.94-67.94-30.48-67.94-67.94,30.48-67.93,67.94-67.93ZM193.49,446.46c0-37.46,30.48-67.93,67.93-67.93s67.94,30.48,67.94,67.93c0,30.65-20.4,56.6-48.33,65.04v-63.84c.02-.4.06-.8.06-1.2,0-10.84-8.82-19.67-19.67-19.67s-19.67,8.82-19.67,19.67h-.06v65c-27.87-8.47-48.21-34.4-48.21-65h0ZM256.26,465.42c1.65.45,3.38.71,5.17.71s3.43-.25,5.05-.68v48.74c-1.67.12-3.35.21-5.05.21s-3.46-.09-5.17-.22v-48.77h0ZM266.47,446.46v.6c-.3,2.53-2.44,4.5-5.05,4.5-2.82,0-5.11-2.29-5.11-5.11s2.29-5.11,5.11-5.11,5.11,2.29,5.11,5.11h-.06ZM336.81,479.91c8.3,18.63,23.29,33.62,41.91,41.93h-83.82c18.62-8.3,33.62-23.3,41.91-41.93ZM205.33,536.4h263.28c5.35,0,9.71,3.94,9.71,8.79v67.53H195.63v-67.53c0-4.85,4.35-8.79,9.71-8.79h-.01ZM164.89,586.92v-30.88l16.18,2.56v25.77l-16.18,2.55ZM404.01,701.91h-134.07v-24.88h134.07v24.88h0ZM411.29,662.47h-205.96c-5.35,0-9.71-4.35-9.71-9.71v-25.49h282.7v25.49c0,5.35-4.35,9.71-9.71,9.71h-57.33,0ZM492.89,626.98v-63.08h24.88v63.08h-24.88ZM566.91,648l-34.58-6.83v-91.46l34.58-6.83v105.13h0Z"/>
    <path class="st1" d="M403.13,587.35h52.15c4.02,0,7.28-3.26,7.28-7.28v-25.07c0-4.02-3.26-7.28-7.28-7.28h-52.15c-4.02,0-7.28,3.26-7.28,7.28v25.07c0,4.02,3.26,7.28,7.28,7.28ZM410.41,562.28h37.59v10.51h-37.59v-10.51Z"/>
    <path class="st1" d="M412.19,466.13c10.84,0,19.67-8.82,19.67-19.67s-8.82-19.67-19.67-19.67-19.67,8.82-19.67,19.67,8.82,19.67,19.67,19.67ZM412.19,441.36c2.81,0,5.11,2.29,5.11,5.11s-2.29,5.11-5.11,5.11-5.11-2.29-5.11-5.11,2.29-5.11,5.11-5.11Z"/>
  </g>
  <g>
    <path class="st0" d="M693.14,341.57c-9.13,38.53-30.16,73.6-38.9,112.22-57.27-4.5-110.72,4.87-164.12,27.8,11.96-61.5,23.91-122.99,35.87-184.49,30.5,8.92,59.61,19.85,89.51,30.22,11.68,4.05,24.88,14.52,36.8,16,14.69,1.82,27.03-14.43,40.83-1.74h.01ZM627.21,372.95c1.3-6.35,1.95-9.49,3.19-15.63,0-.04-.24-.68-.3-.78-.52-.85-3.11-2.2-3.17-2.54.9-4.52,1.35-6.75,2.21-11.11.05-1.11-.85-1.75-1.88-2.5-4.12-3.01-9.4-4.58-14.43-4.43-1.14.03-2.62-.01-3.22.83-1.06,5-1.6,7.53-2.68,12.64-1.64,0-4.15-.12-4.73,1.43-1.31,6.63-1.98,9.98-3.32,16.7-1.96-.22-3.27-.35-3.91,1.51-2.96,14.88-5.92,29.76-8.88,44.64-1.46.6-2.68,1.53-3.5,2.75-.14.21-.75,1.19-.77,1.31-.45,2.28-.67,3.42-1.12,5.69-1.94.03-2.9.06-4.76.13-.71.03-2.64.88-3.32,1.33-3.63,2.44-3.91,5.51-4.5,9.02-6.85,1.48-13.53,7.19-16.19,14.94-.38.28-4.83,1.03-5.89,1.41-2.99,1.06-3.44,4.54-.59,3.99,28.67-7.36,61.69-12.22,91.39-8.27.61-.24,1.06-1.07.83-1.8-.3-.95-1.7-.64-2.44-.87.46-4.03-1.12-7.78-4.95-9.01.34-2.16,1.1-3.95.11-5.98-.45-.92-1.86-2.2-2.99-2.37-1.64-.24-2.55-.36-4.46-.54.36-1.74.54-2.62.9-4.39.02-.09-.04-.87-.05-1.06-.12-1.4-.95-2.72-2.24-3.56,2.8-13.67,5.62-27.34,8.43-41.02.07-1.45-1.41-2.12-2.77-2.48v.02Z"/>
    <path class="st1" d="M627.21,372.95c1.36.36,2.84,1.03,2.77,2.48-2.81,13.67-5.63,27.34-8.43,41.02,1.29.84,2.11,2.16,2.24,3.56.02.18.07.97.05,1.06-.36,1.76-.54,2.64-.9,4.39,1.91.18,2.81.3,4.46.54,1.13.17,2.54,1.45,2.99,2.37.98,2.03.23,3.82-.11,5.98,3.83,1.22,5.41,4.97,4.95,9.01.73.23,2.13-.08,2.44.87.23.73-.22,1.56-.83,1.8-29.7-3.95-62.73.9-91.39,8.27-2.85.56-2.4-2.92.59-3.99,1.06-.38,5.51-1.13,5.89-1.41,2.67-7.74,9.35-13.46,16.19-14.94.6-3.5.87-6.57,4.5-9.02.68-.46,2.61-1.31,3.32-1.33,1.87-.07,2.82-.1,4.76-.13.45-2.27.67-3.41,1.12-5.69.02-.12.63-1.1.77-1.31.82-1.22,2.04-2.15,3.5-2.75,2.96-14.88,5.92-29.76,8.88-44.64.63-1.85,1.95-1.73,3.91-1.51,1.34-6.72,2-10.07,3.32-16.7.59-1.55,3.09-1.43,4.73-1.43,1.09-5.11,1.63-7.64,2.68-12.64.59-.84,2.07-.8,3.22-.83,5.03-.15,10.31,1.42,14.43,4.43,1.03.75,1.93,1.39,1.88,2.5-.86,4.36-1.3,6.59-2.21,11.11.06.35,2.65,1.69,3.17,2.54.06.1.31.74.3.78-1.24,6.14-1.89,9.28-3.19,15.63v-.02ZM625.07,342.61c-3.49-2.14-7.87-3.71-11.86-3.04-.75,3.8-1.13,5.72-1.9,9.59.11.19.14.2.35.25.99.22,2.57.19,3.63.37.28-.16.8-4.84,1.19-5.65.78-1.6,3.94-.77,4.03.89.05.92-1.27,5.46-1.08,5.74,1.5.57,2.25.86,3.72,1.46.78-3.89,1.17-5.82,1.92-9.61h0ZM623.54,371.51c1.14-5.6,1.71-8.38,2.82-13.84-5.53-3.9-13.39-5.62-20.32-4.64-1.15,5.83-1.74,8.77-2.91,14.68,1.22.12,1.84.18,3.07.31.73-3.63,1.09-5.44,1.8-9.04.04-.18.88-.78,1.17-.89,1.35-.53,3.04-.28,4.16.64.33.27,1.12,1.29,1.06,1.62-.69,3.42-1.03,5.14-1.73,8.59.96.11,1.43.17,2.38.29.75-3.47,1.13-5.2,1.87-8.63,1.35-1.54,4.49-1.11,5.65.73.84,1.34-.07,2.7-.33,3.88-.38,1.77-.71,3.56-1.06,5.35.09.47,1.86.87,2.38.98v-.03ZM613.22,413.84c1.93.08,2.87.12,4.72.22.14-.12.21-.19.35-.31,2.57-12.54,5.15-25.08,7.72-37.62-.05-.31-1.12-.63-1.54-.79-2.09-.82-4.41-1.23-6.63-1.98-3.59-.72-5.45-1.03-9.17-1.62-2.95-.27-4.45-.39-7.39-.6-2.26,11.33-4.51,22.65-6.77,33.98-.05.25.21,1.52.31,1.85.46,1.58,1.81,3.24,3.54,4.03,2.09-10.43,4.18-20.86,6.27-31.29.03-.14.66-.8.86-.93,1.16-.75,3.38-.1,3.37,1.21-2.16,10.72-4.33,21.45-6.49,32.17-.25.39.59.74.92.76,2.31.18,3.46.28,5.73.49,2.14-10.53,4.29-21.06,6.43-31.6.04-.19.53-1.03.73-1.21.88-.79,2.86-.34,3.3.72.05.12.21.91.2.96-2.15,10.51-4.31,21.03-6.46,31.54v.02ZM619.83,423.01c.39-1.59.91-3.61-1.25-4.37-9.88-1.14-19.94-1.84-29.88-2.1-.87.06-1.9.44-2.35,1.14,1.64,1.61,4.78,2.36,7.36,2.91,7.17,1.52,14.87,1.7,21.74,2.32,1.8.03,2.68.06,4.39.1h-.01ZM584.11,426.91c-3.49.03-5.21.08-8.5.25-.76.04-2.83,1.64-2.97,2.36-1.21,6.19-1.81,9.28-3,15.44,4.27-.64,6.55-.86,11.17-1.18,1.3-6.69,1.97-10.07,3.3-16.88h0ZM606.77,443.07c2.39-.02,3.57-.03,5.84-.05.12-.08.18-.12.3-.21,1.13-5.67,1.72-8.6,2.93-14.56-.09-.09-.13-.14-.22-.23-10.12-.67-16.21-1.05-27.37-1.11-1.33,6.72-1.98,10.06-3.27,16.63,2.5-.13,3.76-.17,6.27-.24.74-.81.52-2.07.69-3.05.34-1.96.8-3.92,1.36-5.87.35-1.24.1-2.6,2.38-2.78,3.67-.28,7.95.45,11.55.33.54-.1,1.57.89,1.52,1.15-.81,4.05-1.22,6.06-2,9.98h.02ZM625.81,442.79c.87-4.45,1.35-6.8,2.34-11.61.17-.83-.75-2.17-1.62-2.28-2.48-.33-3.94-.4-6.93-.61-1.23,6.02-1.82,8.98-2.96,14.66,4.07-.09,6.03-.2,9.17-.16h0ZM565.86,445.61c.6-3.09.9-4.64,1.5-7.74-.09-.13-.13-.19-.33-.17-.39.05-2.43,1.01-2.94,1.29-3.38,1.8-6.47,4.99-7.69,8.86,4.16-1,5.71-1.52,9.46-2.24ZM633.21,443.14c.12-2.6-1.07-5.17-3.57-5.94-.48,2.32-.71,3.46-1.14,5.66,2.08.07,3,.13,4.71.28Z"/>
    <path class="st0" d="M613.22,413.84c2.15-10.52,4.3-21.03,6.46-31.54.01-.05-.15-.84-.2-.96-.45-1.06-2.43-1.51-3.3-.72-.2.18-.69,1.02-.73,1.21-2.15,10.53-4.29,21.06-6.43,31.6-2.26-.21-3.41-.31-5.73-.49-.33-.03-1.17-.38-.92-.76,2.16-10.72,4.32-21.45,6.49-32.17.01-1.31-2.2-1.95-3.37-1.21-.2.13-.83.79-.86.93-2.09,10.43-4.19,20.86-6.27,31.29-1.73-.79-3.09-2.45-3.54-4.03-.1-.33-.36-1.6-.31-1.85,2.26-11.33,4.51-22.65,6.77-33.98,2.95.21,4.44.33,7.39.6,3.72.59,5.58.9,9.17,1.62,2.22.74,4.54,1.16,6.63,1.98.42.16,1.49.48,1.54.79-2.57,12.54-5.15,25.08-7.72,37.62-.14.12-.21.19-.35.31-1.84-.1-2.79-.14-4.72-.22v-.02Z"/>
    <path class="st0" d="M606.77,443.07c.78-3.93,1.18-5.93,2-9.98.05-.26-.98-1.25-1.52-1.15-3.6.11-7.88-.61-11.55-.33-2.27.17-2.02,1.54-2.38,2.78-.56,1.95-1.02,3.91-1.36,5.87-.17.98.06,2.24-.69,3.05-2.51.07-3.77.12-6.27.24,1.29-6.58,1.94-9.91,3.27-16.63,11.16.06,17.24.44,27.37,1.11.09.09.13.14.22.23-1.21,5.96-1.8,8.89-2.93,14.56-.12.08-.18.12-.3.21-2.28.03-3.45.04-5.84.05h-.02Z"/>
    <path class="st0" d="M623.54,371.51c-.52-.11-2.29-.51-2.38-.98.35-1.79.67-3.58,1.06-5.35.26-1.18,1.17-2.54.33-3.88-1.16-1.84-4.3-2.27-5.65-.73-.74,3.43-1.12,5.16-1.87,8.63-.95-.12-1.42-.18-2.38-.29.7-3.45,1.04-5.17,1.73-8.59.07-.33-.73-1.35-1.06-1.62-1.12-.92-2.81-1.17-4.16-.64-.29.11-1.13.71-1.17.89-.72,3.6-1.08,5.41-1.8,9.04-1.23-.13-1.84-.19-3.07-.31,1.18-5.91,1.76-8.85,2.91-14.68,6.94-.98,14.79.74,20.32,4.64-1.1,5.46-1.67,8.24-2.82,13.84v.03Z"/>
    <path class="st0" d="M584.11,426.91c-1.34,6.81-2,10.19-3.3,16.88-4.62.32-6.9.54-11.17,1.18,1.2-6.16,1.8-9.25,3-15.44.14-.72,2.21-2.33,2.97-2.36,3.29-.17,5.01-.22,8.5-.25h0Z"/>
    <path class="st0" d="M625.81,442.79c-3.15-.05-5.1.07-9.17.16,1.13-5.68,1.73-8.64,2.96-14.66,2.99.21,4.46.28,6.93.61.87.11,1.8,1.45,1.62,2.28-.99,4.81-1.47,7.15-2.34,11.61h0Z"/>
    <path class="st0" d="M619.83,423.01c-1.71-.05-2.59-.07-4.39-.1-6.87-.63-14.57-.8-21.74-2.32-2.57-.55-5.71-1.3-7.36-2.91.45-.7,1.48-1.08,2.35-1.14,9.95.26,20,.97,29.88,2.1,2.16.76,1.65,2.78,1.25,4.37h.01Z"/>
    <path class="st0" d="M625.07,342.61c-.75,3.79-1.14,5.71-1.92,9.61-1.47-.6-2.21-.89-3.72-1.46-.19-.28,1.13-4.82,1.08-5.74-.09-1.66-3.25-2.49-4.03-.89-.39.8-.91,5.48-1.19,5.65-1.06-.18-2.64-.15-3.63-.37-.22-.05-.24-.06-.35-.25.77-3.87,1.15-5.79,1.9-9.59,3.99-.67,8.37.9,11.86,3.04h0Z"/>
    <path class="st0" d="M565.86,445.61c-3.75.72-5.3,1.24-9.46,2.24,1.22-3.87,4.31-7.05,7.69-8.86.52-.28,2.55-1.24,2.94-1.29.2-.03.24.03.33.17-.6,3.1-.9,4.65-1.5,7.74Z"/>
    <path class="st0" d="M633.21,443.14c-1.71-.15-2.63-.21-4.71-.28.43-2.2.66-3.34,1.14-5.66,2.5.77,3.69,3.34,3.57,5.94Z"/>
  </g>
  <g>
    <path class="st3" d="M863.89,414.75c-12.06,22.95-8.28,50.47-20.12,73.52-14.43,28.1-36.76,52.49-53.5,79.27-11.24-10.97-20.86-23.32-31.84-34.7-11.92-12.35-18.29-28.77-32.05-39.54-14.51-11.35-33.43-19.46-49.16-29.24,7.55-23.87-3.68-48.02,5.43-71.24,9.19-23.44,21.1-47.65,32.73-69.93,16.24,2.64,29.37-.48,45.17,3.9,9.76,2.71,21.17,6.22,29.72,11.7,12.25,7.86,18.46,21.5,29.12,31.12,15.8,14.25,28.92,30.57,44.51,45.14h0ZM744.49,367.72c1.33-2.84,2-4.25,3.32-7.04.54-1.13-1.52-2.07-2.06-.94-1.33,2.77-2,4.17-3.35,6.99-2.85-2.08-3.79,2.76-5.53,5.49-7.17,11.27-19.65,26.01-34.57,24.34-1.7-.19-3.37-1.06-5.08-1.36-.78.56-1.47,1.68-.79,2.27,1.17,1.01,3.52,1.42,5.12,1.65-.74,1.34-1.1,1.98-1.81,3.2-1.89-.98-2.81-1.44-4.69-2.41-.09-.05-.97.42-1.13.69-.23.37-.29,1.66-.09,1.76,7.6,3.92,10.68,5.54,21.55,11.69-.49.98-.72,1.47-1.17,2.47-10.96-6.2-14.04-7.81-21.57-11.72-.48-.25-1.12,1.49-.7,2.13,7.39,3.84,10.44,5.44,21.4,11.64-2.51,6.14-3.33,9.38-4.87,15.9-.57-.31-1.21-.9-1.71-.56-.85,3.71-1.23,5.58-2,9.32-.14.68-1.46-.62-1.78-1.02-.88-1.06-1.88-3.41-2.78-4.46-.22-.25-.77-.75-1-.88-1.75-1.03-2.71.35-3.81.8-.66.27-1.11.12-1.63-.53-.47-.59-.57-1.7-1.03-2.03-.93.7-.49,2.58.06,3.71.86,1.75,2.05,2.11,3.52,1.19.31-.19.43-.67.83-.8.38-.13.97.05,1.41.3,1.67.96,1.45,2.21,2.65,3.98,1.88,2.75,4.56,3.69,7.06,3.26.36-.06.52-.5,1.11-.53.58-.03,1.44.31,2.05.65,2.43,1.38,2.26,3.19,3.9,5.04,1.67,1.89,4.58,3.27,6.6,2.98.82-.12,1.01-.71,2.07-.53,3.88.67,3.38,2.89,5.24,5.21,1.2,1.49,2.81,2.56,4.42,3.05,2.58.77,3.35-1.38,5.97.26,2.33,1.46,1.91,3.75,4.12,6.29,1.58,1.81,3.45,3.29,5.41,4,2.03.74,2.61-.65,5.09,1.57,2.88,2.58,2.22,3.41,3.51,6.27,1.57,3.45,4.47,6.68,6.96,7.72,2.34.98,3.39-.82,5.77,1.19,3.29,2.77,2.46,5.96,4.71,8.83,1.46,1.87,3.29,2.91,4.9,2.49,1.84-.48,2.35-2.57,4.58-.9,2.44,1.82,1.67,5.27,3.5,8.08,1.17,1.79,2.72,3.13,4.37,3.48,1.81.38,4.14-.46,2.91-3.99-1.07-.9-2.02.1-3.2-.44-3.87-1.76-3.38-8.94-6.66-11.25-.3-.21-1.09-.49-1.42-.51-1.37-.09-3.31,1.5-4.5,1.62-.44.04-2.1-.23-1.83-1.23,1.44-5.48,2.15-8.24,3.63-13.57-.16-1.03-.95-1.19-1.54-1.6,2.59-9.28,3.91-13.82,6.93-21.29,12.05,6.03,22.56,14.91,33.23,23.01,1.3.4,2.3-1.62,1.33-2.35-10.79-8.11-21.42-16.99-33.53-23.1.51-1.17.77-1.73,1.3-2.81,12.02,6.18,22.65,14.93,33.44,22.96.41.3,1.91-.16,2.08-.6.13-.32-.43-1.76-.62-1.9-3.8-2.8-5.78-4.28-9.58-7.08.63-1.14.97-1.72,1.59-2.94,1.76,1.37,12.93,12.02,11.09,6.22-.37-1.17-2.06-1.95-3.07-2.81-17.14-14.61-24.34-32.07-19.66-54.27.64-3.02,2.85-6.14-.46-8,.8-2.68,1.2-4.01,2.01-6.65.33-1.07-1.74-2.82-2.08-1.73-.83,2.67-1.24,4.02-2.06,6.73-.84-.38-1.26-.58-2.12-.99-2.35,5.96-4.83,11.59-8.26,16.16-17.89,23.84-50.49,3.76-52.03-20.39-.61-9.51,2.64-20.95,6.64-29.58.19-1.15-1.03-1.44-1.59-1.72l-.02-.08ZM698.86,448.06c-.48-.66-.95-1.2-1.48-1.54-1.78-1.15-2.33.25-3.43.81-.75.39-1.04.37-1.49-.54-.27-.56-.75-3-1.06-.64-.31,2.38.79,3.89,1.53,4.08,1.12.28,2.03-1.89,3.4-1.28.89.39,1.46,1.05,2.13,2.36.2.39.17.84.56,1.49,1.24,2.1,3.5,3.42,5.53,3.54,1.69.1,2.08-1.26,4.08-.31,3.4,1.62,2.62,4.05,5.1,6.12,1.16.97,2.64,1.68,3.97,1.88,1.78.27,2.63-1.09,4.43-.32,3.68,1.59,2.71,4.09,5.15,6.16,1.76,1.49,3.63,2.07,5.56,1.75.38-.06.64-.47,1.18-.52,1.23-.11,3.16,1.05,4,2.46.6,1.02.57,2.09,1.49,3.59,1.59,2.6,4.61,5.66,7,6.25.84.21,1.13-.38,2.36.34,5.1,3,4.24,8.22,8.2,13.4,1.57,2.06,3.57,3.96,5.24,4.3,2.2.46,2.22-1.02,5.04,2.04,2.54,2.76,1.81,4.65,3.38,7.52,1.65,3,3.98,4.71,6.02,3.85.83-.35,1.4-1.4,2.51-1.24,3.42.5,2.5,4.28,3.85,7.44,1.01,2.36,2.25,3.74,3.98,4.17.97.25,2.09.26,2.75-1.48,1.32-3.47-2.01-2.36-2.98-2.89-2.94-1.58-2.33-8.05-4.91-10.31-2.16-1.89-3.34.08-5.53.53-4.68.96-4.25-7.35-8.03-11.27-3.11-3.22-3.88-1.76-6.58-2.68-.76-.26-1.98-.91-2.72-1.7-3.24-3.48-3.49-8.96-7.03-12.78-3.08-3.32-3.99-2.08-6.44-3.05-.7-.28-1.96-1.02-2.6-1.64-2.74-2.63-2.94-6.84-5.73-8.66-2.58-1.69-3.56-.15-5.78-.29-.55-.03-1.44-.23-1.95-.5-2.45-1.34-2.64-4.94-5.42-6.72-2.92-1.87-3.86-.36-6.21-.52-1.65-.12-2.79-.82-3.94-2.41-1.34-1.86-1.43-3.36-3.53-4.8-3.14-2.15-3.69-.47-6.11-.52-1.51-.03-2.66-.79-3.72-2.31-.59-.85-1.19-2.4-1.76-3.17h-.01Z"/>
    <path class="st2" d="M744.49,367.72c.56.28,1.78.57,1.59,1.72-4,8.63-7.24,20.07-6.64,29.58,1.54,24.15,34.14,44.23,52.03,20.39,3.43-4.57,5.91-10.2,8.26-16.16.85.4,1.28.6,2.12.99.82-2.71,1.24-4.06,2.06-6.73.34-1.08,2.4.66,2.08,1.73-.81,2.64-1.21,3.97-2.01,6.65,3.32,1.86,1.1,4.99.46,8-4.68,22.2,2.52,39.67,19.66,54.27,1.01.86,2.7,1.64,3.07,2.81,1.84,5.79-9.33-4.85-11.09-6.22-.61,1.22-.96,1.8-1.59,2.94,3.8,2.8,5.77,4.27,9.58,7.08.18.14.74,1.58.62,1.9-.17.44-1.67.91-2.08.6-10.79-8.03-21.42-16.78-33.44-22.96-.53,1.08-.79,1.65-1.3,2.81,12.11,6.11,22.74,15,33.53,23.1.98.73-.03,2.75-1.33,2.35-10.67-8.1-21.18-16.98-33.23-23.01-3.02,7.47-4.34,12.02-6.93,21.29.59.41,1.38.57,1.54,1.6-1.47,5.33-2.19,8.1-3.63,13.57-.26,1,1.39,1.27,1.83,1.23,1.19-.12,3.13-1.71,4.5-1.62.33.02,1.12.3,1.42.51,3.28,2.3,2.79,9.48,6.66,11.25,1.18.54,2.13-.46,3.2.44,1.23,3.53-1.1,4.37-2.91,3.99-1.65-.34-3.2-1.69-4.37-3.48-1.83-2.8-1.07-6.26-3.5-8.08-2.23-1.66-2.74.42-4.58.9-1.61.42-3.44-.62-4.9-2.49-2.25-2.88-1.42-6.07-4.71-8.83-2.39-2.01-3.44-.21-5.77-1.19-2.5-1.04-5.4-4.27-6.96-7.72-1.3-2.86-.64-3.69-3.51-6.27-2.47-2.22-3.05-.83-5.09-1.57-1.95-.71-3.83-2.18-5.41-4-2.21-2.53-1.78-4.82-4.12-6.29-2.62-1.64-3.4.51-5.97-.26-1.62-.49-3.23-1.56-4.42-3.05-1.86-2.32-1.36-4.54-5.24-5.21-1.07-.19-1.25.41-2.07.53-2.02.29-4.93-1.09-6.6-2.98-1.63-1.85-1.47-3.66-3.9-5.04-.6-.34-1.47-.68-2.05-.65-.59.03-.75.47-1.11.53-2.5.42-5.19-.52-7.06-3.26-1.21-1.77-.98-3.01-2.65-3.98-.43-.25-1.03-.43-1.41-.3-.4.14-.52.61-.83.8-1.47.92-2.66.57-3.52-1.19-.55-1.13-.99-3.02-.06-3.71.47.33.56,1.44,1.03,2.03.52.65.97.8,1.63.53,1.1-.44,2.06-1.83,3.81-.8.23.14.79.63,1,.88.9,1.05,1.9,3.39,2.78,4.46.33.4,1.64,1.7,1.78,1.02.78-3.74,1.15-5.61,2-9.32.5-.34,1.14.25,1.71.56,1.54-6.52,2.36-9.76,4.87-15.9-10.95-6.2-14-7.8-21.4-11.64-.42-.64.22-2.38.7-2.13,7.54,3.9,10.61,5.51,21.57,11.72.45-1,.68-1.49,1.17-2.47-10.87-6.15-13.95-7.77-21.55-11.69-.2-.1-.14-1.39.09-1.76.17-.27,1.04-.74,1.13-.69,1.88.97,2.8,1.44,4.69,2.41.7-1.21,1.07-1.86,1.81-3.2-1.6-.23-3.95-.64-5.12-1.65-.68-.59,0-1.72.79-2.27,1.71.3,3.38,1.17,5.08,1.36,14.92,1.67,27.39-13.07,34.57-24.34,1.74-2.73,2.68-7.58,5.53-5.49,1.35-2.82,2.02-4.22,3.35-6.99.54-1.12,2.6-.19,2.06.94-1.32,2.79-1.98,4.21-3.32,7.04l.02.08ZM742.61,371.72c-.85-.41-1.28-.61-2.12-1.03-10.01,20.85-24.45,42.32-29.65,65.11.74.34,1.6,1.21,2.28.87,5.4-22.64,19.66-44.1,29.49-64.96h0ZM802.84,409.68c-.85-.63-1.29-.95-2.16-1.62-7.28,23.63-18.24,45.42-25.5,68.94.32,1.28,1.46,1.54,2.21,2.18,7.2-23.73,18.21-45.68,25.45-69.5h0ZM727.21,417.53c3.27-5.79,5.3-9.69,9.43-18.47.04-.09-.29-1.56-.16-1.99.2-3.04.31-4.59.59-7.72-4.23,8.84-8.37,17.77-13.32,26.25,1.37.76,2.06,1.15,3.46,1.93h0ZM783.1,447.8c4.51-8.14,6.41-13.43,10.38-25.5-1.83,1.88-2.77,2.8-4.67,4.6-.19.35-1.42.82-1.45.92-3.08,8.51-4.6,12.14-7.92,18.08,1.49.77,2.23,1.15,3.67,1.91h-.01ZM716.66,411.62c4.85-8.29,9.1-16.93,13.4-25.52-2.26,2.14-3.38,3.18-5.58,5.17-.22.31-1.3.8-1.34.88-4.25,8.31-6.31,12.03-9.53,17.74,1.18.67,1.79,1.02,3.04,1.73h.01ZM793.61,453.44c3.27-5.82,4.69-9.29,7.45-17.23.03-.08-.34-1.24-.28-1.6-.12-2.91-.19-4.42-.35-7.53-3.67,11.54-5.46,16.6-9.91,24.65,1.29.7,1.91,1.05,3.1,1.71h-.01ZM711.63,408.75c2.59-4.52,4.12-7.34,7.37-13.61-2.49.62-4.85,2.65-7.17,2.63-2,3.75-2.93,5.53-4.68,8.46,1.7.93,2.59,1.43,4.48,2.51h0ZM735.88,422.35c1.62-2.82,2.47-4.49,4.25-8.22-1.38-2.82-2.2-5.87-3.07-9.02-3.08,6.52-4.58,9.39-7.15,13.91,2.38,1.33,3.59,2,5.97,3.32h0ZM776.54,444.4c2.59-4.59,3.84-7.33,6.33-13.7-2.81.93-5.59,1.89-8.62,2.25-1.64,3.69-2.48,5.38-4.09,8.17,2.54,1.31,3.84,1.97,6.38,3.28ZM801.66,441.32c-2.25,6.01-3.49,8.71-6.04,13.27,1.99,1.18,3.16,1.94,5.68,3.66,1.58-3.01,2.54-4.65,4.08-8.28-1.38-1.78-2.29-4.07-2.67-6.06-.44-1.06-.65-1.58-1.05-2.58h0ZM708.96,399.02c-1.89,0-3.66.17-5.45.61-.83,1.51-1.24,2.24-2.03,3.58,1.54.8,2.32,1.21,3.96,2.1,1.34-2.24,2.04-3.56,3.52-6.29h0ZM741.64,417.27c-1.39,2.87-2.04,4.17-3.35,6.42,2.35,1.31,3.52,1.96,5.76,3.22.78-1.34,1.15-2.09,1.95-3.67-.51-.63-4.02-6.1-4.36-5.97h0ZM770.88,433.38c-2.58-.44-5.01-.33-7.43-.46-.8,1.59-1.23,2.38-1.99,3.67,2.37,1.25,3.61,1.89,6.12,3.19,1.29-2.21,1.98-3.56,3.3-6.41h0ZM807.12,453.91c-1.2,2.66-1.95,3.88-3.15,6.18,2.69,1.88,4.14,2.94,7.11,5.11.74-1.37,1.16-2.06,1.9-3.55-1.79-2.73-3.82-5.3-5.85-7.74h-.01ZM746.31,428.19c2.18,1.23,3.23,1.82,5.19,2.95.55-.95.82-1.45,1.38-2.53-1.75-.81-3.12-2.43-4.95-3.46-.66,1.3-.97,1.92-1.63,3.04h.01ZM753.71,432.4c2,1.12,3.09,1.72,5.36,2.94.64-1.09,1-1.74,1.67-3.04-1.91-1.01-3.99-1.4-5.64-2.42-.56,1.08-.85,1.59-1.4,2.53h.01ZM781.75,450.38c-19.92-10.53-39.6-21.39-59.28-32.35-.49.98-.73,1.47-1.18,2.46,19.68,10.97,39.4,21.84,59.17,32.65.51-1.14.77-1.69,1.29-2.76h0ZM779.43,455.51c-19.63-11.09-39.35-22-59.05-32.98-2.52,5.98-3.39,9.11-5.04,15.41.34.9,1.64,1.04,1.68,2.11.07,2.03-1.94,5.56-1.78,7.44.03.35,1.33,2.34,1.7,2.72,3.52,3.62,6.19.2,9.76,2.26,2.23,1.28,3.01,4.08,4.57,5.77,2.38,2.59,3.44,1.53,5.7,1.44.33-.01,1.64-.11,1.73-.1,1.91.32,3.21,1.9,4.36,3.8,1.69,2.81,2.08,5.31,5.89,6.31.96.25,3.47.29,4.27.66.26.12,1.67,1.09,1.96,1.34,2.56,2.23,3.18,4.93,4.73,7.96,2.2,4.29,4.63,5.67,7.39,5.08,1.21-2.25,1.64-7.93,2.92-9.8.67-.97,1.74.7,2.54.28,2.48-8.5,3.75-12.66,6.68-19.72v.02ZM714.39,440.57c-2.46-1.39-3.68-2.07-6.02-3.41-.6,2.64-.88,3.96-1.44,6.61,1.34-.11,2.02-.15,3.41-.24,1.09.38,1.95.74,2.93,1.64.44-1.84.66-2.77,1.11-4.6h.01ZM778.45,484.04c-2.47-1.71-3.8-2.72-6.5-4.84-.71,2.51-1.06,3.77-1.76,6.31,1.29.6,2.17,1.51,3.22,2.74,1.03,2.17,1.53,3.25,2.49,5.33,1.02-3.83,1.52-5.76,2.56-9.53h0Z"/>
    <path class="st2" d="M698.86,448.06c.57.78,1.17,2.33,1.76,3.17,1.06,1.52,2.21,2.28,3.72,2.31,2.42.05,2.97-1.63,6.11.52,2.1,1.44,2.19,2.95,3.53,4.8,1.15,1.6,2.29,2.3,3.94,2.41,2.36.17,3.29-1.35,6.21.52,2.78,1.78,2.98,5.37,5.42,6.72.51.28,1.41.47,1.95.5,2.21.14,3.2-1.4,5.78.29,2.79,1.83,2.99,6.03,5.73,8.66.64.62,1.9,1.36,2.6,1.64,2.45.97,3.36-.27,6.44,3.05,3.54,3.82,3.8,9.3,7.03,12.78.74.79,1.96,1.45,2.72,1.7,2.69.92,3.47-.55,6.58,2.68,3.78,3.92,3.34,12.23,8.03,11.27,2.2-.45,3.37-2.42,5.53-.53,2.58,2.26,1.98,8.73,4.91,10.31.97.52,4.3-.58,2.98,2.89-.66,1.73-1.78,1.72-2.75,1.48-1.73-.44-2.97-1.82-3.98-4.17-1.35-3.16-.43-6.94-3.85-7.44-1.11-.16-1.68.9-2.51,1.24-2.04.85-4.37-.86-6.02-3.85-1.58-2.87-.85-4.76-3.38-7.52-2.82-3.06-2.84-1.58-5.04-2.04-1.66-.35-3.66-2.24-5.24-4.3-3.96-5.18-3.09-10.4-8.2-13.4-1.23-.72-1.52-.13-2.36-.34-2.39-.59-5.41-3.65-7-6.25-.92-1.51-.89-2.58-1.49-3.59-.84-1.41-2.77-2.57-4-2.46-.54.05-.8.45-1.18.52-1.93.32-3.79-.25-5.56-1.75-2.44-2.07-1.47-4.57-5.15-6.16-1.79-.78-2.64.59-4.43.32-1.33-.2-2.81-.92-3.97-1.88-2.48-2.07-1.7-4.5-5.1-6.12-2-.95-2.39.41-4.08.31-2.03-.12-4.29-1.43-5.53-3.54-.39-.66-.35-1.1-.56-1.49-.67-1.31-1.25-1.97-2.13-2.36-1.37-.61-2.29,1.56-3.4,1.28-.74-.19-1.84-1.7-1.53-4.08.3-2.36.78.08,1.06.64.45.91.73.93,1.49.54,1.09-.57,1.65-1.96,3.43-.81.53.34,1,.88,1.48,1.54h.01Z"/>
    <path class="st3" d="M779.43,455.51c-2.93,7.06-4.2,11.22-6.68,19.72-.8.42-1.87-1.25-2.54-.28-1.28,1.87-1.71,7.54-2.92,9.8-2.76.59-5.19-.78-7.39-5.08-1.55-3.03-2.17-5.73-4.73-7.96-.28-.25-1.7-1.22-1.96-1.34-.8-.37-3.31-.41-4.27-.66-3.81-1-4.19-3.51-5.89-6.31-1.15-1.9-2.45-3.48-4.36-3.8-.09-.02-1.4.08-1.73.1-2.26.09-3.31,1.15-5.7-1.44-1.56-1.7-2.34-4.49-4.57-5.77-3.57-2.06-6.25,1.36-9.76-2.26-.37-.38-1.67-2.37-1.7-2.72-.16-1.87,1.86-5.41,1.78-7.44-.04-1.07-1.34-1.2-1.68-2.11,1.65-6.3,2.53-9.44,5.04-15.41,19.69,10.98,39.42,21.89,59.05,32.98v-.02Z"/>
    <path class="st3" d="M781.75,450.38c-.53,1.07-.79,1.62-1.29,2.76-19.77-10.81-39.49-21.68-59.17-32.65.45-.99.69-1.48,1.18-2.46,19.68,10.96,39.37,21.82,59.28,32.35h0Z"/>
    <path class="st3" d="M742.61,371.72c-9.83,20.85-24.09,42.32-29.49,64.96-.68.34-1.54-.53-2.28-.87,5.2-22.79,19.64-44.26,29.65-65.11.84.42,1.27.62,2.12,1.03h0Z"/>
    <path class="st3" d="M802.84,409.68c-7.24,23.82-18.25,45.77-25.45,69.5-.75-.64-1.89-.9-2.21-2.18,7.27-23.52,18.23-45.31,25.5-68.94.87.67,1.3.99,2.16,1.62h0Z"/>
    <path class="st3" d="M727.21,417.53c-1.4-.78-2.09-1.16-3.46-1.93,4.95-8.48,9.09-17.4,13.32-26.25-.27,3.13-.39,4.68-.59,7.72-.14.43.2,1.89.16,1.99-4.12,8.78-6.16,12.67-9.43,18.47h0Z"/>
    <path class="st3" d="M783.1,447.8c-1.45-.76-2.19-1.14-3.67-1.91,3.32-5.95,4.84-9.57,7.92-18.08.03-.09,1.26-.56,1.45-.92,1.91-1.8,2.84-2.72,4.67-4.6-3.97,12.07-5.87,17.36-10.38,25.5h.01Z"/>
    <path class="st3" d="M716.66,411.62c-1.25-.71-1.87-1.06-3.04-1.73,3.22-5.71,5.28-9.43,9.53-17.74.04-.08,1.12-.56,1.34-.88,2.2-1.99,3.32-3.02,5.58-5.17-4.31,8.58-8.55,17.22-13.4,25.52h-.01Z"/>
    <path class="st3" d="M793.61,453.44c-1.19-.67-1.81-1.01-3.1-1.71,4.45-8.05,6.24-13.1,9.91-24.65.16,3.11.24,4.62.35,7.53-.06.36.31,1.52.28,1.6-2.75,7.94-4.18,11.41-7.45,17.23h.01Z"/>
    <path class="st3" d="M801.66,441.32c.39,1.01.6,1.53,1.05,2.58.38,2,1.29,4.29,2.67,6.06-1.53,3.63-2.49,5.27-4.08,8.28-2.52-1.72-3.69-2.48-5.68-3.66,2.56-4.57,3.8-7.26,6.04-13.27h0Z"/>
    <path class="st3" d="M711.63,408.75c-1.89-1.09-2.78-1.58-4.48-2.51,1.75-2.93,2.69-4.71,4.68-8.46,2.32.02,4.68-2.02,7.17-2.63-3.26,6.26-4.79,9.09-7.37,13.61h0Z"/>
    <path class="st3" d="M735.88,422.35c-2.38-1.32-3.58-1.99-5.97-3.32,2.57-4.52,4.06-7.39,7.15-13.91.87,3.14,1.69,6.19,3.07,9.02-1.79,3.73-2.63,5.4-4.25,8.22h0Z"/>
    <path class="st3" d="M776.54,444.4c-2.55-1.31-3.84-1.97-6.38-3.28,1.61-2.79,2.46-4.48,4.09-8.17,3.03-.36,5.81-1.32,8.62-2.25-2.49,6.37-3.74,9.11-6.33,13.7Z"/>
    <path class="st3" d="M714.39,440.57c-.46,1.84-.68,2.76-1.11,4.6-.99-.9-1.84-1.26-2.93-1.64-1.39.08-2.07.13-3.41.24.57-2.65.84-3.97,1.44-6.61,2.34,1.33,3.56,2.02,6.02,3.41h-.01Z"/>
    <path class="st3" d="M778.45,484.04c-1.03,3.78-1.54,5.7-2.56,9.53-.96-2.09-1.46-3.16-2.49-5.33-1.06-1.23-1.93-2.14-3.22-2.74.7-2.54,1.05-3.8,1.76-6.31,2.71,2.13,4.03,3.13,6.5,4.84h0Z"/>
    <path class="st3" d="M708.96,399.02c-1.48,2.73-2.18,4.05-3.52,6.29-1.64-.88-2.42-1.29-3.96-2.1.79-1.34,1.2-2.07,2.03-3.58,1.79-.44,3.57-.61,5.45-.61h0Z"/>
    <path class="st3" d="M807.12,453.91c2.03,2.44,4.06,5.01,5.85,7.74-.73,1.49-1.16,2.18-1.9,3.55-2.97-2.17-4.42-3.22-7.11-5.11,1.21-2.3,1.95-3.52,3.15-6.18h.01Z"/>
    <path class="st3" d="M741.64,417.27c.34-.13,3.84,5.34,4.36,5.97-.79,1.59-1.16,2.33-1.95,3.67-2.24-1.26-3.41-1.91-5.76-3.22,1.3-2.25,1.95-3.56,3.35-6.42h0Z"/>
    <path class="st3" d="M770.88,433.38c-1.33,2.85-2.02,4.2-3.3,6.41-2.51-1.3-3.75-1.94-6.12-3.19.77-1.3,1.19-2.09,1.99-3.67,2.42.13,4.85.02,7.43.46h0Z"/>
    <path class="st3" d="M753.71,432.4c.55-.94.83-1.46,1.4-2.53,1.65,1.02,3.73,1.42,5.64,2.42-.68,1.3-1.03,1.96-1.67,3.04-2.28-1.22-3.37-1.81-5.36-2.94h-.01Z"/>
    <path class="st3" d="M746.31,428.19c.66-1.13.97-1.74,1.63-3.04,1.83,1.02,3.19,2.65,4.95,3.46-.56,1.07-.83,1.57-1.38,2.53-1.96-1.12-3.01-1.72-5.19-2.95h-.01Z"/>
  </g>
</svg>